SplineFontDB: 3.2
FontName: CMUTypewriterScaled-Regular
FullName: CMU Typewriter Scaled Regular
FamilyName: CMU Typewriter Scaled
Weight: Regular
Copyright: An edit of CMU Serif Italic and some AMS glyphs to be compatible with JuliaMono
Version: 0.044; ttfautohint (v1.8.4)
ItalicAngle: -9
UnderlinePosition: -250
UnderlineWidth: 100
Ascent: 1600
Descent: 400
InvalidEm: 0
sfntRevision: 0x00000b43
LayerCount: 2
Layer: 0 1 "Back" 1
Layer: 1 1 "Fore" 0
XUID: [1021 821 -1512940191 1964]
StyleMap: 0x0001
FSType: 0
OS2Version: 4
OS2_WeightWidthSlopeOnly: 0
OS2_UseTypoMetrics: 1
CreationTime: 1643970042
ModificationTime: 1658086744
PfmFamily: 17
TTFWeight: 400
TTFWidth: 5
LineGap: 0
VLineGap: 0
Panose: 2 11 6 9 6 3 0 2 0 4
OS2TypoAscent: 1900
OS2TypoAOffset: 0
OS2TypoDescent: -480
OS2TypoDOffset: 0
OS2TypoLinegap: 0
OS2WinAscent: 2400
OS2WinAOffset: 0
OS2WinDescent: 600
OS2WinDOffset: 0
HheadAscent: 1900
HheadAOffset: 0
HheadDescent: -480
HheadDOffset: 0
OS2SubXSize: 1300
OS2SubYSize: 1200
OS2SubXOff: 0
OS2SubYOff: 150
OS2SupXSize: 1300
OS2SupYSize: 1200
OS2SupXOff: 0
OS2SupYOff: 700
OS2StrikeYSize: 100
OS2StrikeYPos: 1100
OS2CapHeight: 1450
OS2XHeight: 1100
OS2Vendor: 'UKWN'
OS2CodePages: 602801bf.00000000
OS2UnicodeRanges: e501ffff.fac5ffff.0f04e877.05c0a06c
Lookup: 1 0 0 "'aalt' Access All Alternates lookup 0" { "'aalt' Access All Alternates lookup 0 subtable"  } ['aalt' ('DFLT' <'dflt' > 'cyrl' <'BGR ' 'SRB ' 'dflt' > 'hebr' <'IWR ' 'dflt' > 'latn' <'AZE ' 'CAT ' 'CRT ' 'KAZ ' 'MOL ' 'NLD ' 'ROM ' 'TAT ' 'TRK ' 'dflt' > ) ]
Lookup: 3 0 0 "'aalt' Access All Alternates lookup 1" { "'aalt' Access All Alternates lookup 1 subtable"  } ['aalt' ('DFLT' <'dflt' > 'cyrl' <'BGR ' 'SRB ' 'dflt' > 'hebr' <'IWR ' 'dflt' > 'latn' <'AZE ' 'CAT ' 'CRT ' 'KAZ ' 'MOL ' 'NLD ' 'ROM ' 'TAT ' 'TRK ' 'dflt' > ) ]

StartChar: A
Encoding: 65 65 0
Width: 1200
VWidth: 2287
GlyphClass: 2
Flags: W
LayerCount: 2
Fore
SplineSet
61.4345703125 68.13671875 m 0,0,1
 61.4345703125 113.93359375 61.4345703125 113.93359375 100.530273438 135.157226562 c 0,2,3
 113.93359375 139.625 113.93359375 139.625 198.826171875 139.625 c 1,4,-1
 475.841796875 1338.16601562 l 2,5,6
 484.778320312 1379.49511719 484.778320312 1379.49511719 503.208984375 1399.04296875 c 128,-1,7
 521.638671875 1418.58984375 521.638671875 1418.58984375 540.069335938 1421.94140625 c 128,-1,8
 558.5 1425.29199219 558.5 1425.29199219 599.270507812 1425.29199219 c 128,-1,9
 640.041015625 1425.29199219 640.041015625 1425.29199219 659.588867188 1421.94140625 c 128,-1,10
 679.135742188 1418.58984375 679.135742188 1418.58984375 696.44921875 1397.92578125 c 128,-1,11
 713.762695312 1377.26074219 713.762695312 1377.26074219 722.69921875 1335.93164062 c 2,12,-1
 999.71484375 139.625 l 1,13,14
 1084.60742188 139.625 1084.60742188 139.625 1098.01074219 132.922851562 c 0,15,16
 1137.10644531 117.28515625 1137.10644531 117.28515625 1137.10644531 68.13671875 c 0,17,18
 1137.10644531 0 1137.10644531 0 1038.80957031 0 c 2,19,-1
 805.357421875 0 l 2,20,21
 775.198242188 0 775.198242188 0 759.559570312 2.234375 c 128,-1,22
 743.921875 4.4677734375 743.921875 4.4677734375 726.608398438 20.6640625 c 128,-1,23
 709.294921875 36.861328125 709.294921875 36.861328125 709.294921875 68.13671875 c 0,24,25
 709.294921875 102.763671875 709.294921875 102.763671875 726.608398438 118.9609375 c 128,-1,26
 743.921875 135.157226562 743.921875 135.157226562 765.703125 137.390625 c 128,-1,27
 787.485351562 139.625 787.485351562 139.625 837.75 139.625 c 1,28,-1
 784.133789062 377.545898438 l 1,29,-1
 414.407226562 377.545898438 l 1,30,-1
 361.908203125 139.625 l 1,31,32
 412.172851562 139.625 412.172851562 139.625 433.954101562 137.390625 c 128,-1,33
 455.736328125 135.157226562 455.736328125 135.157226562 472.491210938 118.9609375 c 128,-1,34
 489.24609375 102.763671875 489.24609375 102.763671875 489.24609375 68.13671875 c 0,35,36
 489.24609375 35.744140625 489.24609375 35.744140625 472.491210938 20.1064453125 c 128,-1,37
 455.736328125 4.4677734375 455.736328125 4.4677734375 439.5390625 2.234375 c 128,-1,38
 423.342773438 0 423.342773438 0 393.18359375 0 c 2,39,-1
 159.731445312 0 l 2,40,41
 61.4345703125 0 61.4345703125 0 61.4345703125 68.13671875 c 0,0,1
447.916992188 517.170898438 m 1,42,-1
 750.624023438 517.170898438 l 1,43,-1
 599.829101562 1235.40234375 l 1,44,-1
 447.916992188 517.170898438 l 1,42,-1
EndSplineSet
Substitution2: "Single Substitution lookup 63 subtable" ordfeminine
Substitution2: "'fwid' Full Widths lookup 32 subtable" uniFF21
Substitution2: "'c2sc' Capitals to Small Capitals lookup 26 subtable" a.sc
AlternateSubs2: "'aalt' Access All Alternates lookup 1 subtable" ordfeminine a.sc uniFF21
EndChar

StartChar: B
Encoding: 66 66 1
Width: 1200
VWidth: 2287
GlyphClass: 2
Flags: W
LayerCount: 2
Fore
SplineSet
52.4990234375 68.13671875 m 0,0,1
 52.4990234375 138.5078125 52.4990234375 138.5078125 146.327148438 139.625 c 2,2,-1
 207.76171875 139.625 l 1,3,-1
 207.76171875 1257.7421875 l 1,4,-1
 146.327148438 1257.7421875 l 2,5,6
 52.4990234375 1257.7421875 52.4990234375 1257.7421875 52.4990234375 1329.23046875 c 0,7,8
 52.4990234375 1397.3671875 52.4990234375 1397.3671875 144.092773438 1397.3671875 c 2,9,-1
 661.263671875 1397.3671875 l 2,10,11
 839.984375 1397.3671875 839.984375 1397.3671875 947.215820312 1289.01757812 c 128,-1,12
 1054.44824219 1180.66894531 1054.44824219 1180.66894531 1054.44824219 1043.27832031 c 0,13,14
 1054.44824219 938.280273438 1054.44824219 938.280273438 986.869140625 854.504882812 c 128,-1,15
 919.291015625 770.73046875 919.291015625 770.73046875 807.590820312 731.634765625 c 1,16,17
 942.748046875 699.2421875 942.748046875 699.2421875 1022.61328125 601.504882812 c 128,-1,18
 1102.47851562 503.766601562 1102.47851562 503.766601562 1102.47851562 382.013671875 c 0,19,20
 1102.47851562 235.686523438 1102.47851562 235.686523438 995.247070312 117.84375 c 128,-1,21
 888.014648438 0 888.014648438 0 707.060546875 0 c 2,22,-1
 144.092773438 0 l 2,23,24
 52.4990234375 0 52.4990234375 0 52.4990234375 68.13671875 c 0,0,1
366.375976562 139.625 m 1,25,-1
 656.795898438 139.625 l 2,26,27
 794.186523438 139.625 794.186523438 139.625 869.584960938 215.022460938 c 128,-1,28
 944.982421875 290.419921875 944.982421875 290.419921875 944.982421875 386.482421875 c 128,-1,29
 944.982421875 482.543945312 944.982421875 482.543945312 878.520507812 569.669921875 c 128,-1,30
 812.05859375 656.795898438 812.05859375 656.795898438 681.370117188 656.795898438 c 2,31,-1
 366.375976562 656.795898438 l 1,32,-1
 366.375976562 139.625 l 1,25,-1
366.375976562 796.420898438 m 1,33,-1
 602.063476562 796.420898438 l 2,34,35
 750.624023438 796.420898438 750.624023438 796.420898438 823.787109375 874.052734375 c 128,-1,36
 896.951171875 951.68359375 896.951171875 951.68359375 896.951171875 1041.04394531 c 0,37,38
 896.951171875 1119.234375 896.951171875 1119.234375 839.42578125 1188.48828125 c 128,-1,39
 781.900390625 1257.7421875 781.900390625 1257.7421875 652.328125 1257.7421875 c 2,40,-1
 366.375976562 1257.7421875 l 1,41,-1
 366.375976562 796.420898438 l 1,33,-1
EndSplineSet
Substitution2: "'fwid' Full Widths lookup 32 subtable" uniFF22
Substitution2: "'c2sc' Capitals to Small Capitals lookup 26 subtable" b.sc
AlternateSubs2: "'aalt' Access All Alternates lookup 1 subtable" b.sc uniFF22
EndChar

StartChar: C
Encoding: 67 67 2
Width: 1200
VWidth: 2287
GlyphClass: 2
Flags: W
LayerCount: 2
Fore
SplineSet
91.59375 700.359375 m 0,0,1
 91.59375 1006.41699219 91.59375 1006.41699219 255.234375 1214.73730469 c 128,-1,2
 418.875 1423.05761719 418.875 1423.05761719 642.275390625 1423.05761719 c 0,3,4
 809.825195312 1423.05761719 809.825195312 1423.05761719 940.513671875 1313.59179688 c 1,5,6
 953.91796875 1339.28320312 953.91796875 1339.28320312 960.620117188 1353.80371094 c 128,-1,7
 967.322265625 1368.32519531 967.322265625 1368.32519531 970.672851562 1375.02734375 c 128,-1,8
 974.024414062 1381.72851562 974.024414062 1381.72851562 974.024414062 1383.96289062 c 0,9,10
 1001.94921875 1423.05761719 1001.94921875 1423.05761719 1038.80957031 1423.05761719 c 0,11,12
 1106.94726562 1423.05761719 1106.94726562 1423.05761719 1106.94726562 1329.23046875 c 2,13,-1
 1106.94726562 1010.88476562 l 2,14,15
 1106.94726562 980.725585938 1106.94726562 980.725585938 1104.71289062 965.087890625 c 128,-1,16
 1102.47851562 949.450195312 1102.47851562 949.450195312 1082.93164062 933.25390625 c 128,-1,17
 1063.38378906 917.056640625 1063.38378906 917.056640625 1027.63964844 917.056640625 c 0,18,19
 995.247070312 917.056640625 995.247070312 917.056640625 976.81640625 929.90234375 c 128,-1,20
 958.385742188 942.748046875 958.385742188 942.748046875 955.03515625 953.91796875 c 128,-1,21
 951.68359375 965.087890625 951.68359375 965.087890625 947.215820312 993.012695312 c 0,22,23
 924.875976562 1128.16992188 924.875976562 1128.16992188 842.217773438 1205.80175781 c 128,-1,24
 759.559570312 1283.43261719 759.559570312 1283.43261719 652.328125 1283.43261719 c 0,25,26
 494.831054688 1283.43261719 494.831054688 1283.43261719 371.9609375 1115.32421875 c 128,-1,27
 249.090820312 947.215820312 249.090820312 947.215820312 249.090820312 700.359375 c 0,28,29
 249.090820312 451.267578125 249.090820312 451.267578125 371.40234375 282.600585938 c 128,-1,30
 493.713867188 113.93359375 493.713867188 113.93359375 654.561523438 113.93359375 c 0,31,32
 750.624023438 113.93359375 750.624023438 113.93359375 844.452148438 179.278320312 c 128,-1,33
 938.280273438 244.623046875 938.280273438 244.623046875 949.450195312 393.18359375 c 0,34,35
 953.91796875 459.086914062 953.91796875 459.086914062 1027.63964844 460.204101562 c 0,36,37
 1108.06445312 460.204101562 1108.06445312 460.204101562 1106.94726562 384.248046875 c 0,38,39
 1106.94726562 224.516601562 1106.94726562 224.516601562 973.465820312 99.4130859375 c 128,-1,40
 839.984375 -25.69140625 839.984375 -25.69140625 645.625976562 -25.69140625 c 0,41,42
 418.875 -25.69140625 418.875 -25.69140625 255.234375 183.188476562 c 128,-1,43
 91.59375 392.067382812 91.59375 392.067382812 91.59375 700.359375 c 0,0,1
EndSplineSet
Substitution2: "'fwid' Full Widths lookup 32 subtable" uniFF23
Substitution2: "'c2sc' Capitals to Small Capitals lookup 26 subtable" c.sc
AlternateSubs2: "'aalt' Access All Alternates lookup 1 subtable" c.sc uniFF23
EndChar

StartChar: D
Encoding: 68 68 3
Width: 1200
VWidth: 2287
GlyphClass: 2
Flags: W
LayerCount: 2
Fore
SplineSet
43.5634765625 68.13671875 m 0,0,1
 43.5634765625 138.5078125 43.5634765625 138.5078125 137.390625 139.625 c 2,2,-1
 187.65625 139.625 l 1,3,-1
 187.65625 1257.7421875 l 1,4,-1
 137.390625 1257.7421875 l 2,5,6
 43.5634765625 1257.7421875 43.5634765625 1257.7421875 43.5634765625 1326.99609375 c 0,7,8
 43.5634765625 1397.3671875 43.5634765625 1397.3671875 137.390625 1397.3671875 c 2,9,-1
 608.764648438 1397.3671875 l 2,10,11
 828.814453125 1397.3671875 828.814453125 1397.3671875 968.997070312 1185.6953125 c 128,-1,12
 1109.18066406 974.024414062 1109.18066406 974.024414062 1109.18066406 688.072265625 c 0,13,14
 1109.18066406 404.353515625 1109.18066406 404.353515625 968.439453125 202.176757812 c 128,-1,15
 827.697265625 0 827.697265625 0 608.764648438 0 c 2,16,-1
 137.390625 0 l 2,17,18
 43.5634765625 0 43.5634765625 0 43.5634765625 68.13671875 c 0,0,1
345.153320312 139.625 m 1,19,-1
 565.202148438 139.625 l 2,20,21
 746.15625 139.625 746.15625 139.625 848.919921875 305.499023438 c 128,-1,22
 951.68359375 471.374023438 951.68359375 471.374023438 951.68359375 688.072265625 c 0,23,24
 951.68359375 908.12109375 951.68359375 908.12109375 848.919921875 1082.93164062 c 128,-1,25
 746.15625 1257.7421875 746.15625 1257.7421875 565.202148438 1257.7421875 c 2,26,-1
 345.153320312 1257.7421875 l 1,27,-1
 345.153320312 139.625 l 1,19,-1
EndSplineSet
Substitution2: "'fwid' Full Widths lookup 32 subtable" uniFF24
Substitution2: "'c2sc' Capitals to Small Capitals lookup 26 subtable" d.sc
AlternateSubs2: "'aalt' Access All Alternates lookup 1 subtable" d.sc uniFF24
EndChar

StartChar: E
Encoding: 69 69 4
Width: 1200
VWidth: 2287
GlyphClass: 2
Flags: W
LayerCount: 2
Fore
SplineSet
59.201171875 68.13671875 m 0,0,1
 59.201171875 138.5078125 59.201171875 138.5078125 153.029296875 139.625 c 2,2,-1
 222.283203125 139.625 l 1,3,-1
 222.283203125 1257.7421875 l 1,4,-1
 153.029296875 1257.7421875 l 2,5,6
 59.201171875 1257.7421875 59.201171875 1257.7421875 59.201171875 1329.23046875 c 0,7,8
 59.201171875 1397.3671875 59.201171875 1397.3671875 153.029296875 1397.3671875 c 2,9,-1
 1006.41699219 1397.3671875 l 2,10,11
 1063.38378906 1397.3671875 1063.38378906 1397.3671875 1080.69726562 1378.37792969 c 128,-1,12
 1098.01074219 1359.38867188 1098.01074219 1359.38867188 1098.01074219 1303.5390625 c 2,13,-1
 1098.01074219 1137.10644531 l 2,14,15
 1098.01074219 1106.94726562 1098.01074219 1106.94726562 1095.77734375 1091.30859375 c 128,-1,16
 1093.54296875 1075.67089844 1093.54296875 1075.67089844 1073.99511719 1059.47460938 c 128,-1,17
 1054.44824219 1043.27832031 1054.44824219 1043.27832031 1017.58691406 1043.27832031 c 0,18,19
 965.087890625 1043.27832031 965.087890625 1043.27832031 952.80078125 1067.29394531 c 128,-1,20
 940.513671875 1091.30859375 940.513671875 1091.30859375 940.513671875 1137.10644531 c 2,21,-1
 940.513671875 1257.7421875 l 1,22,-1
 379.780273438 1257.7421875 l 1,23,-1
 379.780273438 794.186523438 l 1,24,-1
 679.135742188 794.186523438 l 1,25,26
 679.135742188 851.154296875 679.135742188 851.154296875 682.487304688 872.935546875 c 128,-1,27
 685.837890625 894.716796875 685.837890625 894.716796875 703.151367188 909.23828125 c 128,-1,28
 720.46484375 923.758789062 720.46484375 923.758789062 759.559570312 923.758789062 c 0,29,30
 812.05859375 923.758789062 812.05859375 923.758789062 824.904296875 899.743164062 c 128,-1,31
 837.75 875.727539062 837.75 875.727539062 837.75 829.930664062 c 2,32,-1
 837.75 617.701171875 l 2,33,34
 837.75 587.541992188 837.75 587.541992188 834.95703125 571.904296875 c 128,-1,35
 832.165039062 556.265625 832.165039062 556.265625 814.29296875 540.069335938 c 128,-1,36
 796.420898438 523.873046875 796.420898438 523.873046875 759.559570312 523.873046875 c 0,37,38
 704.827148438 523.873046875 704.827148438 523.873046875 691.981445312 549.005859375 c 128,-1,39
 679.135742188 574.137695312 679.135742188 574.137695312 679.135742188 654.561523438 c 1,40,-1
 379.780273438 654.561523438 l 1,41,-1
 379.780273438 139.625 l 1,42,-1
 990.779296875 139.625 l 1,43,-1
 990.779296875 297.122070312 l 2,44,45
 990.779296875 327.28125 990.779296875 327.28125 993.012695312 343.477539062 c 128,-1,46
 995.247070312 359.673828125 995.247070312 359.673828125 1014.79492188 375.311523438 c 128,-1,47
 1034.34179688 390.950195312 1034.34179688 390.950195312 1070.0859375 390.950195312 c 0,48,49
 1122.58496094 390.950195312 1122.58496094 390.950195312 1135.43066406 366.934570312 c 128,-1,50
 1148.27636719 342.918945312 1148.27636719 342.918945312 1148.27636719 297.122070312 c 2,51,-1
 1148.27636719 93.828125 l 2,52,53
 1148.27636719 39.0947265625 1148.27636719 39.0947265625 1129.84570312 19.5478515625 c 128,-1,54
 1111.41503906 0 1111.41503906 0 1056.68164062 0 c 2,55,-1
 153.029296875 0 l 2,56,57
 59.201171875 0 59.201171875 0 59.201171875 68.13671875 c 0,0,1
EndSplineSet
Substitution2: "'fwid' Full Widths lookup 32 subtable" uniFF25
Substitution2: "'c2sc' Capitals to Small Capitals lookup 26 subtable" e.sc
AlternateSubs2: "'aalt' Access All Alternates lookup 1 subtable" e.sc uniFF25
EndChar

StartChar: F
Encoding: 70 70 5
Width: 1200
VWidth: 2287
GlyphClass: 2
Flags: W
LayerCount: 2
Fore
SplineSet
63.6689453125 68.13671875 m 0,0,1
 63.6689453125 138.5078125 63.6689453125 138.5078125 157.497070312 139.625 c 2,2,-1
 233.453125 139.625 l 1,3,-1
 233.453125 1257.7421875 l 1,4,-1
 157.497070312 1257.7421875 l 2,5,6
 63.6689453125 1257.7421875 63.6689453125 1257.7421875 63.6689453125 1326.99609375 c 0,7,8
 63.6689453125 1397.3671875 63.6689453125 1397.3671875 157.497070312 1397.3671875 c 2,9,-1
 1029.87402344 1397.3671875 l 2,10,11
 1086.84082031 1397.3671875 1086.84082031 1397.3671875 1104.15429688 1378.37792969 c 128,-1,12
 1121.46777344 1359.38867188 1121.46777344 1359.38867188 1121.46777344 1303.5390625 c 2,13,-1
 1121.46777344 1137.10644531 l 2,14,15
 1121.46777344 1106.94726562 1121.46777344 1106.94726562 1118.67578125 1091.30859375 c 128,-1,16
 1115.8828125 1075.67089844 1115.8828125 1075.67089844 1096.89355469 1059.47460938 c 128,-1,17
 1077.90527344 1043.27832031 1077.90527344 1043.27832031 1041.04394531 1043.27832031 c 0,18,19
 988.544921875 1043.27832031 988.544921875 1043.27832031 975.69921875 1067.29394531 c 128,-1,20
 962.853515625 1091.30859375 962.853515625 1091.30859375 962.853515625 1137.10644531 c 2,21,-1
 962.853515625 1257.7421875 l 1,22,-1
 390.950195312 1257.7421875 l 1,23,-1
 390.950195312 768.49609375 l 1,24,-1
 702.592773438 768.49609375 l 1,25,26
 702.592773438 825.462890625 702.592773438 825.462890625 705.944335938 847.244140625 c 128,-1,27
 709.294921875 869.026367188 709.294921875 869.026367188 726.608398438 884.10546875 c 128,-1,28
 743.921875 899.184570312 743.921875 899.184570312 781.900390625 899.184570312 c 0,29,30
 834.399414062 899.184570312 834.399414062 899.184570312 847.244140625 875.169921875 c 128,-1,31
 860.08984375 851.154296875 860.08984375 851.154296875 860.08984375 805.357421875 c 2,32,-1
 860.08984375 592.009765625 l 2,33,34
 860.08984375 561.850585938 860.08984375 561.850585938 857.856445312 546.212890625 c 128,-1,35
 855.622070312 530.575195312 855.622070312 530.575195312 837.19140625 514.37890625 c 128,-1,36
 818.760742188 498.181640625 818.760742188 498.181640625 781.900390625 498.181640625 c 0,37,38
 727.166992188 498.181640625 727.166992188 498.181640625 714.879882812 523.873046875 c 128,-1,39
 702.592773438 549.564453125 702.592773438 549.564453125 702.592773438 628.87109375 c 1,40,-1
 390.950195312 628.87109375 l 1,41,-1
 390.950195312 139.625 l 1,42,-1
 510.46875 139.625 l 2,43,44
 538.393554688 139.625 538.393554688 139.625 552.915039062 137.390625 c 128,-1,45
 567.435546875 135.157226562 567.435546875 135.157226562 584.749023438 117.84375 c 128,-1,46
 602.063476562 100.530273438 602.063476562 100.530273438 602.063476562 68.13671875 c 0,47,48
 602.063476562 0 602.063476562 0 510.46875 0 c 2,49,-1
 157.497070312 0 l 2,50,51
 63.6689453125 0 63.6689453125 0 63.6689453125 68.13671875 c 0,0,1
EndSplineSet
Substitution2: "'fwid' Full Widths lookup 32 subtable" uniFF26
Substitution2: "'c2sc' Capitals to Small Capitals lookup 26 subtable" f.sc
AlternateSubs2: "'aalt' Access All Alternates lookup 1 subtable" f.sc uniFF26
EndChar

StartChar: G
Encoding: 71 71 6
Width: 1200
VWidth: 2287
GlyphClass: 2
Flags: W
LayerCount: 2
Fore
SplineSet
87.1259765625 700.359375 m 0,0,1
 87.1259765625 1006.41699219 87.1259765625 1006.41699219 237.920898438 1214.73730469 c 128,-1,2
 388.715820312 1423.05761719 388.715820312 1423.05761719 597.594726562 1423.05761719 c 0,3,4
 746.15625 1423.05761719 746.15625 1423.05761719 864.557617188 1320.29394531 c 1,5,6
 892.483398438 1383.96289062 892.483398438 1383.96289062 908.12109375 1403.51074219 c 128,-1,7
 923.758789062 1423.05761719 923.758789062 1423.05761719 958.385742188 1423.05761719 c 0,8,9
 1026.5234375 1423.05761719 1026.5234375 1423.05761719 1027.63964844 1329.23046875 c 2,10,-1
 1027.63964844 1010.88476562 l 2,11,12
 1027.63964844 980.725585938 1027.63964844 980.725585938 1024.84765625 965.087890625 c 128,-1,13
 1022.0546875 949.450195312 1022.0546875 949.450195312 1003.06640625 933.25390625 c 128,-1,14
 984.077148438 917.056640625 984.077148438 917.056640625 947.215820312 917.056640625 c 0,15,16
 876.844726562 917.056640625 876.844726562 917.056640625 869.026367188 984.077148438 c 0,17,18
 843.334960938 1148.27636719 843.334960938 1148.27636719 764.586914062 1215.85449219 c 128,-1,19
 685.837890625 1283.43261719 685.837890625 1283.43261719 606.53125 1283.43261719 c 0,20,21
 466.90625 1283.43261719 466.90625 1283.43261719 355.764648438 1116.44140625 c 128,-1,22
 244.623046875 949.450195312 244.623046875 949.450195312 244.623046875 698.125 c 0,23,24
 244.623046875 451.267578125 244.623046875 451.267578125 353.530273438 282.600585938 c 128,-1,25
 462.438476562 113.93359375 462.438476562 113.93359375 604.296875 113.93359375 c 0,26,27
 702.592773438 113.93359375 702.592773438 113.93359375 773.522460938 204.411132812 c 128,-1,28
 844.452148438 294.887695312 844.452148438 294.887695312 864.557617188 478.076171875 c 1,29,-1
 768.49609375 478.076171875 l 2,30,31
 740.571289062 478.076171875 740.571289062 478.076171875 726.049804688 480.309570312 c 128,-1,32
 711.529296875 482.543945312 711.529296875 482.543945312 694.215820312 499.857421875 c 128,-1,33
 676.90234375 517.170898438 676.90234375 517.170898438 676.90234375 549.564453125 c 0,34,35
 676.90234375 617.701171875 676.90234375 617.701171875 768.49609375 617.701171875 c 2,36,-1
 1041.04394531 617.701171875 l 2,37,38
 1134.87207031 617.701171875 1134.87207031 617.701171875 1134.87207031 549.564453125 c 0,39,40
 1134.87207031 517.170898438 1134.87207031 517.170898438 1117.55859375 499.857421875 c 128,-1,41
 1100.24511719 482.543945312 1100.24511719 482.543945312 1081.81445312 480.309570312 c 128,-1,42
 1063.38378906 478.076171875 1063.38378906 478.076171875 1027.63964844 478.076171875 c 1,43,-1
 1027.63964844 93.828125 l 2,44,45
 1027.63964844 63.6689453125 1027.63964844 63.6689453125 1024.84765625 48.03125 c 128,-1,46
 1022.0546875 32.392578125 1022.0546875 32.392578125 1004.18261719 16.1962890625 c 128,-1,47
 986.310546875 0 986.310546875 0 949.450195312 0 c 128,-1,48
 912.588867188 0 912.588867188 0 893.041015625 16.1962890625 c 128,-1,49
 873.494140625 32.392578125 873.494140625 32.392578125 871.259765625 48.03125 c 128,-1,50
 869.026367188 63.6689453125 869.026367188 63.6689453125 869.026367188 96.0615234375 c 1,51,52
 764.028320312 -25.69140625 764.028320312 -25.69140625 597.594726562 -25.69140625 c 0,53,54
 389.833007812 -25.69140625 389.833007812 -25.69140625 238.479492188 183.188476562 c 128,-1,55
 87.1259765625 392.067382812 87.1259765625 392.067382812 87.1259765625 700.359375 c 0,0,1
EndSplineSet
Substitution2: "'fwid' Full Widths lookup 32 subtable" uniFF27
Substitution2: "'c2sc' Capitals to Small Capitals lookup 26 subtable" g.sc
AlternateSubs2: "'aalt' Access All Alternates lookup 1 subtable" g.sc uniFF27
EndChar

StartChar: H
Encoding: 72 72 7
Width: 1200
VWidth: 2287
GlyphClass: 2
Flags: W
LayerCount: 2
Fore
SplineSet
50.2646484375 68.13671875 m 0,0,1
 50.2646484375 100.530273438 50.2646484375 100.530273438 67.578125 117.84375 c 128,-1,2
 84.8916015625 135.157226562 84.8916015625 135.157226562 99.4130859375 137.390625 c 128,-1,3
 113.93359375 139.625 113.93359375 139.625 141.859375 139.625 c 2,4,-1
 198.826171875 139.625 l 1,5,-1
 198.826171875 1257.7421875 l 1,6,-1
 141.859375 1257.7421875 l 2,7,8
 50.2646484375 1257.7421875 50.2646484375 1257.7421875 50.2646484375 1326.99609375 c 0,9,10
 50.2646484375 1359.38867188 50.2646484375 1359.38867188 67.578125 1376.14355469 c 128,-1,11
 84.8916015625 1392.89941406 84.8916015625 1392.89941406 99.4130859375 1395.1328125 c 128,-1,12
 113.93359375 1397.3671875 113.93359375 1397.3671875 141.859375 1397.3671875 c 2,13,-1
 414.407226562 1397.3671875 l 2,14,15
 442.33203125 1397.3671875 442.33203125 1397.3671875 456.852539062 1395.1328125 c 128,-1,16
 471.374023438 1392.89941406 471.374023438 1392.89941406 488.6875 1376.14355469 c 128,-1,17
 506.000976562 1359.38867188 506.000976562 1359.38867188 506.000976562 1326.99609375 c 0,18,19
 506.000976562 1258.859375 506.000976562 1258.859375 414.407226562 1257.7421875 c 2,20,-1
 356.323242188 1257.7421875 l 1,21,-1
 356.323242188 796.420898438 l 1,22,-1
 842.217773438 796.420898438 l 1,23,-1
 842.217773438 1257.7421875 l 1,24,-1
 784.133789062 1257.7421875 l 2,25,26
 756.208984375 1257.7421875 756.208984375 1257.7421875 741.688476562 1259.97558594 c 128,-1,27
 727.166992188 1262.20996094 727.166992188 1262.20996094 710.412109375 1279.5234375 c 128,-1,28
 693.657226562 1296.83691406 693.657226562 1296.83691406 693.657226562 1329.23046875 c 0,29,30
 693.657226562 1397.3671875 693.657226562 1397.3671875 784.133789062 1397.3671875 c 2,31,-1
 1056.68164062 1397.3671875 l 2,32,33
 1084.60742188 1397.3671875 1084.60742188 1397.3671875 1099.12792969 1395.1328125 c 128,-1,34
 1113.64941406 1392.89941406 1113.64941406 1392.89941406 1130.96289062 1376.14355469 c 128,-1,35
 1148.27636719 1359.38867188 1148.27636719 1359.38867188 1148.27636719 1326.99609375 c 0,36,37
 1148.27636719 1258.859375 1148.27636719 1258.859375 1056.68164062 1257.7421875 c 2,38,-1
 999.71484375 1257.7421875 l 1,39,-1
 999.71484375 139.625 l 1,40,-1
 1056.68164062 139.625 l 2,41,42
 1084.60742188 139.625 1084.60742188 139.625 1099.12792969 137.390625 c 128,-1,43
 1113.64941406 135.157226562 1113.64941406 135.157226562 1130.96289062 117.84375 c 128,-1,44
 1148.27636719 100.530273438 1148.27636719 100.530273438 1148.27636719 68.13671875 c 0,45,46
 1148.27636719 0 1148.27636719 0 1056.68164062 0 c 2,47,-1
 784.133789062 0 l 2,48,49
 756.208984375 0 756.208984375 0 741.688476562 2.234375 c 128,-1,50
 727.166992188 4.4677734375 727.166992188 4.4677734375 710.412109375 21.78125 c 128,-1,51
 693.657226562 39.0947265625 693.657226562 39.0947265625 693.657226562 70.37109375 c 0,52,53
 693.657226562 138.5078125 693.657226562 138.5078125 784.133789062 139.625 c 2,54,-1
 842.217773438 139.625 l 1,55,-1
 842.217773438 656.795898438 l 1,56,-1
 356.323242188 656.795898438 l 1,57,-1
 356.323242188 139.625 l 1,58,-1
 414.407226562 139.625 l 2,59,60
 442.33203125 139.625 442.33203125 139.625 456.852539062 137.390625 c 128,-1,61
 471.374023438 135.157226562 471.374023438 135.157226562 488.6875 117.84375 c 128,-1,62
 506.000976562 100.530273438 506.000976562 100.530273438 506.000976562 68.13671875 c 0,63,64
 506.000976562 0 506.000976562 0 414.407226562 0 c 2,65,-1
 141.859375 0 l 2,66,67
 50.2646484375 0 50.2646484375 0 50.2646484375 68.13671875 c 0,0,1
EndSplineSet
Substitution2: "'fwid' Full Widths lookup 32 subtable" uniFF28
Substitution2: "'c2sc' Capitals to Small Capitals lookup 26 subtable" h.sc
AlternateSubs2: "'aalt' Access All Alternates lookup 1 subtable" h.sc uniFF28
EndChar

StartChar: I
Encoding: 73 73 8
Width: 1200
VWidth: 2287
GlyphClass: 2
Flags: W
LayerCount: 2
Fore
SplineSet
180.954101562 70.37109375 m 0,0,1
 180.954101562 138.5078125 180.954101562 138.5078125 274.782226562 139.625 c 2,2,-1
 521.638671875 139.625 l 1,3,-1
 521.638671875 1257.7421875 l 1,4,-1
 274.782226562 1257.7421875 l 2,5,6
 180.954101562 1257.7421875 180.954101562 1257.7421875 180.954101562 1329.23046875 c 0,7,8
 180.954101562 1397.3671875 180.954101562 1397.3671875 274.782226562 1397.3671875 c 2,9,-1
 925.993164062 1397.3671875 l 2,10,11
 1019.82128906 1397.3671875 1019.82128906 1397.3671875 1019.82128906 1326.99609375 c 0,12,13
 1019.82128906 1258.859375 1019.82128906 1258.859375 925.993164062 1257.7421875 c 2,14,-1
 679.135742188 1257.7421875 l 1,15,-1
 679.135742188 139.625 l 1,16,-1
 925.993164062 139.625 l 2,17,18
 1019.82128906 139.625 1019.82128906 139.625 1019.82128906 68.13671875 c 0,19,20
 1019.82128906 0 1019.82128906 0 925.993164062 0 c 2,21,-1
 274.782226562 0 l 2,22,23
 180.954101562 0 180.954101562 0 180.954101562 70.37109375 c 0,0,1
EndSplineSet
Substitution2: "'fwid' Full Widths lookup 32 subtable" uniFF29
Substitution2: "'c2sc' Capitals to Small Capitals lookup 26 subtable" i.sc
AlternateSubs2: "'aalt' Access All Alternates lookup 1 subtable" i.sc uniFF29
EndChar

StartChar: J
Encoding: 74 74 9
Width: 1200
VWidth: 2287
GlyphClass: 2
Flags: W
LayerCount: 2
Fore
SplineSet
161.96484375 226.750976562 m 0,0,1
 161.96484375 279.25 161.96484375 279.25 192.124023438 306.616210938 c 128,-1,2
 222.283203125 333.983398438 222.283203125 333.983398438 265.287109375 333.983398438 c 128,-1,3
 308.291992188 333.983398438 308.291992188 333.983398438 337.333984375 304.3828125 c 128,-1,4
 366.375976562 274.782226562 366.375976562 274.782226562 366.375976562 233.453125 c 0,5,6
 366.375976562 196.591796875 366.375976562 196.591796875 347.38671875 174.251953125 c 1,7,8
 413.290039062 115.05078125 413.290039062 115.05078125 541.745117188 113.93359375 c 0,9,10
 569.669921875 113.93359375 569.669921875 113.93359375 598.153320312 120.077148438 c 128,-1,11
 626.63671875 126.220703125 626.63671875 126.220703125 671.317382812 142.975585938 c 128,-1,12
 715.997070312 159.731445312 715.997070312 159.731445312 744.48046875 205.528320312 c 128,-1,13
 772.963867188 251.325195312 772.963867188 251.325195312 772.963867188 320.579101562 c 2,14,-1
 772.963867188 1257.7421875 l 1,15,-1
 585.307617188 1257.7421875 l 2,16,17
 491.48046875 1257.7421875 491.48046875 1257.7421875 491.48046875 1329.23046875 c 0,18,19
 491.48046875 1397.3671875 491.48046875 1397.3671875 585.307617188 1397.3671875 c 2,20,-1
 999.71484375 1397.3671875 l 2,21,22
 1093.54296875 1397.3671875 1093.54296875 1397.3671875 1093.54296875 1329.23046875 c 0,23,24
 1093.54296875 1258.859375 1093.54296875 1258.859375 999.71484375 1257.7421875 c 2,25,-1
 931.578125 1257.7421875 l 1,26,-1
 931.578125 306.057617188 l 2,27,28
 931.578125 155.262695312 931.578125 155.262695312 817.0859375 64.7861328125 c 128,-1,29
 702.592773438 -25.69140625 702.592773438 -25.69140625 541.745117188 -25.69140625 c 0,30,31
 371.9609375 -25.69140625 371.9609375 -25.69140625 266.962890625 45.796875 c 128,-1,32
 161.96484375 117.28515625 161.96484375 117.28515625 161.96484375 226.750976562 c 0,0,1
EndSplineSet
Substitution2: "'fwid' Full Widths lookup 32 subtable" uniFF2A
Substitution2: "'c2sc' Capitals to Small Capitals lookup 26 subtable" j.sc
AlternateSubs2: "'aalt' Access All Alternates lookup 1 subtable" j.sc uniFF2A
EndChar

StartChar: K
Encoding: 75 75 10
Width: 1200
VWidth: 2287
GlyphClass: 2
Flags: W
LayerCount: 2
Fore
SplineSet
59.201171875 70.37109375 m 0,0,1
 59.201171875 138.5078125 59.201171875 138.5078125 153.029296875 139.625 c 2,2,-1
 203.293945312 139.625 l 1,3,-1
 203.293945312 1257.7421875 l 1,4,-1
 153.029296875 1257.7421875 l 2,5,6
 59.201171875 1257.7421875 59.201171875 1257.7421875 59.201171875 1329.23046875 c 0,7,8
 59.201171875 1397.3671875 59.201171875 1397.3671875 153.029296875 1397.3671875 c 2,9,-1
 382.013671875 1397.3671875 l 2,10,11
 475.841796875 1397.3671875 475.841796875 1397.3671875 475.841796875 1326.99609375 c 0,12,13
 475.841796875 1258.859375 475.841796875 1258.859375 382.013671875 1257.7421875 c 2,14,-1
 331.749023438 1257.7421875 l 1,15,-1
 331.749023438 650.09375 l 1,16,-1
 814.29296875 1257.7421875 l 1,17,18
 720.46484375 1257.7421875 720.46484375 1257.7421875 720.46484375 1326.99609375 c 0,19,20
 720.46484375 1397.3671875 720.46484375 1397.3671875 814.29296875 1397.3671875 c 2,21,-1
 1015.35253906 1397.3671875 l 2,22,23
 1109.18066406 1397.3671875 1109.18066406 1397.3671875 1109.18066406 1329.23046875 c 0,24,25
 1109.18066406 1294.60253906 1109.18066406 1294.60253906 1091.30859375 1278.40625 c 128,-1,26
 1073.43652344 1262.20996094 1073.43652344 1262.20996094 1051.65527344 1259.97558594 c 128,-1,27
 1029.87402344 1257.7421875 1029.87402344 1257.7421875 979.609375 1257.7421875 c 1,28,-1
 631.10546875 818.760742188 l 1,29,-1
 997.481445312 167.549804688 l 2,30,31
 997.481445312 165.31640625 997.481445312 165.31640625 1004.18261719 154.704101562 c 128,-1,32
 1010.88476562 144.092773438 1010.88476562 144.092773438 1013.11914062 139.625 c 1,33,34
 1056.68164062 139.625 1056.68164062 139.625 1076.22949219 137.390625 c 128,-1,35
 1095.77734375 135.157226562 1095.77734375 135.157226562 1114.20703125 118.9609375 c 128,-1,36
 1132.63769531 102.763671875 1132.63769531 102.763671875 1132.63769531 68.13671875 c 0,37,38
 1132.63769531 0 1132.63769531 0 1038.80957031 0 c 2,39,-1
 866.791992188 0 l 2,40,41
 772.963867188 0 772.963867188 0 772.963867188 70.37109375 c 0,42,43
 772.963867188 138.5078125 772.963867188 138.5078125 864.557617188 139.625 c 1,44,-1
 543.978515625 711.529296875 l 1,45,-1
 331.749023438 443.44921875 l 1,46,-1
 331.749023438 139.625 l 1,47,-1
 382.013671875 139.625 l 2,48,49
 475.841796875 139.625 475.841796875 139.625 475.841796875 68.13671875 c 0,50,51
 475.841796875 0 475.841796875 0 382.013671875 0 c 2,52,-1
 153.029296875 0 l 2,53,54
 59.201171875 0 59.201171875 0 59.201171875 70.37109375 c 0,0,1
EndSplineSet
Substitution2: "'fwid' Full Widths lookup 32 subtable" uniFF2B
Substitution2: "'c2sc' Capitals to Small Capitals lookup 26 subtable" k.sc
AlternateSubs2: "'aalt' Access All Alternates lookup 1 subtable" k.sc uniFF2B
EndChar

StartChar: L
Encoding: 76 76 11
Width: 1200
VWidth: 2287
GlyphClass: 2
Flags: W
LayerCount: 2
Fore
SplineSet
73.7216796875 68.13671875 m 0,0,1
 73.7216796875 100.530273438 73.7216796875 100.530273438 90.4765625 117.84375 c 128,-1,2
 107.232421875 135.157226562 107.232421875 135.157226562 122.311523438 137.390625 c 128,-1,3
 137.390625 139.625 137.390625 139.625 164.19921875 139.625 c 2,4,-1
 249.090820312 139.625 l 1,5,-1
 249.090820312 1257.7421875 l 1,6,-1
 164.19921875 1257.7421875 l 2,7,8
 73.7216796875 1257.7421875 73.7216796875 1257.7421875 73.7216796875 1325.87890625 c 0,9,10
 73.7216796875 1359.38867188 73.7216796875 1359.38867188 90.4765625 1376.14355469 c 128,-1,11
 107.232421875 1392.89941406 107.232421875 1392.89941406 122.311523438 1395.1328125 c 128,-1,12
 137.390625 1397.3671875 137.390625 1397.3671875 164.19921875 1397.3671875 c 2,13,-1
 535.04296875 1397.3671875 l 2,14,15
 628.87109375 1397.3671875 628.87109375 1397.3671875 628.87109375 1326.99609375 c 0,16,17
 628.87109375 1258.859375 628.87109375 1258.859375 535.04296875 1257.7421875 c 2,18,-1
 407.705078125 1257.7421875 l 1,19,-1
 407.705078125 139.625 l 1,20,-1
 958.385742188 139.625 l 1,21,-1
 958.385742188 297.122070312 l 2,22,23
 958.385742188 329.514648438 958.385742188 329.514648438 960.620117188 345.711914062 c 128,-1,24
 962.853515625 361.908203125 962.853515625 361.908203125 982.401367188 376.428710938 c 128,-1,25
 1001.94921875 390.950195312 1001.94921875 390.950195312 1038.80957031 390.950195312 c 0,26,27
 1091.30859375 390.950195312 1091.30859375 390.950195312 1103.59570312 366.934570312 c 128,-1,28
 1115.8828125 342.918945312 1115.8828125 342.918945312 1115.8828125 297.122070312 c 2,29,-1
 1115.8828125 93.828125 l 2,30,31
 1115.8828125 39.0947265625 1115.8828125 39.0947265625 1098.01074219 19.5478515625 c 128,-1,32
 1080.13867188 0 1080.13867188 0 1025.40625 0 c 2,33,-1
 164.19921875 0 l 2,34,35
 73.7216796875 0 73.7216796875 0 73.7216796875 68.13671875 c 0,0,1
EndSplineSet
Substitution2: "'fwid' Full Widths lookup 32 subtable" uniFF2C
Substitution2: "'c2sc' Capitals to Small Capitals lookup 26 subtable" l.sc
AlternateSubs2: "'aalt' Access All Alternates lookup 1 subtable" l.sc uniFF2C
EndChar

StartChar: M
Encoding: 77 77 12
Width: 1200
VWidth: 2287
GlyphClass: 2
Flags: W
LayerCount: 2
Fore
SplineSet
39.0947265625 68.13671875 m 0,0,1
 39.0947265625 102.763671875 39.0947265625 102.763671875 56.408203125 118.9609375 c 128,-1,2
 73.7216796875 135.157226562 73.7216796875 135.157226562 93.828125 137.390625 c 128,-1,3
 113.93359375 139.625 113.93359375 139.625 159.731445312 139.625 c 1,4,-1
 159.731445312 1257.7421875 l 1,5,6
 113.93359375 1257.7421875 113.93359375 1257.7421875 93.828125 1259.97558594 c 128,-1,7
 73.7216796875 1262.20996094 73.7216796875 1262.20996094 56.408203125 1278.40625 c 128,-1,8
 39.0947265625 1294.60253906 39.0947265625 1294.60253906 39.0947265625 1329.23046875 c 0,9,10
 39.0947265625 1397.3671875 39.0947265625 1397.3671875 130.689453125 1397.3671875 c 2,11,-1
 258.02734375 1397.3671875 l 2,12,13
 347.38671875 1397.3671875 347.38671875 1397.3671875 370.84375 1342.63378906 c 1,14,15
 583.07421875 704.827148438 583.07421875 704.827148438 599.829101562 628.87109375 c 1,16,-1
 602.063476562 628.87109375 l 1,17,18
 617.701171875 707.060546875 617.701171875 707.060546875 663.498046875 844.452148438 c 2,19,-1
 816.52734375 1305.7734375 l 2,20,21
 829.930664062 1342.63378906 829.930664062 1342.63378906 838.30859375 1357.71386719 c 128,-1,22
 846.685546875 1372.79296875 846.685546875 1372.79296875 870.701171875 1385.08007812 c 128,-1,23
 894.716796875 1397.3671875 894.716796875 1397.3671875 940.513671875 1397.3671875 c 2,24,-1
 1067.8515625 1397.3671875 l 2,25,26
 1159.44628906 1397.3671875 1159.44628906 1397.3671875 1159.44628906 1329.23046875 c 0,27,28
 1159.44628906 1294.60253906 1159.44628906 1294.60253906 1142.69140625 1278.40625 c 128,-1,29
 1125.93554688 1262.20996094 1125.93554688 1262.20996094 1105.27148438 1259.97558594 c 128,-1,30
 1084.60742188 1257.7421875 1084.60742188 1257.7421875 1038.80957031 1257.7421875 c 1,31,-1
 1038.80957031 139.625 l 1,32,33
 1084.60742188 139.625 1084.60742188 139.625 1105.27148438 137.390625 c 128,-1,34
 1125.93554688 135.157226562 1125.93554688 135.157226562 1142.69140625 118.9609375 c 128,-1,35
 1159.44628906 102.763671875 1159.44628906 102.763671875 1159.44628906 68.13671875 c 0,36,37
 1159.44628906 0 1159.44628906 0 1067.8515625 0 c 2,38,-1
 880.196289062 0 l 2,39,40
 789.71875 0 789.71875 0 789.71875 67.01953125 c 0,41,42
 789.71875 102.763671875 789.71875 102.763671875 806.473632812 118.9609375 c 128,-1,43
 823.228515625 135.157226562 823.228515625 135.157226562 843.893554688 137.390625 c 128,-1,44
 864.557617188 139.625 864.557617188 139.625 910.35546875 139.625 c 1,45,-1
 910.35546875 1230.93359375 l 1,46,-1
 908.12109375 1230.93359375 l 1,47,48
 896.951171875 1176.20117188 896.951171875 1176.20117188 840.54296875 1000.83203125 c 128,-1,49
 784.133789062 825.462890625 784.133789062 825.462890625 733.869140625 675.78515625 c 128,-1,50
 683.603515625 526.107421875 683.603515625 526.107421875 679.135742188 517.170898438 c 0,51,52
 648.9765625 466.90625 648.9765625 466.90625 599.829101562 466.90625 c 0,53,54
 556.265625 466.90625 556.265625 466.90625 530.575195312 501.533203125 c 0,55,56
 519.405273438 514.936523438 519.405273438 514.936523438 471.374023438 656.795898438 c 0,57,58
 469.139648438 661.263671875 469.139648438 661.263671875 442.890625 743.36328125 c 128,-1,59
 416.640625 825.462890625 416.640625 825.462890625 386.482421875 915.940429688 c 128,-1,60
 356.323242188 1006.41699219 356.323242188 1006.41699219 327.83984375 1100.24511719 c 128,-1,61
 299.356445312 1194.07324219 299.356445312 1194.07324219 290.419921875 1230.93359375 c 1,62,-1
 288.185546875 1230.93359375 l 1,63,-1
 288.185546875 139.625 l 1,64,65
 333.983398438 139.625 333.983398438 139.625 354.647460938 137.390625 c 128,-1,66
 375.311523438 135.157226562 375.311523438 135.157226562 392.625976562 118.9609375 c 128,-1,67
 409.939453125 102.763671875 409.939453125 102.763671875 409.939453125 68.13671875 c 0,68,69
 409.939453125 0 409.939453125 0 318.344726562 0 c 2,70,-1
 130.689453125 0 l 2,71,72
 39.0947265625 0 39.0947265625 0 39.0947265625 68.13671875 c 0,0,1
EndSplineSet
Substitution2: "'fwid' Full Widths lookup 32 subtable" uniFF2D
Substitution2: "'c2sc' Capitals to Small Capitals lookup 26 subtable" m.sc
AlternateSubs2: "'aalt' Access All Alternates lookup 1 subtable" m.sc uniFF2D
EndChar

StartChar: N
Encoding: 78 78 13
Width: 1200
VWidth: 2287
GlyphClass: 2
Flags: W
LayerCount: 2
Fore
SplineSet
63.6689453125 70.37109375 m 0,0,1
 63.6689453125 138.5078125 63.6689453125 138.5078125 155.262695312 139.625 c 2,2,-1
 212.23046875 139.625 l 1,3,-1
 212.23046875 1257.7421875 l 1,4,-1
 155.262695312 1257.7421875 l 2,5,6
 127.337890625 1257.7421875 127.337890625 1257.7421875 112.817382812 1259.97558594 c 128,-1,7
 98.2958984375 1262.20996094 98.2958984375 1262.20996094 80.982421875 1279.5234375 c 128,-1,8
 63.6689453125 1296.83691406 63.6689453125 1296.83691406 63.6689453125 1329.23046875 c 0,9,10
 63.6689453125 1397.3671875 63.6689453125 1397.3671875 155.262695312 1397.3671875 c 2,11,-1
 311.642578125 1397.3671875 l 2,12,13
 364.141601562 1397.3671875 364.141601562 1397.3671875 390.391601562 1382.84570312 c 128,-1,14
 416.640625 1368.32519531 416.640625 1368.32519531 434.512695312 1315.82617188 c 2,15,-1
 855.622070312 172.017578125 l 1,16,-1
 857.856445312 172.017578125 l 1,17,-1
 857.856445312 1257.7421875 l 1,18,-1
 800.888671875 1257.7421875 l 2,19,20
 709.294921875 1257.7421875 709.294921875 1257.7421875 709.294921875 1326.99609375 c 0,21,22
 709.294921875 1359.38867188 709.294921875 1359.38867188 726.608398438 1376.14355469 c 128,-1,23
 743.921875 1392.89941406 743.921875 1392.89941406 758.443359375 1395.1328125 c 128,-1,24
 772.963867188 1397.3671875 772.963867188 1397.3671875 800.888671875 1397.3671875 c 2,25,-1
 1043.27832031 1397.3671875 l 2,26,27
 1071.203125 1397.3671875 1071.203125 1397.3671875 1085.72363281 1395.1328125 c 128,-1,28
 1100.24511719 1392.89941406 1100.24511719 1392.89941406 1117.55859375 1376.14355469 c 128,-1,29
 1134.87207031 1359.38867188 1134.87207031 1359.38867188 1134.87207031 1326.99609375 c 0,30,31
 1134.87207031 1258.859375 1134.87207031 1258.859375 1043.27832031 1257.7421875 c 2,32,-1
 986.310546875 1257.7421875 l 1,33,-1
 986.310546875 93.828125 l 2,34,35
 986.310546875 32.392578125 986.310546875 32.392578125 966.763671875 16.1962890625 c 128,-1,36
 947.215820312 0 947.215820312 0 890.249023438 0 c 0,37,38
 853.387695312 0 853.387695312 0 836.07421875 3.3505859375 c 128,-1,39
 818.760742188 6.7021484375 818.760742188 6.7021484375 798.096679688 25.1328125 c 128,-1,40
 777.431640625 43.5634765625 777.431640625 43.5634765625 764.028320312 82.658203125 c 2,41,-1
 342.918945312 1226.46582031 l 1,42,-1
 340.684570312 1226.46582031 l 1,43,-1
 340.684570312 139.625 l 1,44,-1
 397.65234375 139.625 l 2,45,46
 425.577148438 139.625 425.577148438 139.625 440.65625 137.390625 c 128,-1,47
 455.736328125 135.157226562 455.736328125 135.157226562 472.491210938 117.84375 c 128,-1,48
 489.24609375 100.530273438 489.24609375 100.530273438 489.24609375 68.13671875 c 0,49,50
 489.24609375 0 489.24609375 0 397.65234375 0 c 2,51,-1
 155.262695312 0 l 2,52,53
 127.337890625 0 127.337890625 0 112.817382812 2.234375 c 128,-1,54
 98.2958984375 4.4677734375 98.2958984375 4.4677734375 80.982421875 21.22265625 c 128,-1,55
 63.6689453125 37.9775390625 63.6689453125 37.9775390625 63.6689453125 70.37109375 c 0,0,1
EndSplineSet
Substitution2: "'fwid' Full Widths lookup 32 subtable" uniFF2E
Substitution2: "'c2sc' Capitals to Small Capitals lookup 26 subtable" n.sc
AlternateSubs2: "'aalt' Access All Alternates lookup 1 subtable" n.sc uniFF2E
EndChar

StartChar: O
Encoding: 79 79 14
Width: 1200
VWidth: 2287
GlyphClass: 2
Flags: W
LayerCount: 2
Fore
SplineSet
128.455078125 697.56640625 m 128,-1,1
 128.455078125 875.727539062 128.455078125 875.727539062 132.922851562 982.401367188 c 128,-1,2
 137.390625 1089.07519531 137.390625 1089.07519531 158.055664062 1179.55175781 c 128,-1,3
 178.719726562 1270.02929688 178.719726562 1270.02929688 204.969726562 1310.79980469 c 128,-1,4
 231.21875 1351.5703125 231.21875 1351.5703125 290.419921875 1380.61230469 c 128,-1,5
 349.62109375 1409.65429688 349.62109375 1409.65429688 416.08203125 1416.35644531 c 128,-1,6
 482.543945312 1423.05761719 482.543945312 1423.05761719 599.829101562 1423.05761719 c 0,7,8
 686.955078125 1423.05761719 686.955078125 1423.05761719 742.8046875 1419.70703125 c 128,-1,9
 798.655273438 1416.35644531 798.655273438 1416.35644531 851.154296875 1402.39355469 c 128,-1,10
 903.653320312 1388.43066406 903.653320312 1388.43066406 934.370117188 1368.88378906 c 128,-1,11
 965.087890625 1349.3359375 965.087890625 1349.3359375 992.454101562 1307.44824219 c 128,-1,12
 1019.82128906 1265.56054688 1019.82128906 1265.56054688 1032.66601562 1218.64746094 c 128,-1,13
 1045.51171875 1171.73339844 1045.51171875 1171.73339844 1055.56542969 1090.19238281 c 128,-1,14
 1065.61816406 1008.65136719 1065.61816406 1008.65136719 1067.8515625 919.291015625 c 128,-1,15
 1070.0859375 829.930664062 1070.0859375 829.930664062 1070.0859375 698.125 c 0,16,17
 1070.0859375 519.405273438 1070.0859375 519.405273438 1065.61816406 412.731445312 c 128,-1,18
 1061.15039062 306.057617188 1061.15039062 306.057617188 1040.48535156 217.256835938 c 128,-1,19
 1019.82128906 128.455078125 1019.82128906 128.455078125 993.571289062 87.1259765625 c 128,-1,20
 967.322265625 45.796875 967.322265625 45.796875 908.12109375 17.3134765625 c 128,-1,21
 848.919921875 -11.169921875 848.919921875 -11.169921875 781.341796875 -18.4306640625 c 128,-1,22
 713.762695312 -25.69140625 713.762695312 -25.69140625 599.829101562 -25.69140625 c 0,23,24
 483.661132812 -25.69140625 483.661132812 -25.69140625 416.640625 -18.4306640625 c 128,-1,25
 349.62109375 -11.169921875 349.62109375 -11.169921875 290.419921875 17.3134765625 c 128,-1,26
 231.21875 45.796875 231.21875 45.796875 204.969726562 87.1259765625 c 128,-1,27
 178.719726562 128.455078125 178.719726562 128.455078125 158.055664062 217.256835938 c 128,-1,28
 137.390625 306.057617188 137.390625 306.057617188 132.922851562 412.731445312 c 128,-1,0
 128.455078125 519.405273438 128.455078125 519.405273438 128.455078125 697.56640625 c 128,-1,1
285.952148438 718.231445312 m 0,29,30
 285.952148438 393.18359375 285.952148438 393.18359375 313.876953125 277.015625 c 0,31,32
 333.983398438 187.65625 333.983398438 187.65625 393.7421875 150.794921875 c 128,-1,33
 453.501953125 113.93359375 453.501953125 113.93359375 599.829101562 113.93359375 c 0,34,35
 748.389648438 113.93359375 748.389648438 113.93359375 808.708007812 153.029296875 c 128,-1,36
 869.026367188 192.124023438 869.026367188 192.124023438 888.014648438 290.419921875 c 0,37,38
 912.588867188 408.822265625 912.588867188 408.822265625 912.588867188 693.657226562 c 0,39,40
 912.588867188 705.944335938 912.588867188 705.944335938 912.588867188 718.231445312 c 0,41,42
 912.588867188 1029.87402344 912.588867188 1029.87402344 885.78125 1137.10644531 c 0,43,44
 860.08984375 1226.46582031 860.08984375 1226.46582031 798.096679688 1254.94921875 c 128,-1,45
 736.102539062 1283.43261719 736.102539062 1283.43261719 599.829101562 1283.43261719 c 0,46,47
 453.501953125 1283.43261719 453.501953125 1283.43261719 392.625976562 1251.59863281 c 128,-1,48
 331.749023438 1219.76367188 331.749023438 1219.76367188 311.642578125 1121.46777344 c 0,49,50
 285.952148438 1015.35253906 285.952148438 1015.35253906 285.952148438 718.231445312 c 0,29,30
EndSplineSet
Substitution2: "Single Substitution lookup 63 subtable" ordmasculine
Substitution2: "'fwid' Full Widths lookup 32 subtable" uniFF2F
Substitution2: "'c2sc' Capitals to Small Capitals lookup 26 subtable" o.sc
AlternateSubs2: "'aalt' Access All Alternates lookup 1 subtable" ordmasculine o.sc uniFF2F
EndChar

StartChar: P
Encoding: 80 80 15
Width: 1200
VWidth: 2287
GlyphClass: 2
Flags: W
LayerCount: 2
Fore
SplineSet
59.201171875 68.13671875 m 0,0,1
 59.201171875 138.5078125 59.201171875 138.5078125 153.029296875 139.625 c 2,2,-1
 222.283203125 139.625 l 1,3,-1
 222.283203125 1257.7421875 l 1,4,-1
 153.029296875 1257.7421875 l 2,5,6
 59.201171875 1257.7421875 59.201171875 1257.7421875 59.201171875 1329.23046875 c 0,7,8
 59.201171875 1397.3671875 59.201171875 1397.3671875 153.029296875 1397.3671875 c 2,9,-1
 665.732421875 1397.3671875 l 2,10,11
 855.622070312 1397.3671875 855.622070312 1397.3671875 976.81640625 1271.70410156 c 128,-1,12
 1098.01074219 1146.04199219 1098.01074219 1146.04199219 1098.01074219 979.05078125 c 128,-1,13
 1098.01074219 812.05859375 1098.01074219 812.05859375 977.93359375 686.396484375 c 128,-1,14
 857.856445312 560.734375 857.856445312 560.734375 665.732421875 560.734375 c 2,15,-1
 379.780273438 560.734375 l 1,16,-1
 379.780273438 139.625 l 1,17,-1
 447.916992188 139.625 l 2,18,19
 541.745117188 139.625 541.745117188 139.625 541.745117188 68.13671875 c 0,20,21
 541.745117188 0 541.745117188 0 447.916992188 0 c 2,22,-1
 153.029296875 0 l 2,23,24
 59.201171875 0 59.201171875 0 59.201171875 68.13671875 c 0,0,1
379.780273438 700.359375 m 1,25,-1
 622.168945312 700.359375 l 2,26,27
 772.963867188 700.359375 772.963867188 700.359375 856.739257812 786.926757812 c 128,-1,28
 940.513671875 873.494140625 940.513671875 873.494140625 940.513671875 979.05078125 c 128,-1,29
 940.513671875 1084.60742188 940.513671875 1084.60742188 856.739257812 1171.17480469 c 128,-1,30
 772.963867188 1257.7421875 772.963867188 1257.7421875 622.168945312 1257.7421875 c 2,31,-1
 379.780273438 1257.7421875 l 1,32,-1
 379.780273438 700.359375 l 1,25,-1
EndSplineSet
Substitution2: "'fwid' Full Widths lookup 32 subtable" uniFF30
Substitution2: "'c2sc' Capitals to Small Capitals lookup 26 subtable" p.sc
AlternateSubs2: "'aalt' Access All Alternates lookup 1 subtable" p.sc uniFF30
EndChar

StartChar: Q
Encoding: 81 81 16
Width: 1200
VWidth: 2287
GlyphClass: 2
Flags: W
LayerCount: 2
Fore
SplineSet
128.455078125 697.56640625 m 128,-1,1
 128.455078125 875.727539062 128.455078125 875.727539062 132.922851562 982.401367188 c 128,-1,2
 137.390625 1089.07519531 137.390625 1089.07519531 158.055664062 1179.55175781 c 128,-1,3
 178.719726562 1270.02929688 178.719726562 1270.02929688 204.969726562 1310.79980469 c 128,-1,4
 231.21875 1351.5703125 231.21875 1351.5703125 290.419921875 1380.61230469 c 128,-1,5
 349.62109375 1409.65429688 349.62109375 1409.65429688 416.08203125 1416.35644531 c 128,-1,6
 482.543945312 1423.05761719 482.543945312 1423.05761719 599.829101562 1423.05761719 c 0,7,8
 686.955078125 1423.05761719 686.955078125 1423.05761719 742.8046875 1419.70703125 c 128,-1,9
 798.655273438 1416.35644531 798.655273438 1416.35644531 851.154296875 1402.39355469 c 128,-1,10
 903.653320312 1388.43066406 903.653320312 1388.43066406 934.370117188 1368.88378906 c 128,-1,11
 965.087890625 1349.3359375 965.087890625 1349.3359375 992.454101562 1307.44824219 c 128,-1,12
 1019.82128906 1265.56054688 1019.82128906 1265.56054688 1032.66601562 1218.64746094 c 128,-1,13
 1045.51171875 1171.73339844 1045.51171875 1171.73339844 1055.56542969 1090.19238281 c 128,-1,14
 1065.61816406 1008.65136719 1065.61816406 1008.65136719 1067.8515625 919.291015625 c 128,-1,15
 1070.0859375 829.930664062 1070.0859375 829.930664062 1070.0859375 698.125 c 0,16,17
 1070.0859375 440.09765625 1070.0859375 440.09765625 1056.68164062 316.111328125 c 0,18,19
 1041.04394531 176.486328125 1041.04394531 176.486328125 1005.29980469 107.790039062 c 128,-1,20
 969.555664062 39.0947265625 969.555664062 39.0947265625 894.716796875 8.935546875 c 1,21,22
 956.15234375 -107.232421875 956.15234375 -107.232421875 969.555664062 -128.455078125 c 0,23,24
 1039.92675781 -270.314453125 1039.92675781 -270.314453125 1041.04394531 -274.782226562 c 0,25,26
 1041.04394531 -318.344726562 1041.04394531 -318.344726562 967.322265625 -318.344726562 c 2,27,-1
 947.215820312 -318.344726562 l 2,28,29
 885.78125 -318.344726562 885.78125 -318.344726562 866.791992188 -290.419921875 c 0,30,31
 866.791992188 -288.185546875 866.791992188 -288.185546875 833.840820312 -226.192382812 c 128,-1,32
 800.888671875 -164.19921875 800.888671875 -164.19921875 767.37890625 -100.530273438 c 128,-1,33
 733.869140625 -36.861328125 733.869140625 -36.861328125 727.166992188 -22.33984375 c 1,34,35
 701.475585938 -24.57421875 701.475585938 -24.57421875 599.829101562 -25.69140625 c 0,36,37
 483.661132812 -25.69140625 483.661132812 -25.69140625 416.640625 -18.4306640625 c 128,-1,38
 349.62109375 -11.169921875 349.62109375 -11.169921875 290.419921875 17.3134765625 c 128,-1,39
 231.21875 45.796875 231.21875 45.796875 204.969726562 87.1259765625 c 128,-1,40
 178.719726562 128.455078125 178.719726562 128.455078125 158.055664062 217.256835938 c 128,-1,41
 137.390625 306.057617188 137.390625 306.057617188 132.922851562 412.731445312 c 128,-1,0
 128.455078125 519.405273438 128.455078125 519.405273438 128.455078125 697.56640625 c 128,-1,1
285.952148438 698.125 m 0,42,43
 285.952148438 418.875 285.952148438 418.875 306.057617188 301.58984375 c 0,44,45
 323.9296875 201.059570312 323.9296875 201.059570312 379.221679688 157.497070312 c 128,-1,46
 434.512695312 113.93359375 434.512695312 113.93359375 580.83984375 113.93359375 c 2,47,-1
 654.561523438 113.93359375 l 1,48,-1
 549.564453125 318.344726562 l 2,49,50
 540.627929688 333.983398438 540.627929688 333.983398438 539.510742188 347.38671875 c 0,51,52
 539.510742188 390.950195312 539.510742188 390.950195312 613.233398438 390.950195312 c 2,53,-1
 637.806640625 390.950195312 l 2,54,55
 672.43359375 390.950195312 672.43359375 390.950195312 681.370117188 385.365234375 c 128,-1,56
 690.305664062 379.780273438 690.305664062 379.780273438 707.060546875 354.088867188 c 2,57,-1
 816.52734375 155.262695312 l 1,58,59
 848.919921875 177.602539062 848.919921875 177.602539062 864.557617188 205.528320312 c 128,-1,60
 880.196289062 233.453125 880.196289062 233.453125 896.392578125 354.647460938 c 128,-1,61
 912.588867188 475.841796875 912.588867188 475.841796875 912.588867188 700.359375 c 0,62,63
 912.588867188 979.609375 912.588867188 979.609375 892.483398438 1095.77734375 c 0,64,65
 874.611328125 1207.4765625 874.611328125 1207.4765625 813.734375 1245.45507812 c 128,-1,66
 752.858398438 1283.43261719 752.858398438 1283.43261719 599.270507812 1283.43261719 c 128,-1,67
 445.682617188 1283.43261719 445.682617188 1283.43261719 388.715820312 1246.57226562 c 128,-1,68
 331.749023438 1209.7109375 331.749023438 1209.7109375 308.291992188 1111.41503906 c 0,69,70
 285.952148438 1001.94921875 285.952148438 1001.94921875 285.952148438 698.125 c 0,42,43
EndSplineSet
Substitution2: "'fwid' Full Widths lookup 32 subtable" uniFF31
Substitution2: "'c2sc' Capitals to Small Capitals lookup 26 subtable" q.sc
AlternateSubs2: "'aalt' Access All Alternates lookup 1 subtable" q.sc uniFF31
EndChar

StartChar: R
Encoding: 82 82 17
Width: 1200
VWidth: 2287
GlyphClass: 2
Flags: W
LayerCount: 2
Fore
SplineSet
50.2646484375 68.13671875 m 0,0,1
 50.2646484375 100.530273438 50.2646484375 100.530273438 67.578125 117.84375 c 128,-1,2
 84.8916015625 135.157226562 84.8916015625 135.157226562 99.4130859375 137.390625 c 128,-1,3
 113.93359375 139.625 113.93359375 139.625 141.859375 139.625 c 2,4,-1
 198.826171875 139.625 l 1,5,-1
 198.826171875 1257.7421875 l 1,6,-1
 141.859375 1257.7421875 l 2,7,8
 50.2646484375 1257.7421875 50.2646484375 1257.7421875 50.2646484375 1326.99609375 c 0,9,10
 50.2646484375 1359.38867188 50.2646484375 1359.38867188 67.578125 1376.14355469 c 128,-1,11
 84.8916015625 1392.89941406 84.8916015625 1392.89941406 99.4130859375 1395.1328125 c 128,-1,12
 113.93359375 1397.3671875 113.93359375 1397.3671875 141.859375 1397.3671875 c 2,13,-1
 546.212890625 1397.3671875 l 2,14,15
 740.571289062 1397.3671875 740.571289062 1397.3671875 865.674804688 1281.7578125 c 128,-1,16
 990.779296875 1166.1484375 990.779296875 1166.1484375 990.779296875 1013.11914062 c 0,17,18
 990.779296875 928.2265625 990.779296875 928.2265625 944.982421875 840.54296875 c 128,-1,19
 899.184570312 752.858398438 899.184570312 752.858398438 796.420898438 695.890625 c 1,20,21
 876.844726562 632.221679688 876.844726562 632.221679688 908.12109375 556.265625 c 0,22,23
 928.2265625 503.766601562 928.2265625 503.766601562 928.2265625 340.684570312 c 0,24,25
 928.2265625 281.484375 928.2265625 281.484375 929.90234375 251.883789062 c 128,-1,26
 931.578125 222.283203125 931.578125 222.283203125 937.163085938 184.3046875 c 128,-1,27
 942.748046875 146.327148438 942.748046875 146.327148438 956.15234375 130.130859375 c 128,-1,28
 969.555664062 113.93359375 969.555664062 113.93359375 993.012695312 113.93359375 c 0,29,30
 1036.57617188 113.93359375 1036.57617188 113.93359375 1036.57617188 217.815429688 c 0,31,32
 1038.80957031 285.952148438 1038.80957031 285.952148438 1113.64941406 285.952148438 c 0,33,34
 1194.07324219 285.952148438 1194.07324219 285.952148438 1194.07324219 212.23046875 c 0,35,36
 1194.07324219 129.572265625 1194.07324219 129.572265625 1142.69140625 51.9404296875 c 128,-1,37
 1091.30859375 -25.69140625 1091.30859375 -25.69140625 995.247070312 -25.69140625 c 0,38,39
 873.494140625 -25.69140625 873.494140625 -25.69140625 814.29296875 80.423828125 c 0,40,41
 784.133789062 130.689453125 784.133789062 130.689453125 777.431640625 186.5390625 c 128,-1,42
 770.73046875 242.388671875 770.73046875 242.388671875 770.73046875 370.84375 c 0,43,44
 770.73046875 430.044921875 770.73046875 430.044921875 768.49609375 456.294921875 c 128,-1,45
 766.26171875 482.543945312 766.26171875 482.543945312 756.208984375 512.14453125 c 128,-1,46
 746.15625 541.745117188 746.15625 541.745117188 720.46484375 565.202148438 c 0,47,48
 646.743164062 628.87109375 646.743164062 628.87109375 535.04296875 628.87109375 c 2,49,-1
 356.323242188 628.87109375 l 1,50,-1
 356.323242188 139.625 l 1,51,-1
 414.407226562 139.625 l 2,52,53
 442.33203125 139.625 442.33203125 139.625 456.852539062 137.390625 c 128,-1,54
 471.374023438 135.157226562 471.374023438 135.157226562 488.6875 117.84375 c 128,-1,55
 506.000976562 100.530273438 506.000976562 100.530273438 506.000976562 68.13671875 c 0,56,57
 506.000976562 0 506.000976562 0 414.407226562 0 c 2,58,-1
 141.859375 0 l 2,59,60
 50.2646484375 0 50.2646484375 0 50.2646484375 68.13671875 c 0,0,1
356.323242188 768.49609375 m 1,61,-1
 521.638671875 768.49609375 l 2,62,63
 667.965820312 768.49609375 667.965820312 768.49609375 750.065429688 843.893554688 c 128,-1,64
 832.165039062 919.291015625 832.165039062 919.291015625 832.165039062 1013.11914062 c 128,-1,65
 832.165039062 1106.94726562 832.165039062 1106.94726562 750.065429688 1182.34472656 c 128,-1,66
 667.965820312 1257.7421875 667.965820312 1257.7421875 521.638671875 1257.7421875 c 2,67,-1
 356.323242188 1257.7421875 l 1,68,-1
 356.323242188 768.49609375 l 1,61,-1
EndSplineSet
Substitution2: "'fwid' Full Widths lookup 32 subtable" uniFF32
Substitution2: "'c2sc' Capitals to Small Capitals lookup 26 subtable" r.sc
AlternateSubs2: "'aalt' Access All Alternates lookup 1 subtable" r.sc uniFF32
EndChar

StartChar: S
Encoding: 83 83 18
Width: 1200
VWidth: 2287
GlyphClass: 2
Flags: W
LayerCount: 2
Fore
SplineSet
118.40234375 68.13671875 m 2,0,-1
 118.40234375 370.84375 l 2,1,2
 118.40234375 401.002929688 118.40234375 401.002929688 121.194335938 416.640625 c 128,-1,3
 123.987304688 432.279296875 123.987304688 432.279296875 142.975585938 448.475585938 c 128,-1,4
 161.96484375 464.671875 161.96484375 464.671875 198.826171875 464.671875 c 0,5,6
 233.453125 464.671875 233.453125 464.671875 251.883789062 450.709960938 c 128,-1,7
 270.314453125 436.747070312 270.314453125 436.747070312 272.547851562 423.342773438 c 128,-1,8
 274.782226562 409.939453125 274.782226562 409.939453125 277.015625 384.248046875 c 0,9,10
 283.717773438 249.090820312 283.717773438 249.090820312 384.248046875 185.421875 c 0,11,12
 489.24609375 115.05078125 489.24609375 115.05078125 652.328125 113.93359375 c 0,13,14
 780.783203125 113.93359375 780.783203125 113.93359375 856.180664062 192.124023438 c 128,-1,15
 931.578125 270.314453125 931.578125 270.314453125 931.578125 368.610351562 c 0,16,17
 931.578125 571.904296875 931.578125 571.904296875 676.90234375 626.63671875 c 0,18,19
 565.202148438 648.9765625 565.202148438 648.9765625 414.407226562 688.072265625 c 0,20,21
 277.015625 727.166992188 277.015625 727.166992188 197.708984375 827.697265625 c 128,-1,22
 118.40234375 928.2265625 118.40234375 928.2265625 118.40234375 1047.74609375 c 0,23,24
 118.40234375 1198.54101562 118.40234375 1198.54101562 239.038085938 1310.79980469 c 128,-1,25
 359.673828125 1423.05761719 359.673828125 1423.05761719 543.978515625 1423.05761719 c 0,26,27
 738.336914062 1423.05761719 738.336914062 1423.05761719 864.557617188 1315.82617188 c 1,28,29
 875.727539062 1357.15527344 875.727539062 1357.15527344 882.98828125 1375.02734375 c 128,-1,30
 890.249023438 1392.89941406 890.249023438 1392.89941406 907.00390625 1407.97851562 c 128,-1,31
 923.758789062 1423.05761719 923.758789062 1423.05761719 949.450195312 1423.05761719 c 0,32,33
 1017.58691406 1423.05761719 1017.58691406 1423.05761719 1017.58691406 1329.23046875 c 2,34,-1
 1017.58691406 1027.63964844 l 2,35,36
 1017.58691406 997.481445312 1017.58691406 997.481445312 1015.35253906 981.284179688 c 128,-1,37
 1013.11914062 965.087890625 1013.11914062 965.087890625 993.571289062 949.450195312 c 128,-1,38
 974.024414062 933.811523438 974.024414062 933.811523438 938.280273438 933.811523438 c 0,39,40
 870.142578125 933.811523438 870.142578125 933.811523438 860.08984375 997.481445312 c 0,41,42
 853.387695312 1036.57617188 853.387695312 1036.57617188 847.802734375 1057.24023438 c 128,-1,43
 842.217773438 1077.90527344 842.217773438 1077.90527344 819.319335938 1127.05273438 c 128,-1,44
 796.420898438 1176.20117188 796.420898438 1176.20117188 766.26171875 1204.68457031 c 128,-1,45
 736.102539062 1233.16796875 736.102539062 1233.16796875 676.90234375 1258.30078125 c 128,-1,46
 617.701171875 1283.43261719 617.701171875 1283.43261719 541.745117188 1283.43261719 c 0,47,48
 423.342773438 1283.43261719 423.342773438 1283.43261719 345.711914062 1215.85449219 c 128,-1,49
 268.080078125 1148.27636719 268.080078125 1148.27636719 268.080078125 1056.68164062 c 0,50,51
 268.080078125 978.4921875 268.080078125 978.4921875 320.579101562 921.525390625 c 128,-1,52
 373.078125 864.557617188 373.078125 864.557617188 450.151367188 842.217773438 c 1,53,-1
 635.573242188 800.888671875 l 2,54,55
 781.900390625 766.26171875 781.900390625 766.26171875 842.776367188 741.129882812 c 128,-1,56
 903.653320312 715.997070312 903.653320312 715.997070312 969.555664062 652.328125 c 1,57,58
 1079.02246094 533.92578125 1079.02246094 533.92578125 1080.13867188 379.780273438 c 0,59,60
 1080.13867188 220.048828125 1080.13867188 220.048828125 960.061523438 97.1787109375 c 128,-1,61
 839.984375 -25.69140625 839.984375 -25.69140625 650.09375 -25.69140625 c 0,62,63
 412.172851562 -25.69140625 412.172851562 -25.69140625 272.547851562 80.423828125 c 1,64,65
 256.91015625 21.22265625 256.91015625 21.22265625 239.596679688 -2.234375 c 128,-1,66
 222.283203125 -25.69140625 222.283203125 -25.69140625 187.65625 -25.69140625 c 0,67,68
 118.40234375 -25.69140625 118.40234375 -25.69140625 118.40234375 68.13671875 c 2,0,-1
EndSplineSet
Substitution2: "'fwid' Full Widths lookup 32 subtable" uniFF33
Substitution2: "'c2sc' Capitals to Small Capitals lookup 26 subtable" s.sc
AlternateSubs2: "'aalt' Access All Alternates lookup 1 subtable" s.sc uniFF33
EndChar

StartChar: T
Encoding: 84 84 19
Width: 1200
VWidth: 2287
GlyphClass: 2
Flags: W
LayerCount: 2
Fore
SplineSet
59.201171875 1137.10644531 m 2,0,-1
 59.201171875 1303.5390625 l 2,1,2
 59.201171875 1360.50585938 59.201171875 1360.50585938 77.6318359375 1378.93652344 c 128,-1,3
 96.0615234375 1397.3671875 96.0615234375 1397.3671875 153.029296875 1397.3671875 c 2,4,-1
 1047.74609375 1397.3671875 l 2,5,6
 1104.71289062 1397.3671875 1104.71289062 1397.3671875 1122.02636719 1378.37792969 c 128,-1,7
 1139.33984375 1359.38867188 1139.33984375 1359.38867188 1139.33984375 1303.5390625 c 2,8,-1
 1139.33984375 1137.10644531 l 2,9,10
 1139.33984375 1106.94726562 1139.33984375 1106.94726562 1137.10644531 1091.30859375 c 128,-1,11
 1134.87207031 1075.67089844 1134.87207031 1075.67089844 1115.32421875 1059.47460938 c 128,-1,12
 1095.77734375 1043.27832031 1095.77734375 1043.27832031 1058.91601562 1043.27832031 c 0,13,14
 1006.41699219 1043.27832031 1006.41699219 1043.27832031 994.129882812 1067.29394531 c 128,-1,15
 981.842773438 1091.30859375 981.842773438 1091.30859375 981.842773438 1137.10644531 c 2,16,-1
 981.842773438 1257.7421875 l 1,17,-1
 679.135742188 1257.7421875 l 1,18,-1
 679.135742188 139.625 l 1,19,-1
 798.655273438 139.625 l 2,20,21
 826.580078125 139.625 826.580078125 139.625 841.100585938 137.390625 c 128,-1,22
 855.622070312 135.157226562 855.622070312 135.157226562 872.935546875 117.84375 c 128,-1,23
 890.249023438 100.530273438 890.249023438 100.530273438 890.249023438 68.13671875 c 0,24,25
 890.249023438 0 890.249023438 0 798.655273438 0 c 2,26,-1
 402.120117188 0 l 2,27,28
 374.1953125 0 374.1953125 0 359.673828125 2.234375 c 128,-1,29
 345.153320312 4.4677734375 345.153320312 4.4677734375 328.3984375 21.78125 c 128,-1,30
 311.642578125 39.0947265625 311.642578125 39.0947265625 311.642578125 70.37109375 c 0,31,32
 311.642578125 138.5078125 311.642578125 138.5078125 402.120117188 139.625 c 2,33,-1
 521.638671875 139.625 l 1,34,-1
 521.638671875 1257.7421875 l 1,35,-1
 217.815429688 1257.7421875 l 1,36,-1
 217.815429688 1137.10644531 l 2,37,38
 217.815429688 1106.94726562 217.815429688 1106.94726562 215.022460938 1091.30859375 c 128,-1,39
 212.23046875 1075.67089844 212.23046875 1075.67089844 193.241210938 1059.47460938 c 128,-1,40
 174.251953125 1043.27832031 174.251953125 1043.27832031 137.390625 1043.27832031 c 0,41,42
 84.8916015625 1043.27832031 84.8916015625 1043.27832031 72.046875 1067.29394531 c 128,-1,43
 59.201171875 1091.30859375 59.201171875 1091.30859375 59.201171875 1137.10644531 c 2,0,-1
EndSplineSet
Substitution2: "'fwid' Full Widths lookup 32 subtable" uniFF34
Substitution2: "'c2sc' Capitals to Small Capitals lookup 26 subtable" t.sc
AlternateSubs2: "'aalt' Access All Alternates lookup 1 subtable" t.sc uniFF34
EndChar

StartChar: U
Encoding: 85 85 20
Width: 1200
VWidth: 2287
GlyphClass: 2
Flags: W
LayerCount: 2
Fore
SplineSet
8.935546875 1329.23046875 m 0,0,1
 8.935546875 1397.3671875 8.935546875 1397.3671875 102.763671875 1397.3671875 c 2,2,-1
 397.65234375 1397.3671875 l 2,3,4
 491.48046875 1397.3671875 491.48046875 1397.3671875 491.48046875 1329.23046875 c 0,5,6
 491.48046875 1258.859375 491.48046875 1258.859375 397.65234375 1257.7421875 c 2,7,-1
 329.514648438 1257.7421875 l 1,8,-1
 329.514648438 478.076171875 l 2,9,10
 329.514648438 306.057617188 329.514648438 306.057617188 412.731445312 209.99609375 c 128,-1,11
 495.948242188 113.93359375 495.948242188 113.93359375 599.829101562 113.93359375 c 0,12,13
 700.359375 113.93359375 700.359375 113.93359375 784.692382812 211.11328125 c 128,-1,14
 869.026367188 308.291992188 869.026367188 308.291992188 869.026367188 478.076171875 c 2,15,-1
 869.026367188 1257.7421875 l 1,16,-1
 800.888671875 1257.7421875 l 2,17,18
 707.060546875 1257.7421875 707.060546875 1257.7421875 707.060546875 1329.23046875 c 0,19,20
 707.060546875 1397.3671875 707.060546875 1397.3671875 800.888671875 1397.3671875 c 2,21,-1
 1095.77734375 1397.3671875 l 2,22,23
 1189.60546875 1397.3671875 1189.60546875 1397.3671875 1189.60546875 1329.23046875 c 0,24,25
 1189.60546875 1258.859375 1189.60546875 1258.859375 1095.77734375 1257.7421875 c 2,26,-1
 1027.63964844 1257.7421875 l 1,27,-1
 1027.63964844 466.90625 l 2,28,29
 1027.63964844 259.143554688 1027.63964844 259.143554688 900.301757812 116.7265625 c 128,-1,30
 772.963867188 -25.69140625 772.963867188 -25.69140625 599.270507812 -25.69140625 c 128,-1,31
 425.577148438 -25.69140625 425.577148438 -25.69140625 298.797851562 116.16796875 c 128,-1,32
 172.017578125 258.02734375 172.017578125 258.02734375 172.017578125 466.90625 c 2,33,-1
 172.017578125 1257.7421875 l 1,34,-1
 102.763671875 1257.7421875 l 2,35,36
 8.935546875 1258.859375 8.935546875 1258.859375 8.935546875 1329.23046875 c 0,0,1
EndSplineSet
Substitution2: "'fwid' Full Widths lookup 32 subtable" uniFF35
Substitution2: "'c2sc' Capitals to Small Capitals lookup 26 subtable" u.sc
AlternateSubs2: "'aalt' Access All Alternates lookup 1 subtable" u.sc uniFF35
EndChar

StartChar: V
Encoding: 86 86 21
Width: 1200
VWidth: 2287
GlyphClass: 2
Flags: W
LayerCount: 2
Fore
SplineSet
41.3291015625 1329.23046875 m 0,0,1
 41.3291015625 1397.3671875 41.3291015625 1397.3671875 135.157226562 1397.3671875 c 2,2,-1
 368.610351562 1397.3671875 l 2,3,4
 462.438476562 1397.3671875 462.438476562 1397.3671875 462.438476562 1329.23046875 c 0,5,6
 462.438476562 1294.60253906 462.438476562 1294.60253906 444.0078125 1278.40625 c 128,-1,7
 425.577148438 1262.20996094 425.577148438 1262.20996094 404.912109375 1259.97558594 c 128,-1,8
 384.248046875 1257.7421875 384.248046875 1257.7421875 333.983398438 1257.7421875 c 1,9,-1
 556.265625 368.610351562 l 2,10,11
 586.424804688 246.857421875 586.424804688 246.857421875 597.594726562 164.19921875 c 1,12,-1
 599.829101562 164.19921875 l 1,13,14
 613.233398438 253.55859375 613.233398438 253.55859375 688.072265625 558.5 c 2,15,-1
 864.557617188 1257.7421875 l 1,16,17
 814.29296875 1257.7421875 814.29296875 1257.7421875 793.62890625 1259.97558594 c 128,-1,18
 772.963867188 1262.20996094 772.963867188 1262.20996094 754.533203125 1278.40625 c 128,-1,19
 736.102539062 1294.60253906 736.102539062 1294.60253906 736.102539062 1329.23046875 c 0,20,21
 736.102539062 1397.3671875 736.102539062 1397.3671875 829.930664062 1397.3671875 c 2,22,-1
 1063.38378906 1397.3671875 l 2,23,24
 1157.21191406 1397.3671875 1157.21191406 1397.3671875 1157.21191406 1329.23046875 c 0,25,26
 1157.21191406 1294.60253906 1157.21191406 1294.60253906 1139.33984375 1278.40625 c 128,-1,27
 1121.46777344 1262.20996094 1121.46777344 1262.20996094 1099.68652344 1259.97558594 c 128,-1,28
 1077.90527344 1257.7421875 1077.90527344 1257.7421875 1027.63964844 1257.7421875 c 1,29,-1
 724.932617188 65.9033203125 l 2,30,31
 715.997070312 24.57421875 715.997070312 24.57421875 695.33203125 6.7021484375 c 128,-1,32
 674.66796875 -11.169921875 674.66796875 -11.169921875 656.237304688 -14.521484375 c 128,-1,33
 637.806640625 -17.8720703125 637.806640625 -17.8720703125 599.829101562 -17.8720703125 c 0,34,35
 558.5 -17.8720703125 558.5 -17.8720703125 540.069335938 -14.521484375 c 128,-1,36
 521.638671875 -11.169921875 521.638671875 -11.169921875 503.208984375 8.3779296875 c 128,-1,37
 484.778320312 27.9248046875 484.778320312 27.9248046875 473.608398438 68.13671875 c 2,38,-1
 172.017578125 1257.7421875 l 1,39,40
 121.752929688 1257.7421875 121.752929688 1257.7421875 99.9716796875 1259.97558594 c 128,-1,41
 78.1904296875 1262.20996094 78.1904296875 1262.20996094 59.759765625 1278.40625 c 128,-1,42
 41.3291015625 1294.60253906 41.3291015625 1294.60253906 41.3291015625 1329.23046875 c 0,0,1
EndSplineSet
Substitution2: "'fwid' Full Widths lookup 32 subtable" uniFF36
Substitution2: "'c2sc' Capitals to Small Capitals lookup 26 subtable" v.sc
AlternateSubs2: "'aalt' Access All Alternates lookup 1 subtable" v.sc uniFF36
EndChar

StartChar: W
Encoding: 87 87 22
Width: 1200
VWidth: 2287
GlyphClass: 2
Flags: W
LayerCount: 2
Fore
SplineSet
25.69140625 1326.99609375 m 0,0,1
 25.69140625 1397.3671875 25.69140625 1397.3671875 118.40234375 1397.3671875 c 2,2,-1
 299.356445312 1397.3671875 l 2,3,4
 327.28125 1397.3671875 327.28125 1397.3671875 341.801757812 1395.1328125 c 128,-1,5
 356.323242188 1392.89941406 356.323242188 1392.89941406 373.63671875 1376.14355469 c 128,-1,6
 390.950195312 1359.38867188 390.950195312 1359.38867188 390.950195312 1326.99609375 c 0,7,8
 390.950195312 1258.859375 390.950195312 1258.859375 299.356445312 1257.7421875 c 2,9,-1
 242.388671875 1257.7421875 l 1,10,-1
 361.908203125 351.85546875 l 2,11,12
 379.780273438 209.99609375 379.780273438 209.99609375 379.780273438 174.251953125 c 1,13,-1
 382.013671875 174.251953125 l 1,14,15
 386.482421875 237.920898438 386.482421875 237.920898438 417.19921875 387.598632812 c 128,-1,16
 447.916992188 537.27734375 447.916992188 537.27734375 475.841796875 658.471679688 c 128,-1,17
 503.766601562 779.666015625 503.766601562 779.666015625 508.235351562 789.71875 c 0,18,19
 530.575195312 839.984375 530.575195312 839.984375 599.829101562 839.984375 c 0,20,21
 673.55078125 839.984375 673.55078125 839.984375 693.657226562 787.485351562 c 0,22,23
 693.657226562 785.250976562 693.657226562 785.250976562 711.529296875 705.944335938 c 128,-1,24
 729.401367188 626.63671875 729.401367188 626.63671875 750.065429688 530.575195312 c 128,-1,25
 770.73046875 434.512695312 770.73046875 434.512695312 791.39453125 329.514648438 c 128,-1,26
 812.05859375 224.516601562 812.05859375 224.516601562 816.52734375 174.251953125 c 1,27,-1
 818.760742188 174.251953125 l 1,28,29
 820.995117188 233.453125 820.995117188 233.453125 855.622070312 495.948242188 c 2,30,-1
 956.15234375 1257.7421875 l 1,31,-1
 899.184570312 1257.7421875 l 2,32,33
 807.590820312 1257.7421875 807.590820312 1257.7421875 807.590820312 1326.99609375 c 0,34,35
 807.590820312 1359.38867188 807.590820312 1359.38867188 824.904296875 1376.14355469 c 128,-1,36
 842.217773438 1392.89941406 842.217773438 1392.89941406 856.739257812 1395.1328125 c 128,-1,37
 871.259765625 1397.3671875 871.259765625 1397.3671875 899.184570312 1397.3671875 c 2,38,-1
 1080.13867188 1397.3671875 l 2,39,40
 1173.96679688 1397.3671875 1173.96679688 1397.3671875 1173.96679688 1326.99609375 c 0,41,42
 1173.96679688 1258.859375 1173.96679688 1258.859375 1086.84082031 1257.7421875 c 1,43,-1
 921.525390625 61.4345703125 l 2,44,45
 910.35546875 -17.8720703125 910.35546875 -17.8720703125 829.930664062 -17.8720703125 c 0,46,47
 828.814453125 -17.8720703125 828.814453125 -17.8720703125 827.697265625 -17.8720703125 c 0,48,49
 751.741210938 -17.8720703125 751.741210938 -17.8720703125 736.102539062 39.0947265625 c 0,50,51
 733.869140625 43.5634765625 733.869140625 43.5634765625 703.151367188 177.602539062 c 128,-1,52
 672.43359375 311.642578125 672.43359375 311.642578125 639.482421875 468.0234375 c 128,-1,53
 606.53125 624.403320312 606.53125 624.403320312 602.063476562 670.200195312 c 1,54,-1
 599.829101562 670.200195312 l 1,55,56
 593.126953125 610.999023438 593.126953125 610.999023438 530.016601562 327.28125 c 128,-1,57
 466.90625 43.5634765625 466.90625 43.5634765625 460.204101562 27.9248046875 c 0,58,59
 437.864257812 -17.8720703125 437.864257812 -17.8720703125 370.84375 -17.8720703125 c 0,60,61
 288.185546875 -17.8720703125 288.185546875 -17.8720703125 277.015625 61.4345703125 c 2,62,-1
 111.700195312 1257.7421875 l 1,63,-1
 109.465820312 1257.7421875 l 2,64,65
 25.69140625 1258.859375 25.69140625 1258.859375 25.69140625 1326.99609375 c 0,0,1
EndSplineSet
Substitution2: "'fwid' Full Widths lookup 32 subtable" uniFF37
Substitution2: "'c2sc' Capitals to Small Capitals lookup 26 subtable" w.sc
AlternateSubs2: "'aalt' Access All Alternates lookup 1 subtable" w.sc uniFF37
EndChar

StartChar: X
Encoding: 88 88 23
Width: 1200
VWidth: 2287
GlyphClass: 2
Flags: W
LayerCount: 2
Fore
SplineSet
61.4345703125 68.13671875 m 0,0,1
 61.4345703125 100.530273438 61.4345703125 100.530273438 78.748046875 117.84375 c 128,-1,2
 96.0615234375 135.157226562 96.0615234375 135.157226562 111.141601562 137.390625 c 128,-1,3
 126.220703125 139.625 126.220703125 139.625 153.029296875 139.625 c 2,4,-1
 203.293945312 139.625 l 1,5,-1
 508.235351562 743.921875 l 1,6,-1
 233.453125 1257.7421875 l 1,7,-1
 180.954101562 1257.7421875 l 2,8,9
 87.1259765625 1257.7421875 87.1259765625 1257.7421875 87.1259765625 1329.23046875 c 0,10,11
 87.1259765625 1397.3671875 87.1259765625 1397.3671875 180.954101562 1397.3671875 c 2,12,-1
 418.875 1397.3671875 l 2,13,14
 510.46875 1397.3671875 510.46875 1397.3671875 510.46875 1329.23046875 c 0,15,16
 510.46875 1296.83691406 510.46875 1296.83691406 493.155273438 1279.5234375 c 128,-1,17
 475.841796875 1262.20996094 475.841796875 1262.20996094 459.645507812 1259.97558594 c 128,-1,18
 443.44921875 1257.7421875 443.44921875 1257.7421875 412.172851562 1257.7421875 c 1,19,-1
 587.541992188 923.758789062 l 1,20,-1
 750.624023438 1257.7421875 l 1,21,22
 715.997070312 1257.7421875 715.997070312 1257.7421875 697.56640625 1259.97558594 c 128,-1,23
 679.135742188 1262.20996094 679.135742188 1262.20996094 662.380859375 1279.5234375 c 128,-1,24
 645.625976562 1296.83691406 645.625976562 1296.83691406 645.625976562 1329.23046875 c 0,25,26
 645.625976562 1397.3671875 645.625976562 1397.3671875 736.102539062 1397.3671875 c 2,27,-1
 974.024414062 1397.3671875 l 2,28,29
 1067.8515625 1397.3671875 1067.8515625 1397.3671875 1067.8515625 1326.99609375 c 0,30,31
 1067.8515625 1258.859375 1067.8515625 1258.859375 974.024414062 1257.7421875 c 2,32,-1
 923.758789062 1257.7421875 l 1,33,-1
 665.732421875 746.15625 l 1,34,-1
 988.544921875 139.625 l 1,35,-1
 1041.04394531 139.625 l 2,36,37
 1134.87207031 139.625 1134.87207031 139.625 1134.87207031 68.13671875 c 0,38,39
 1134.87207031 0 1134.87207031 0 1041.04394531 0 c 2,40,-1
 803.123046875 0 l 2,41,42
 711.529296875 0 711.529296875 0 711.529296875 68.13671875 c 0,43,44
 711.529296875 100.530273438 711.529296875 100.530273438 728.842773438 117.84375 c 128,-1,45
 746.15625 135.157226562 746.15625 135.157226562 762.911132812 137.390625 c 128,-1,46
 779.666015625 139.625 779.666015625 139.625 814.29296875 139.625 c 1,47,-1
 587.541992188 583.07421875 l 1,48,-1
 377.545898438 139.625 l 1,49,50
 412.172851562 139.625 412.172851562 139.625 430.044921875 137.390625 c 128,-1,51
 447.916992188 135.157226562 447.916992188 135.157226562 466.34765625 117.84375 c 128,-1,52
 484.778320312 100.530273438 484.778320312 100.530273438 484.778320312 68.13671875 c 0,53,54
 484.778320312 0 484.778320312 0 390.950195312 0 c 2,55,-1
 153.029296875 0 l 2,56,57
 61.4345703125 0 61.4345703125 0 61.4345703125 68.13671875 c 0,0,1
EndSplineSet
Substitution2: "'fwid' Full Widths lookup 32 subtable" uniFF38
Substitution2: "'c2sc' Capitals to Small Capitals lookup 26 subtable" x.sc
AlternateSubs2: "'aalt' Access All Alternates lookup 1 subtable" x.sc uniFF38
EndChar

StartChar: Y
Encoding: 89 89 24
Width: 1200
VWidth: 2287
GlyphClass: 2
Flags: W
LayerCount: 2
Fore
SplineSet
43.5634765625 1329.23046875 m 0,0,1
 43.5634765625 1397.3671875 43.5634765625 1397.3671875 135.157226562 1397.3671875 c 2,2,-1
 373.078125 1397.3671875 l 2,3,4
 464.671875 1397.3671875 464.671875 1397.3671875 464.671875 1329.23046875 c 0,5,6
 464.671875 1294.60253906 464.671875 1294.60253906 447.358398438 1278.40625 c 128,-1,7
 430.044921875 1262.20996094 430.044921875 1262.20996094 412.731445312 1259.97558594 c 128,-1,8
 395.41796875 1257.7421875 395.41796875 1257.7421875 359.673828125 1257.7421875 c 1,9,10
 577.489257812 802.005859375 577.489257812 802.005859375 599.829101562 718.231445312 c 1,11,-1
 839.984375 1257.7421875 l 1,12,13
 803.123046875 1257.7421875 803.123046875 1257.7421875 785.809570312 1259.97558594 c 128,-1,14
 768.49609375 1262.20996094 768.49609375 1262.20996094 751.182617188 1278.40625 c 128,-1,15
 733.869140625 1294.60253906 733.869140625 1294.60253906 733.869140625 1329.23046875 c 0,16,17
 733.869140625 1397.3671875 733.869140625 1397.3671875 825.462890625 1397.3671875 c 2,18,-1
 1063.38378906 1397.3671875 l 2,19,20
 1091.30859375 1397.3671875 1091.30859375 1397.3671875 1106.38867188 1395.1328125 c 128,-1,21
 1121.46777344 1392.89941406 1121.46777344 1392.89941406 1138.22265625 1376.14355469 c 128,-1,22
 1154.97753906 1359.38867188 1154.97753906 1359.38867188 1154.97753906 1326.99609375 c 0,23,24
 1154.97753906 1258.859375 1154.97753906 1258.859375 1063.38378906 1257.7421875 c 2,25,-1
 1015.35253906 1257.7421875 l 1,26,-1
 679.135742188 558.5 l 1,27,-1
 679.135742188 139.625 l 1,28,-1
 736.102539062 139.625 l 2,29,30
 764.028320312 139.625 764.028320312 139.625 779.107421875 137.390625 c 128,-1,31
 794.186523438 135.157226562 794.186523438 135.157226562 810.942382812 117.84375 c 128,-1,32
 827.697265625 100.530273438 827.697265625 100.530273438 827.697265625 68.13671875 c 0,33,34
 827.697265625 0 827.697265625 0 736.102539062 0 c 2,35,-1
 464.671875 0 l 2,36,37
 436.747070312 0 436.747070312 0 422.225585938 2.234375 c 128,-1,38
 407.705078125 4.4677734375 407.705078125 4.4677734375 390.391601562 21.78125 c 128,-1,39
 373.078125 39.0947265625 373.078125 39.0947265625 373.078125 70.37109375 c 0,40,41
 373.078125 138.5078125 373.078125 138.5078125 464.671875 139.625 c 2,42,-1
 521.638671875 139.625 l 1,43,-1
 521.638671875 558.5 l 1,44,-1
 183.188476562 1257.7421875 l 1,45,-1
 135.157226562 1257.7421875 l 2,46,47
 107.232421875 1257.7421875 107.232421875 1257.7421875 92.7109375 1259.97558594 c 128,-1,48
 78.1904296875 1262.20996094 78.1904296875 1262.20996094 60.876953125 1279.5234375 c 128,-1,49
 43.5634765625 1296.83691406 43.5634765625 1296.83691406 43.5634765625 1329.23046875 c 0,0,1
EndSplineSet
Substitution2: "'fwid' Full Widths lookup 32 subtable" uniFF39
Substitution2: "'c2sc' Capitals to Small Capitals lookup 26 subtable" y.sc
AlternateSubs2: "'aalt' Access All Alternates lookup 1 subtable" y.sc uniFF39
EndChar

StartChar: Z
Encoding: 90 90 25
Width: 1200
VWidth: 2287
GlyphClass: 2
Flags: W
LayerCount: 2
Fore
SplineSet
109.465820312 77.6318359375 m 128,-1,1
 109.465820312 113.93359375 109.465820312 113.93359375 132.922851562 148.560546875 c 2,2,-1
 885.78125 1257.7421875 l 1,3,-1
 294.887695312 1257.7421875 l 1,4,-1
 294.887695312 1137.10644531 l 2,5,6
 294.887695312 1106.94726562 294.887695312 1106.94726562 292.654296875 1091.30859375 c 128,-1,7
 290.419921875 1075.67089844 290.419921875 1075.67089844 270.872070312 1059.47460938 c 128,-1,8
 251.325195312 1043.27832031 251.325195312 1043.27832031 215.581054688 1043.27832031 c 0,9,10
 163.08203125 1043.27832031 163.08203125 1043.27832031 150.236328125 1067.29394531 c 128,-1,11
 137.390625 1091.30859375 137.390625 1091.30859375 137.390625 1137.10644531 c 2,12,-1
 137.390625 1303.5390625 l 2,13,14
 137.390625 1360.50585938 137.390625 1360.50585938 155.821289062 1378.93652344 c 128,-1,15
 174.251953125 1397.3671875 174.251953125 1397.3671875 231.21875 1397.3671875 c 2,16,-1
 995.247070312 1397.3671875 l 2,17,18
 1025.40625 1397.3671875 1025.40625 1397.3671875 1041.04394531 1395.1328125 c 128,-1,19
 1056.68164062 1392.89941406 1056.68164062 1392.89941406 1072.87890625 1374.46875 c 128,-1,20
 1089.07519531 1356.03808594 1089.07519531 1356.03808594 1089.07519531 1319.73535156 c 128,-1,21
 1089.07519531 1283.43261719 1089.07519531 1283.43261719 1065.61816406 1248.80566406 c 2,22,-1
 313.876953125 139.625 l 1,23,-1
 942.748046875 139.625 l 1,24,-1
 942.748046875 303.82421875 l 2,25,26
 942.748046875 333.983398438 942.748046875 333.983398438 944.982421875 350.1796875 c 128,-1,27
 947.215820312 366.375976562 947.215820312 366.375976562 966.763671875 382.013671875 c 128,-1,28
 986.310546875 397.65234375 986.310546875 397.65234375 1022.0546875 397.65234375 c 0,29,30
 1074.55371094 397.65234375 1074.55371094 397.65234375 1087.39941406 373.63671875 c 128,-1,31
 1100.24511719 349.62109375 1100.24511719 349.62109375 1100.24511719 303.82421875 c 2,32,-1
 1100.24511719 93.828125 l 2,33,34
 1100.24511719 39.0947265625 1100.24511719 39.0947265625 1081.81445312 19.5478515625 c 128,-1,35
 1063.38378906 0 1063.38378906 0 1008.65136719 0 c 2,36,-1
 203.293945312 0 l 2,37,38
 173.134765625 0 173.134765625 0 157.497070312 2.234375 c 128,-1,39
 141.859375 4.4677734375 141.859375 4.4677734375 125.662109375 22.8984375 c 128,-1,0
 109.465820312 41.3291015625 109.465820312 41.3291015625 109.465820312 77.6318359375 c 128,-1,1
EndSplineSet
Substitution2: "'fwid' Full Widths lookup 32 subtable" uniFF3A
Substitution2: "'c2sc' Capitals to Small Capitals lookup 26 subtable" z.sc
AlternateSubs2: "'aalt' Access All Alternates lookup 1 subtable" z.sc uniFF3A
EndChar

StartChar: a
Encoding: 97 97 26
Width: 1200
VWidth: 2287
GlyphClass: 2
Flags: W
LayerCount: 2
Fore
SplineSet
126.220703125 292.654296875 m 0,0,1
 126.220703125 452.384765625 126.220703125 452.384765625 312.201171875 540.627929688 c 128,-1,2
 498.181640625 628.87109375 498.181640625 628.87109375 812.05859375 633.338867188 c 1,3,4
 812.05859375 749.506835938 812.05859375 749.506835938 734.427734375 808.149414062 c 128,-1,5
 656.795898438 866.791992188 656.795898438 866.791992188 519.405273438 866.791992188 c 0,6,7
 469.139648438 866.791992188 469.139648438 866.791992188 436.747070312 864.557617188 c 0,8,9
 402.120117188 862.32421875 402.120117188 862.32421875 395.41796875 857.856445312 c 128,-1,10
 388.715820312 853.387695312 388.715820312 853.387695312 388.715820312 839.984375 c 0,11,12
 386.482421875 783.016601562 386.482421875 783.016601562 354.647460938 758.443359375 c 128,-1,13
 322.813476562 733.869140625 322.813476562 733.869140625 288.185546875 733.869140625 c 0,14,15
 244.623046875 733.869140625 244.623046875 733.869140625 215.022460938 761.793945312 c 128,-1,16
 185.421875 789.71875 185.421875 789.71875 185.421875 839.984375 c 0,17,18
 185.421875 1006.41699219 185.421875 1006.41699219 512.703125 1006.41699219 c 0,19,20
 514.936523438 1006.41699219 514.936523438 1006.41699219 517.170898438 1006.41699219 c 0,21,22
 743.921875 1006.41699219 743.921875 1006.41699219 856.739257812 899.184570312 c 128,-1,23
 969.555664062 791.953125 969.555664062 791.953125 969.555664062 652.328125 c 2,24,-1
 969.555664062 157.497070312 l 1,25,26
 1017.58691406 139.625 1017.58691406 139.625 1106.94726562 139.625 c 0,27,28
 1198.54101562 139.625 1198.54101562 139.625 1198.54101562 70.37109375 c 0,29,30
 1198.54101562 35.744140625 1198.54101562 35.744140625 1181.22753906 20.1064453125 c 128,-1,31
 1163.9140625 4.4677734375 1163.9140625 4.4677734375 1144.92480469 2.234375 c 128,-1,32
 1125.93554688 0 1125.93554688 0 1084.60742188 0 c 0,33,34
 890.249023438 0 890.249023438 0 837.75 73.7216796875 c 1,35,36
 704.827148438 -13.404296875 704.827148438 -13.404296875 503.766601562 -13.404296875 c 0,37,38
 333.983398438 -13.404296875 333.983398438 -13.404296875 230.1015625 77.6318359375 c 128,-1,39
 126.220703125 168.666992188 126.220703125 168.666992188 126.220703125 292.654296875 c 0,0,1
283.717773438 292.654296875 m 0,40,41
 283.717773438 224.516601562 283.717773438 224.516601562 350.1796875 175.369140625 c 128,-1,42
 416.640625 126.220703125 416.640625 126.220703125 519.405273438 126.220703125 c 0,43,44
 641.158203125 126.220703125 641.158203125 126.220703125 722.69921875 164.19921875 c 0,45,46
 764.028320312 182.071289062 764.028320312 182.071289062 784.692382812 208.87890625 c 128,-1,47
 805.357421875 235.686523438 805.357421875 235.686523438 808.708007812 254.1171875 c 128,-1,48
 812.05859375 272.547851562 812.05859375 272.547851562 812.05859375 306.057617188 c 2,49,-1
 812.05859375 498.181640625 l 1,50,51
 567.435546875 491.48046875 567.435546875 491.48046875 425.577148438 434.512695312 c 128,-1,52
 283.717773438 377.545898438 283.717773438 377.545898438 283.717773438 292.654296875 c 0,40,41
EndSplineSet
Substitution2: "Single Substitution lookup 63 subtable" ordfeminine
Substitution2: "'ss06' Style Set 6 lookup 46 subtable" a.alternate
Substitution2: "'fwid' Full Widths lookup 32 subtable" uniFF41
Substitution2: "'smcp' Lowercase to Small Capitals lookup 27 subtable" a.sc
Substitution2: "'sinf' Scientific Inferiors lookup 14 subtable" uni2090
Substitution2: "'subs' Subscript lookup 13 subtable" uni2090
AlternateSubs2: "'aalt' Access All Alternates lookup 1 subtable" uni2090 ordfeminine a.sc uniFF41 a.alternate
EndChar

StartChar: b
Encoding: 98 98 27
Width: 1200
VWidth: 2287
GlyphClass: 2
InSpiro: 1
Flags: W
LayerCount: 2
Fore
SplineSet
27.9248046875 1326.99609375 m 0,0,1
 27.9248046875 1397.3671875 27.9248046875 1397.3671875 121.752929688 1397.3671875 c 2,2,-1
 288.185546875 1397.3671875 l 2,3,4
 345.153320312 1397.3671875 345.153320312 1397.3671875 362.466796875 1378.37792969 c 128,-1,5
 379.780273438 1359.38867188 379.780273438 1359.38867188 379.780273438 1303.5390625 c 2,6,-1
 379.780273438 888.014648438 l 1,7,8
 503.766601562 999.71484375 503.766601562 999.71484375 670.200195312 999.71484375 c 0,9,10
 853.387695312 999.71484375 853.387695312 999.71484375 984.635742188 852.271484375 c 128,-1,11
 1115.8828125 704.827148438 1115.8828125 704.827148438 1115.8828125 493.713867188 c 0,12,13
 1115.8828125 278.1328125 1115.8828125 278.1328125 975.69921875 132.364257812 c 128,-1,14
 835.515625 -13.404296875 835.515625 -13.404296875 645.625976562 -13.404296875 c 0,15,16
 494.831054688 -13.404296875 494.831054688 -13.404296875 379.780273438 102.763671875 c 1,17,18
 379.780273438 65.9033203125 379.780273438 65.9033203125 377.545898438 49.1484375 c 128,-1,19
 375.311523438 32.392578125 375.311523438 32.392578125 356.881835938 16.1962890625 c 128,-1,20
 338.451171875 0 338.451171875 0 302.1484375 0 c 128,-1,21
 265.845703125 0 265.845703125 0 246.298828125 16.1962890625 c 128,-1,22
 226.750976562 32.392578125 226.750976562 32.392578125 224.516601562 48.03125 c 128,-1,23
 222.283203125 63.6689453125 222.283203125 63.6689453125 222.283203125 93.828125 c 2,24,-1
 222.283203125 1257.7421875 l 1,25,-1
 118.40234375 1257.7421875 l 2,26,27
 27.9248046875 1258.859375 27.9248046875 1258.859375 27.9248046875 1326.99609375 c 0,0,1
379.780273438 436.747070312 m 2,28,29
 379.780273438 333.983398438 379.780273438 333.983398438 448.475585938 230.1015625 c 128,-1,30
 517.170898438 126.220703125 517.170898438 126.220703125 637.806640625 126.220703125 c 0,31,32
 764.028320312 126.220703125 764.028320312 126.220703125 861.20703125 231.21875 c 128,-1,33
 958.385742188 336.216796875 958.385742188 336.216796875 958.385742188 493.713867188 c 0,34,35
 958.385742188 644.508789062 958.385742188 644.508789062 870.142578125 752.299804688 c 128,-1,36
 781.900390625 860.08984375 781.900390625 860.08984375 656.795898438 860.08984375 c 0,37,38
 549.564453125 860.08984375 549.564453125 860.08984375 464.671875 782.458984375 c 128,-1,39
 379.780273438 704.827148438 379.780273438 704.827148438 379.780273438 604.296875 c 2,40,-1
 379.780273438 436.747070312 l 2,28,29
EndSplineSet
Substitution2: "'fwid' Full Widths lookup 32 subtable" uniFF42
Substitution2: "'smcp' Lowercase to Small Capitals lookup 27 subtable" b.sc
AlternateSubs2: "'aalt' Access All Alternates lookup 1 subtable" b.sc uniFF42
EndChar

StartChar: c
Encoding: 99 99 28
Width: 1200
VWidth: 2287
GlyphClass: 2
InSpiro: 1
Flags: W
LayerCount: 2
Fore
SplineSet
167.549804688 493.713867188 m 0,0,1
 167.549804688 576.372070312 167.549804688 576.372070312 196.033203125 660.147460938 c 128,-1,2
 224.516601562 743.921875 224.516601562 743.921875 283.717773438 824.904296875 c 128,-1,3
 342.918945312 905.88671875 342.918945312 905.88671875 450.709960938 956.15234375 c 128,-1,4
 558.5 1006.41699219 558.5 1006.41699219 698.125 1006.41699219 c 0,5,6
 1038.80957031 1006.41699219 1038.80957031 1006.41699219 1038.80957031 839.984375 c 0,7,8
 1038.80957031 791.953125 1038.80957031 791.953125 1009.20996094 762.911132812 c 128,-1,9
 979.609375 733.869140625 979.609375 733.869140625 936.045898438 733.869140625 c 0,10,11
 837.75 733.869140625 837.75 733.869140625 835.515625 846.685546875 c 0,12,13
 835.515625 866.791992188 835.515625 866.791992188 698.125 866.791992188 c 0,14,15
 590.892578125 866.791992188 590.892578125 866.791992188 511.5859375 825.462890625 c 128,-1,16
 432.279296875 784.133789062 432.279296875 784.133789062 394.30078125 720.46484375 c 128,-1,17
 356.323242188 656.795898438 356.323242188 656.795898438 340.684570312 600.387695312 c 128,-1,18
 325.046875 543.978515625 325.046875 543.978515625 325.046875 493.713867188 c 0,19,20
 325.046875 338.451171875 325.046875 338.451171875 431.162109375 232.3359375 c 128,-1,21
 537.27734375 126.220703125 537.27734375 126.220703125 683.603515625 126.220703125 c 0,22,23
 845.569335938 126.220703125 845.569335938 126.220703125 910.35546875 263.612304688 c 0,24,25
 921.525390625 296.004882812 921.525390625 296.004882812 937.721679688 304.94140625 c 128,-1,26
 953.91796875 313.876953125 953.91796875 313.876953125 986.310546875 313.876953125 c 0,27,28
 1065.61816406 313.876953125 1065.61816406 313.876953125 1065.61816406 251.325195312 c 0,29,30
 1065.61816406 228.985351562 1065.61816406 228.985351562 1047.74609375 191.006835938 c 128,-1,31
 1029.87402344 153.029296875 1029.87402344 153.029296875 989.662109375 103.880859375 c 128,-1,32
 949.450195312 54.7333984375 949.450195312 54.7333984375 864.557617188 20.6640625 c 128,-1,33
 779.666015625 -13.404296875 779.666015625 -13.404296875 670.200195312 -13.404296875 c 0,34,35
 457.969726562 -13.404296875 457.969726562 -13.404296875 312.759765625 136.274414062 c 128,-1,36
 167.549804688 285.952148438 167.549804688 285.952148438 167.549804688 493.713867188 c 0,0,1
EndSplineSet
Substitution2: "'fwid' Full Widths lookup 32 subtable" uniFF43
Substitution2: "'smcp' Lowercase to Small Capitals lookup 27 subtable" c.sc
AlternateSubs2: "'aalt' Access All Alternates lookup 1 subtable" c.sc uniFF43
EndChar

StartChar: d
Encoding: 100 100 29
Width: 1200
VWidth: 2287
GlyphClass: 2
Flags: W
LayerCount: 2
Fore
SplineSet
82.658203125 491.48046875 m 0,0,1
 82.658203125 707.060546875 82.658203125 707.060546875 222.283203125 853.387695312 c 128,-1,2
 361.908203125 999.71484375 361.908203125 999.71484375 551.797851562 999.71484375 c 0,3,4
 702.592773438 999.71484375 702.592773438 999.71484375 818.760742188 896.951171875 c 1,5,-1
 818.760742188 1257.7421875 l 1,6,-1
 715.997070312 1257.7421875 l 2,7,8
 624.403320312 1257.7421875 624.403320312 1257.7421875 624.403320312 1326.99609375 c 0,9,10
 624.403320312 1397.3671875 624.403320312 1397.3671875 718.231445312 1397.3671875 c 2,11,-1
 885.78125 1397.3671875 l 2,12,13
 942.748046875 1397.3671875 942.748046875 1397.3671875 959.502929688 1378.37792969 c 128,-1,14
 976.2578125 1359.38867188 976.2578125 1359.38867188 976.2578125 1303.5390625 c 2,15,-1
 976.2578125 139.625 l 1,16,-1
 1080.13867188 139.625 l 2,17,18
 1171.73339844 139.625 1171.73339844 139.625 1171.73339844 70.37109375 c 0,19,20
 1171.73339844 0 1171.73339844 0 1077.90527344 0 c 2,21,-1
 910.35546875 0 l 2,22,23
 846.685546875 0 846.685546875 0 832.723632812 22.8984375 c 128,-1,24
 818.760742188 45.796875 818.760742188 45.796875 818.760742188 113.93359375 c 1,25,26
 695.890625 -13.404296875 695.890625 -13.404296875 533.92578125 -13.404296875 c 0,27,28
 532.80859375 -13.404296875 532.80859375 -13.404296875 530.575195312 -13.404296875 c 0,29,30
 347.38671875 -13.404296875 347.38671875 -13.404296875 215.022460938 134.040039062 c 128,-1,31
 82.658203125 281.484375 82.658203125 281.484375 82.658203125 491.48046875 c 0,0,1
240.155273438 491.48046875 m 0,32,33
 240.155273438 340.684570312 240.155273438 340.684570312 328.3984375 233.453125 c 128,-1,34
 416.640625 126.220703125 416.640625 126.220703125 539.510742188 126.220703125 c 0,35,36
 661.263671875 126.220703125 661.263671875 126.220703125 740.012695312 230.1015625 c 128,-1,37
 818.760742188 333.983398438 818.760742188 333.983398438 818.760742188 443.44921875 c 2,38,-1
 818.760742188 606.53125 l 2,39,40
 818.760742188 704.827148438 818.760742188 704.827148438 743.36328125 782.458984375 c 128,-1,41
 667.965820312 860.08984375 667.965820312 860.08984375 560.734375 860.08984375 c 0,42,43
 434.512695312 860.08984375 434.512695312 860.08984375 337.333984375 754.533203125 c 128,-1,44
 240.155273438 648.9765625 240.155273438 648.9765625 240.155273438 491.48046875 c 0,32,33
EndSplineSet
Substitution2: "'fwid' Full Widths lookup 32 subtable" uniFF44
Substitution2: "'smcp' Lowercase to Small Capitals lookup 27 subtable" d.sc
AlternateSubs2: "'aalt' Access All Alternates lookup 1 subtable" d.sc uniFF44
EndChar

StartChar: e
Encoding: 101 101 30
Width: 1200
VWidth: 2287
GlyphClass: 2
Flags: W
LayerCount: 2
Fore
SplineSet
126.220703125 496.506835938 m 128,-1,1
 126.220703125 707.060546875 126.220703125 707.060546875 270.314453125 856.739257812 c 128,-1,2
 414.407226562 1006.41699219 414.407226562 1006.41699219 617.701171875 1006.41699219 c 0,3,4
 829.930664062 1006.41699219 829.930664062 1006.41699219 945.540039062 867.909179688 c 128,-1,5
 1061.15039062 729.401367188 1061.15039062 729.401367188 1061.15039062 521.638671875 c 0,6,7
 1061.15039062 491.48046875 1061.15039062 491.48046875 1054.44824219 473.608398438 c 128,-1,8
 1047.74609375 455.736328125 1047.74609375 455.736328125 1032.66601562 447.358398438 c 128,-1,9
 1017.58691406 438.981445312 1017.58691406 438.981445312 1005.29980469 437.864257812 c 128,-1,10
 993.012695312 436.747070312 993.012695312 436.747070312 969.555664062 436.747070312 c 2,11,-1
 288.185546875 436.747070312 l 1,12,13
 316.111328125 294.887695312 316.111328125 294.887695312 424.459960938 210.5546875 c 128,-1,14
 532.80859375 126.220703125 532.80859375 126.220703125 667.965820312 126.220703125 c 0,15,16
 846.685546875 126.220703125 846.685546875 126.220703125 905.88671875 263.612304688 c 0,17,18
 917.056640625 296.004882812 917.056640625 296.004882812 933.25390625 304.94140625 c 128,-1,19
 949.450195312 313.876953125 949.450195312 313.876953125 981.842773438 313.876953125 c 0,20,21
 1061.15039062 313.876953125 1061.15039062 313.876953125 1061.15039062 251.325195312 c 0,22,23
 1061.15039062 223.400390625 1061.15039062 223.400390625 1038.25195312 183.74609375 c 128,-1,24
 1015.35253906 144.092773438 1015.35253906 144.092773438 970.672851562 97.1787109375 c 128,-1,25
 925.993164062 50.2646484375 925.993164062 50.2646484375 841.659179688 18.4306640625 c 128,-1,26
 757.326171875 -13.404296875 757.326171875 -13.404296875 652.328125 -13.404296875 c 0,27,28
 432.279296875 -13.404296875 432.279296875 -13.404296875 279.25 136.274414062 c 128,-1,0
 126.220703125 285.952148438 126.220703125 285.952148438 126.220703125 496.506835938 c 128,-1,1
290.419921875 574.137695312 m 1,29,-1
 899.184570312 574.137695312 l 1,30,31
 885.78125 733.869140625 885.78125 733.869140625 805.357421875 800.330078125 c 128,-1,32
 724.932617188 866.791992188 724.932617188 866.791992188 617.701171875 866.791992188 c 0,33,34
 499.298828125 866.791992188 499.298828125 866.791992188 407.705078125 783.575195312 c 128,-1,35
 316.111328125 700.359375 316.111328125 700.359375 290.419921875 574.137695312 c 1,29,-1
EndSplineSet
Substitution2: "'fwid' Full Widths lookup 32 subtable" uniFF45
Substitution2: "'smcp' Lowercase to Small Capitals lookup 27 subtable" e.sc
Substitution2: "'sinf' Scientific Inferiors lookup 14 subtable" uni2091
Substitution2: "'subs' Subscript lookup 13 subtable" uni2091
AlternateSubs2: "'aalt' Access All Alternates lookup 1 subtable" uni2091 e.sc uniFF45
EndChar

StartChar: f
Encoding: 102 102 31
Width: 1200
VWidth: 2287
GlyphClass: 2
Flags: W
LayerCount: 2
Fore
SplineSet
96.0615234375 70.37109375 m 0,0,1
 96.0615234375 138.5078125 96.0615234375 138.5078125 189.889648438 139.625 c 2,2,-1
 421.109375 139.625 l 1,3,-1
 421.109375 846.685546875 l 1,4,-1
 189.889648438 846.685546875 l 2,5,6
 98.2958984375 846.685546875 98.2958984375 846.685546875 98.2958984375 914.823242188 c 0,7,8
 98.2958984375 985.194335938 98.2958984375 985.194335938 192.124023438 986.310546875 c 2,9,-1
 421.109375 986.310546875 l 1,10,-1
 421.109375 1106.94726562 l 2,11,12
 421.109375 1248.80566406 421.109375 1248.80566406 527.223632812 1330.34667969 c 128,-1,13
 633.338867188 1411.88769531 633.338867188 1411.88769531 779.666015625 1411.88769531 c 0,14,15
 999.71484375 1411.88769531 999.71484375 1411.88769531 999.71484375 1274.49707031 c 0,16,17
 999.71484375 1228.70019531 999.71484375 1228.70019531 968.997070312 1201.33398438 c 128,-1,18
 938.280273438 1173.96679688 938.280273438 1173.96679688 901.418945312 1173.96679688 c 128,-1,19
 864.557617188 1173.96679688 864.557617188 1173.96679688 840.54296875 1197.98242188 c 128,-1,20
 816.52734375 1221.99804688 816.52734375 1221.99804688 808.708007812 1242.10351562 c 128,-1,21
 800.888671875 1262.20996094 800.888671875 1262.20996094 800.888671875 1272.26269531 c 1,22,23
 761.793945312 1272.26269531 761.793945312 1272.26269531 735.544921875 1268.91210938 c 128,-1,24
 709.294921875 1265.56054688 709.294921875 1265.56054688 666.848632812 1250.48144531 c 128,-1,25
 624.403320312 1235.40234375 624.403320312 1235.40234375 601.504882812 1195.19042969 c 128,-1,26
 578.606445312 1154.97753906 578.606445312 1154.97753906 578.606445312 1093.54296875 c 2,27,-1
 578.606445312 986.310546875 l 1,28,-1
 857.856445312 986.310546875 l 2,29,30
 885.78125 986.310546875 885.78125 986.310546875 900.301757812 984.077148438 c 128,-1,31
 914.823242188 981.842773438 914.823242188 981.842773438 932.13671875 964.529296875 c 128,-1,32
 949.450195312 947.215820312 949.450195312 947.215820312 949.450195312 914.823242188 c 0,33,34
 949.450195312 846.685546875 949.450195312 846.685546875 857.856445312 846.685546875 c 2,35,-1
 578.606445312 846.685546875 l 1,36,-1
 578.606445312 139.625 l 1,37,-1
 809.825195312 139.625 l 2,38,39
 903.653320312 139.625 903.653320312 139.625 903.653320312 68.13671875 c 0,40,41
 903.653320312 0 903.653320312 0 809.825195312 0 c 2,42,-1
 189.889648438 0 l 2,43,44
 96.0615234375 0 96.0615234375 0 96.0615234375 70.37109375 c 0,0,1
EndSplineSet
Substitution2: "Single Substitution lookup 73 subtable" f.alternate
Substitution2: "'fwid' Full Widths lookup 32 subtable" uniFF46
Substitution2: "'smcp' Lowercase to Small Capitals lookup 27 subtable" f.sc
AlternateSubs2: "'aalt' Access All Alternates lookup 1 subtable" f.sc uniFF46 f.alternate
EndChar

StartChar: g
Encoding: 103 103 32
Width: 1200
VWidth: 2287
GlyphClass: 2
Flags: W
LayerCount: 2
Fore
SplineSet
65.9033203125 -187.65625 m 0,0,1
 65.9033203125 -6.7021484375 65.9033203125 -6.7021484375 235.686523438 96.0615234375 c 1,2,3
 183.188476562 166.432617188 183.188476562 166.432617188 183.188476562 260.260742188 c 0,4,5
 183.188476562 349.62109375 183.188476562 349.62109375 228.985351562 416.640625 c 1,6,7
 155.262695312 510.46875 155.262695312 510.46875 155.262695312 633.338867188 c 0,8,9
 155.262695312 781.900390625 155.262695312 781.900390625 265.287109375 890.807617188 c 128,-1,10
 375.311523438 999.71484375 375.311523438 999.71484375 532.80859375 999.71484375 c 0,11,12
 654.561523438 999.71484375 654.561523438 999.71484375 755.091796875 931.578125 c 1,13,14
 861.20703125 1010.88476562 861.20703125 1010.88476562 994.129882812 1010.88476562 c 0,15,16
 995.247070312 1010.88476562 995.247070312 1010.88476562 997.481445312 1010.88476562 c 0,17,18
 1082.37304688 1010.88476562 1082.37304688 1010.88476562 1123.14355469 973.465820312 c 128,-1,19
 1163.9140625 936.045898438 1163.9140625 936.045898438 1163.9140625 888.014648438 c 0,20,21
 1163.9140625 842.217773438 1163.9140625 842.217773438 1135.43066406 818.202148438 c 128,-1,22
 1106.94726562 794.186523438 1106.94726562 794.186523438 1073.43652344 794.186523438 c 0,23,24
 1047.74609375 794.186523438 1047.74609375 794.186523438 1020.37988281 812.05859375 c 128,-1,25
 993.012695312 829.930664062 993.012695312 829.930664062 984.077148438 871.259765625 c 1,26,27
 908.12109375 864.557617188 908.12109375 864.557617188 851.154296875 832.165039062 c 1,28,29
 910.35546875 733.869140625 910.35546875 733.869140625 910.35546875 633.338867188 c 0,30,31
 910.35546875 480.309570312 910.35546875 480.309570312 800.330078125 373.078125 c 128,-1,32
 690.305664062 265.845703125 690.305664062 265.845703125 532.80859375 265.845703125 c 0,33,34
 411.055664062 265.845703125 411.055664062 265.845703125 327.28125 322.813476562 c 1,35,36
 313.876953125 288.185546875 313.876953125 288.185546875 313.876953125 258.02734375 c 0,37,38
 313.876953125 209.99609375 313.876953125 209.99609375 340.684570312 176.486328125 c 0,39,40
 368.610351562 144.092773438 368.610351562 144.092773438 416.640625 144.092773438 c 1,41,42
 434.512695312 139.625 434.512695312 139.625 482.543945312 139.625 c 2,43,-1
 642.275390625 139.625 l 2,44,45
 850.037109375 139.625 850.037109375 139.625 974.024414062 73.7216796875 c 0,46,47
 1054.44824219 30.1591796875 1054.44824219 30.1591796875 1093.54296875 -41.8876953125 c 128,-1,48
 1132.63769531 -113.93359375 1132.63769531 -113.93359375 1132.63769531 -187.65625 c 0,49,50
 1132.63769531 -331.749023438 1132.63769531 -331.749023438 976.81640625 -427.810546875 c 128,-1,51
 820.995117188 -523.873046875 820.995117188 -523.873046875 599.270507812 -523.873046875 c 128,-1,52
 377.545898438 -523.873046875 377.545898438 -523.873046875 221.724609375 -428.927734375 c 128,-1,53
 65.9033203125 -333.983398438 65.9033203125 -333.983398438 65.9033203125 -187.65625 c 0,0,1
198.826171875 -187.65625 m 0,54,55
 198.826171875 -265.845703125 198.826171875 -265.845703125 315.552734375 -326.1640625 c 128,-1,56
 432.279296875 -386.482421875 432.279296875 -386.482421875 599.270507812 -386.482421875 c 128,-1,57
 766.26171875 -386.482421875 766.26171875 -386.482421875 882.98828125 -326.1640625 c 128,-1,58
 999.71484375 -265.845703125 999.71484375 -265.845703125 999.71484375 -187.65625 c 0,59,60
 999.71484375 -119.518554688 999.71484375 -119.518554688 960.620117188 -75.9560546875 c 128,-1,61
 921.525390625 -32.392578125 921.525390625 -32.392578125 839.42578125 -15.0791015625 c 128,-1,62
 757.326171875 2.234375 757.326171875 2.234375 699.80078125 5.5849609375 c 128,-1,63
 642.275390625 8.935546875 642.275390625 8.935546875 537.27734375 8.935546875 c 0,64,65
 406.587890625 8.935546875 406.587890625 8.935546875 370.28515625 4.4677734375 c 128,-1,66
 333.983398438 0 333.983398438 0 292.654296875 -27.9248046875 c 0,67,68
 198.826171875 -87.1259765625 198.826171875 -87.1259765625 198.826171875 -187.65625 c 0,54,55
313.876953125 631.10546875 m 0,69,70
 313.876953125 539.510742188 313.876953125 539.510742188 377.545898438 470.815429688 c 128,-1,71
 441.21484375 402.120117188 441.21484375 402.120117188 532.80859375 402.120117188 c 0,72,73
 622.168945312 402.120117188 622.168945312 402.120117188 687.513671875 469.698242188 c 128,-1,74
 752.858398438 537.27734375 752.858398438 537.27734375 752.858398438 633.338867188 c 0,75,76
 752.858398438 724.932617188 752.858398438 724.932617188 688.630859375 793.62890625 c 128,-1,77
 624.403320312 862.32421875 624.403320312 862.32421875 532.80859375 862.32421875 c 0,78,79
 443.44921875 862.32421875 443.44921875 862.32421875 378.663085938 794.745117188 c 128,-1,80
 313.876953125 727.166992188 313.876953125 727.166992188 313.876953125 631.10546875 c 0,69,70
EndSplineSet
Substitution2: "'ss01' Style Set 1 lookup 41 subtable" g.alt
Substitution2: "'fwid' Full Widths lookup 32 subtable" uniFF47
Substitution2: "'smcp' Lowercase to Small Capitals lookup 27 subtable" g.sc
AlternateSubs2: "'aalt' Access All Alternates lookup 1 subtable" g.sc uniFF47 g.alt
EndChar

StartChar: h
Encoding: 104 104 33
Width: 1200
VWidth: 2287
GlyphClass: 2
Flags: W
LayerCount: 2
Fore
SplineSet
27.9248046875 68.13671875 m 0,0,1
 27.9248046875 138.5078125 27.9248046875 138.5078125 121.752929688 139.625 c 2,2,-1
 222.283203125 139.625 l 1,3,-1
 222.283203125 1257.7421875 l 1,4,-1
 118.40234375 1257.7421875 l 2,5,6
 26.8076171875 1257.7421875 26.8076171875 1257.7421875 27.9248046875 1326.99609375 c 0,7,8
 27.9248046875 1397.3671875 27.9248046875 1397.3671875 121.752929688 1397.3671875 c 2,9,-1
 288.185546875 1397.3671875 l 2,10,11
 345.153320312 1397.3671875 345.153320312 1397.3671875 362.466796875 1378.37792969 c 128,-1,12
 379.780273438 1359.38867188 379.780273438 1359.38867188 379.780273438 1303.5390625 c 2,13,-1
 379.780273438 877.961914062 l 1,14,15
 501.533203125 999.71484375 501.533203125 999.71484375 679.135742188 999.71484375 c 0,16,17
 976.2578125 999.71484375 976.2578125 999.71484375 976.2578125 670.200195312 c 2,18,-1
 976.2578125 139.625 l 1,19,-1
 1077.90527344 139.625 l 2,20,21
 1171.73339844 139.625 1171.73339844 139.625 1171.73339844 68.13671875 c 0,22,23
 1171.73339844 0 1171.73339844 0 1080.13867188 0 c 2,24,-1
 729.401367188 0 l 2,25,26
 635.573242188 0 635.573242188 0 635.573242188 68.13671875 c 0,27,28
 635.573242188 138.5078125 635.573242188 138.5078125 729.401367188 139.625 c 2,29,-1
 818.760742188 139.625 l 1,30,-1
 818.760742188 659.030273438 l 2,31,32
 818.760742188 766.26171875 818.760742188 766.26171875 785.809570312 813.17578125 c 128,-1,33
 752.858398438 860.08984375 752.858398438 860.08984375 665.732421875 860.08984375 c 0,34,35
 560.734375 860.08984375 560.734375 860.08984375 470.256835938 780.224609375 c 128,-1,36
 379.780273438 700.359375 379.780273438 700.359375 379.780273438 543.978515625 c 2,37,-1
 379.780273438 139.625 l 1,38,-1
 480.309570312 139.625 l 2,39,40
 574.137695312 139.625 574.137695312 139.625 574.137695312 68.13671875 c 0,41,42
 574.137695312 0 574.137695312 0 482.543945312 0 c 2,43,-1
 118.40234375 0 l 2,44,45
 27.9248046875 0 27.9248046875 0 27.9248046875 68.13671875 c 0,0,1
EndSplineSet
Substitution2: "'fwid' Full Widths lookup 32 subtable" uniFF48
Substitution2: "'smcp' Lowercase to Small Capitals lookup 27 subtable" h.sc
Substitution2: "'sinf' Scientific Inferiors lookup 14 subtable" uni2095
Substitution2: "'subs' Subscript lookup 13 subtable" uni2095
AlternateSubs2: "'aalt' Access All Alternates lookup 1 subtable" uni2095 h.sc uniFF48
EndChar

StartChar: i
Encoding: 105 105 34
Width: 1200
VWidth: 2287
GlyphClass: 2
Flags: W
LayerCount: 2
Fore
SplineSet
178.719726562 68.13671875 m 0,0,1
 178.719726562 138.5078125 178.719726562 138.5078125 272.547851562 139.625 c 2,2,-1
 549.564453125 139.625 l 1,3,-1
 549.564453125 846.685546875 l 1,4,-1
 290.419921875 846.685546875 l 2,5,6
 196.591796875 846.685546875 196.591796875 846.685546875 196.591796875 917.056640625 c 0,7,8
 196.591796875 985.194335938 196.591796875 985.194335938 290.419921875 986.310546875 c 2,9,-1
 615.466796875 986.310546875 l 2,10,11
 672.43359375 986.310546875 672.43359375 986.310546875 689.747070312 966.763671875 c 128,-1,12
 707.060546875 947.215820312 707.060546875 947.215820312 707.060546875 892.483398438 c 2,13,-1
 707.060546875 139.625 l 1,14,-1
 947.215820312 139.625 l 2,15,16
 1041.04394531 139.625 1041.04394531 139.625 1041.04394531 68.13671875 c 0,17,18
 1041.04394531 0 1041.04394531 0 947.215820312 0 c 2,19,-1
 272.547851562 0 l 2,20,21
 178.719726562 0 178.719726562 0 178.719726562 68.13671875 c 0,0,1
478.076171875 1285.66699219 m 128,-1,23
 478.076171875 1333.69824219 478.076171875 1333.69824219 511.02734375 1366.64941406 c 128,-1,24
 543.978515625 1399.60058594 543.978515625 1399.60058594 592.009765625 1399.60058594 c 128,-1,25
 640.041015625 1399.60058594 640.041015625 1399.60058594 673.55078125 1366.64941406 c 128,-1,26
 707.060546875 1333.69824219 707.060546875 1333.69824219 707.060546875 1285.66699219 c 128,-1,27
 707.060546875 1237.63574219 707.060546875 1237.63574219 673.55078125 1204.68457031 c 128,-1,28
 640.041015625 1171.73339844 640.041015625 1171.73339844 592.009765625 1171.73339844 c 128,-1,29
 543.978515625 1171.73339844 543.978515625 1171.73339844 511.02734375 1204.68457031 c 128,-1,22
 478.076171875 1237.63574219 478.076171875 1237.63574219 478.076171875 1285.66699219 c 128,-1,23
EndSplineSet
Substitution2: "Single Substitution lookup 61 subtable" dotlessi
Substitution2: "'fwid' Full Widths lookup 32 subtable" uniFF49
Substitution2: "'smcp' Lowercase to Small Capitals lookup 27 subtable" i.sc
Substitution2: "'locl' Localized Forms in Latin lookup 7 per glyph data 4" i.loclTRK
Substitution2: "'locl' Localized Forms in Latin lookup 7 per glyph data 3" i.loclTRK
Substitution2: "'locl' Localized Forms in Latin lookup 7 per glyph data 2" i.loclTRK
Substitution2: "'locl' Localized Forms in Latin lookup 7 per glyph data 1" i.loclTRK
Substitution2: "'locl' Localized Forms in Latin lookup 7 per glyph data 0" i.loclTRK
AlternateSubs2: "'aalt' Access All Alternates lookup 1 subtable" i.loclTRK i.sc uniFF49
EndChar

StartChar: j
Encoding: 106 106 35
Width: 1200
VWidth: 2287
GlyphClass: 2
Flags: W
LayerCount: 2
Fore
SplineSet
109.465820312 -347.38671875 m 0,0,1
 109.465820312 -299.356445312 109.465820312 -299.356445312 140.7421875 -270.872070312 c 128,-1,2
 172.017578125 -242.388671875 172.017578125 -242.388671875 212.23046875 -242.388671875 c 0,3,4
 251.325195312 -242.388671875 251.325195312 -242.388671875 282.600585938 -270.872070312 c 128,-1,5
 313.876953125 -299.356445312 313.876953125 -299.356445312 313.876953125 -345.153320312 c 0,6,7
 313.876953125 -365.258789062 313.876953125 -365.258789062 311.642578125 -373.078125 c 1,8,9
 379.780273438 -382.013671875 379.780273438 -382.013671875 438.981445312 -382.013671875 c 0,10,11
 562.967773438 -382.013671875 562.967773438 -382.013671875 624.403320312 -294.887695312 c 0,12,13
 683.603515625 -214.463867188 683.603515625 -214.463867188 683.603515625 -89.3603515625 c 2,14,-1
 683.603515625 846.685546875 l 1,15,-1
 386.482421875 846.685546875 l 2,16,17
 294.887695312 846.685546875 294.887695312 846.685546875 294.887695312 914.823242188 c 0,18,19
 294.887695312 985.194335938 294.887695312 985.194335938 388.715820312 986.310546875 c 2,20,-1
 750.624023438 986.310546875 l 2,21,22
 807.590820312 986.310546875 807.590820312 986.310546875 824.904296875 966.763671875 c 128,-1,23
 842.217773438 947.215820312 842.217773438 947.215820312 842.217773438 892.483398438 c 2,24,-1
 842.217773438 -100.530273438 l 2,25,26
 842.217773438 -148.560546875 842.217773438 -148.560546875 831.606445312 -201.059570312 c 128,-1,27
 820.995117188 -253.55859375 820.995117188 -253.55859375 791.39453125 -312.201171875 c 128,-1,28
 761.793945312 -370.84375 761.793945312 -370.84375 717.114257812 -416.640625 c 128,-1,29
 672.43359375 -462.438476562 672.43359375 -462.438476562 597.036132812 -492.038085938 c 128,-1,30
 521.638671875 -521.638671875 521.638671875 -521.638671875 427.810546875 -521.638671875 c 0,31,32
 109.465820312 -521.638671875 109.465820312 -521.638671875 109.465820312 -347.38671875 c 0,0,1
613.233398438 1285.66699219 m 128,-1,34
 613.233398438 1333.69824219 613.233398438 1333.69824219 646.184570312 1366.64941406 c 128,-1,35
 679.135742188 1399.60058594 679.135742188 1399.60058594 727.166992188 1399.60058594 c 128,-1,36
 775.198242188 1399.60058594 775.198242188 1399.60058594 808.708007812 1366.64941406 c 128,-1,37
 842.217773438 1333.69824219 842.217773438 1333.69824219 842.217773438 1285.66699219 c 128,-1,38
 842.217773438 1237.63574219 842.217773438 1237.63574219 808.708007812 1204.68457031 c 128,-1,39
 775.198242188 1171.73339844 775.198242188 1171.73339844 727.166992188 1171.73339844 c 128,-1,40
 679.135742188 1171.73339844 679.135742188 1171.73339844 646.184570312 1204.68457031 c 128,-1,33
 613.233398438 1237.63574219 613.233398438 1237.63574219 613.233398438 1285.66699219 c 128,-1,34
EndSplineSet
Substitution2: "Single Substitution lookup 61 subtable" uni0237
Substitution2: "'ss03' Style Set 3 lookup 43 subtable" j.alt
Substitution2: "'fwid' Full Widths lookup 32 subtable" uniFF4A
Substitution2: "'smcp' Lowercase to Small Capitals lookup 27 subtable" j.sc
AlternateSubs2: "'aalt' Access All Alternates lookup 1 subtable" j.sc uniFF4A j.alt
EndChar

StartChar: k
Encoding: 107 107 36
Width: 1200
VWidth: 2287
GlyphClass: 2
Flags: W
LayerCount: 2
Fore
SplineSet
48.03125 70.37109375 m 0,0,1
 48.03125 138.5078125 48.03125 138.5078125 139.625 139.625 c 2,2,-1
 251.325195312 139.625 l 1,3,-1
 251.325195312 1257.7421875 l 1,4,-1
 139.625 1257.7421875 l 2,5,6
 111.700195312 1257.7421875 111.700195312 1257.7421875 97.1787109375 1259.97558594 c 128,-1,7
 82.658203125 1262.20996094 82.658203125 1262.20996094 65.3447265625 1279.5234375 c 128,-1,8
 48.03125 1296.83691406 48.03125 1296.83691406 48.03125 1329.23046875 c 0,9,10
 48.03125 1397.3671875 48.03125 1397.3671875 139.625 1397.3671875 c 2,11,-1
 288.185546875 1397.3671875 l 2,12,13
 345.153320312 1397.3671875 345.153320312 1397.3671875 362.466796875 1378.37792969 c 128,-1,14
 379.780273438 1359.38867188 379.780273438 1359.38867188 379.780273438 1303.5390625 c 2,15,-1
 379.780273438 498.181640625 l 1,16,-1
 750.624023438 846.685546875 l 1,17,-1
 665.732421875 846.685546875 l 2,18,19
 574.137695312 846.685546875 574.137695312 846.685546875 574.137695312 914.823242188 c 0,20,21
 574.137695312 947.215820312 574.137695312 947.215820312 591.451171875 964.529296875 c 128,-1,22
 608.764648438 981.842773438 608.764648438 981.842773438 623.286132812 984.077148438 c 128,-1,23
 637.806640625 986.310546875 637.806640625 986.310546875 665.732421875 986.310546875 c 2,24,-1
 1017.58691406 986.310546875 l 2,25,26
 1111.41503906 986.310546875 1111.41503906 986.310546875 1111.41503906 914.823242188 c 0,27,28
 1111.41503906 846.685546875 1111.41503906 846.685546875 1017.58691406 846.685546875 c 2,29,-1
 938.280273438 846.685546875 l 1,30,-1
 656.795898438 583.07421875 l 1,31,-1
 997.481445312 139.625 l 1,32,-1
 1067.8515625 139.625 l 2,33,34
 1161.6796875 139.625 1161.6796875 139.625 1161.6796875 68.13671875 c 0,35,36
 1161.6796875 0 1161.6796875 0 1067.8515625 0 c 2,37,-1
 798.655273438 0 l 2,38,39
 707.060546875 0 707.060546875 0 707.060546875 68.13671875 c 0,40,41
 707.060546875 102.763671875 707.060546875 102.763671875 724.374023438 118.9609375 c 128,-1,42
 741.688476562 135.157226562 741.688476562 135.157226562 762.911132812 137.390625 c 128,-1,43
 784.133789062 139.625 784.133789062 139.625 835.515625 139.625 c 1,44,-1
 562.967773438 493.713867188 l 1,45,-1
 379.780273438 325.046875 l 1,46,-1
 379.780273438 139.625 l 1,47,-1
 491.48046875 139.625 l 2,48,49
 519.405273438 139.625 519.405273438 139.625 534.484375 137.390625 c 128,-1,50
 549.564453125 135.157226562 549.564453125 135.157226562 566.319335938 117.84375 c 128,-1,51
 583.07421875 100.530273438 583.07421875 100.530273438 583.07421875 68.13671875 c 0,52,53
 583.07421875 0 583.07421875 0 491.48046875 0 c 2,54,-1
 139.625 0 l 2,55,56
 111.700195312 0 111.700195312 0 97.1787109375 2.234375 c 128,-1,57
 82.658203125 4.4677734375 82.658203125 4.4677734375 65.3447265625 21.22265625 c 128,-1,58
 48.03125 37.9775390625 48.03125 37.9775390625 48.03125 70.37109375 c 0,0,1
EndSplineSet
Substitution2: "'fwid' Full Widths lookup 32 subtable" uniFF4B
Substitution2: "'smcp' Lowercase to Small Capitals lookup 27 subtable" k.sc
Substitution2: "'sinf' Scientific Inferiors lookup 14 subtable" uni2096
Substitution2: "'subs' Subscript lookup 13 subtable" uni2096
AlternateSubs2: "'aalt' Access All Alternates lookup 1 subtable" uni2096 k.sc uniFF4B
EndChar

StartChar: l
Encoding: 108 108 37
Width: 1200
VWidth: 2287
GlyphClass: 2
Flags: W
LayerCount: 2
Fore
SplineSet
132.922851562 68.13671875 m 0,0,1
 132.922851562 138.5078125 132.922851562 138.5078125 226.750976562 139.625 c 2,2,-1
 521.638671875 139.625 l 1,3,-1
 521.638671875 1257.7421875 l 1,4,-1
 224.516601562 1257.7421875 l 2,5,6
 132.922851562 1257.7421875 132.922851562 1257.7421875 132.922851562 1326.99609375 c 0,7,8
 132.922851562 1397.3671875 132.922851562 1397.3671875 226.750976562 1397.3671875 c 2,9,-1
 587.541992188 1397.3671875 l 2,10,11
 644.508789062 1397.3671875 644.508789062 1397.3671875 661.822265625 1378.37792969 c 128,-1,12
 679.135742188 1359.38867188 679.135742188 1359.38867188 679.135742188 1303.5390625 c 2,13,-1
 679.135742188 139.625 l 1,14,-1
 976.2578125 139.625 l 2,15,16
 1004.18261719 139.625 1004.18261719 139.625 1019.26269531 137.390625 c 128,-1,17
 1034.34179688 135.157226562 1034.34179688 135.157226562 1051.09667969 117.84375 c 128,-1,18
 1067.8515625 100.530273438 1067.8515625 100.530273438 1067.8515625 68.13671875 c 0,19,20
 1067.8515625 0 1067.8515625 0 976.2578125 0 c 2,21,-1
 224.516601562 0 l 2,22,23
 132.922851562 0 132.922851562 0 132.922851562 68.13671875 c 0,0,1
EndSplineSet
Substitution2: "'fwid' Full Widths lookup 32 subtable" uniFF4C
Substitution2: "'smcp' Lowercase to Small Capitals lookup 27 subtable" l.sc
Substitution2: "'sinf' Scientific Inferiors lookup 14 subtable" uni2097
Substitution2: "'subs' Subscript lookup 13 subtable" uni2097
AlternateSubs2: "'aalt' Access All Alternates lookup 1 subtable" uni2097 l.sc uniFF4C
EndChar

StartChar: m
Encoding: 109 109 38
Width: 1200
VWidth: 2287
GlyphClass: 2
Flags: W
LayerCount: 2
Fore
SplineSet
-8.935546875 68.13671875 m 0,0,1
 -8.935546875 102.763671875 -8.935546875 102.763671875 9.494140625 118.9609375 c 128,-1,2
 27.9248046875 135.157226562 27.9248046875 135.157226562 49.1484375 137.390625 c 128,-1,3
 70.37109375 139.625 70.37109375 139.625 121.752929688 139.625 c 1,4,-1
 121.752929688 846.685546875 l 1,5,6
 71.48828125 846.685546875 71.48828125 846.685546875 49.7060546875 848.919921875 c 128,-1,7
 27.9248046875 851.154296875 27.9248046875 851.154296875 9.494140625 867.350585938 c 128,-1,8
 -8.935546875 883.546875 -8.935546875 883.546875 -8.935546875 917.056640625 c 0,9,10
 -8.935546875 985.194335938 -8.935546875 985.194335938 84.8916015625 986.310546875 c 2,11,-1
 157.497070312 986.310546875 l 2,12,13
 185.421875 986.310546875 185.421875 986.310546875 200.501953125 984.077148438 c 128,-1,14
 215.581054688 981.842773438 215.581054688 981.842773438 231.21875 965.646484375 c 128,-1,15
 246.857421875 949.450195312 246.857421875 949.450195312 249.090820312 917.056640625 c 1,16,17
 338.451171875 999.71484375 338.451171875 999.71484375 459.645507812 999.71484375 c 128,-1,18
 580.83984375 999.71484375 580.83984375 999.71484375 633.338867188 880.196289062 c 1,19,20
 676.90234375 941.630859375 676.90234375 941.630859375 744.48046875 970.672851562 c 128,-1,21
 812.05859375 999.71484375 812.05859375 999.71484375 873.494140625 999.71484375 c 0,22,23
 943.865234375 999.71484375 943.865234375 999.71484375 990.220703125 961.737304688 c 128,-1,24
 1036.57617188 923.758789062 1036.57617188 923.758789062 1052.21386719 861.20703125 c 128,-1,25
 1067.8515625 798.655273438 1067.8515625 798.655273438 1072.87890625 764.028320312 c 128,-1,26
 1077.90527344 729.401367188 1077.90527344 729.401367188 1077.90527344 693.657226562 c 2,27,-1
 1077.90527344 139.625 l 1,28,29
 1128.16992188 139.625 1128.16992188 139.625 1149.95117188 137.390625 c 128,-1,30
 1171.73339844 135.157226562 1171.73339844 135.157226562 1189.60546875 118.9609375 c 128,-1,31
 1207.4765625 102.763671875 1207.4765625 102.763671875 1207.4765625 68.13671875 c 0,32,33
 1207.4765625 0 1207.4765625 0 1113.64941406 0 c 2,34,-1
 931.578125 0 l 2,35,36
 837.75 0 837.75 0 837.75 68.13671875 c 0,37,38
 837.75 100.530273438 837.75 100.530273438 856.739257812 117.84375 c 128,-1,39
 875.727539062 135.157226562 875.727539062 135.157226562 894.158203125 137.390625 c 128,-1,40
 912.588867188 139.625 912.588867188 139.625 949.450195312 139.625 c 1,41,-1
 949.450195312 672.43359375 l 2,42,43
 949.450195312 777.431640625 949.450195312 777.431640625 928.78515625 818.760742188 c 128,-1,44
 908.12109375 860.08984375 908.12109375 860.08984375 864.557617188 860.08984375 c 0,45,46
 786.368164062 860.08984375 786.368164062 860.08984375 724.932617188 776.873046875 c 128,-1,47
 663.498046875 693.657226562 663.498046875 693.657226562 663.498046875 549.564453125 c 2,48,-1
 663.498046875 139.625 l 1,49,50
 713.762695312 139.625 713.762695312 139.625 735.544921875 137.390625 c 128,-1,51
 757.326171875 135.157226562 757.326171875 135.157226562 775.756835938 118.9609375 c 128,-1,52
 794.186523438 102.763671875 794.186523438 102.763671875 794.186523438 68.13671875 c 0,53,54
 794.186523438 0 794.186523438 0 700.359375 0 c 2,55,-1
 517.170898438 0 l 2,56,57
 423.342773438 0 423.342773438 0 423.342773438 68.13671875 c 0,58,59
 423.342773438 100.530273438 423.342773438 100.530273438 442.890625 117.84375 c 128,-1,60
 462.438476562 135.157226562 462.438476562 135.157226562 480.309570312 137.390625 c 128,-1,61
 498.181640625 139.625 498.181640625 139.625 535.04296875 139.625 c 1,62,-1
 535.04296875 672.43359375 l 2,63,64
 535.04296875 777.431640625 535.04296875 777.431640625 514.37890625 818.760742188 c 128,-1,65
 493.713867188 860.08984375 493.713867188 860.08984375 450.151367188 860.08984375 c 0,66,67
 371.9609375 860.08984375 371.9609375 860.08984375 310.526367188 776.873046875 c 128,-1,68
 249.090820312 693.657226562 249.090820312 693.657226562 249.090820312 549.564453125 c 2,69,-1
 249.090820312 139.625 l 1,70,71
 299.356445312 139.625 299.356445312 139.625 321.137695312 137.390625 c 128,-1,72
 342.918945312 135.157226562 342.918945312 135.157226562 361.349609375 118.9609375 c 128,-1,73
 379.780273438 102.763671875 379.780273438 102.763671875 379.780273438 68.13671875 c 0,74,75
 379.780273438 0 379.780273438 0 285.952148438 0 c 2,76,-1
 84.8916015625 0 l 2,77,78
 -8.935546875 0 -8.935546875 0 -8.935546875 68.13671875 c 0,0,1
EndSplineSet
Substitution2: "'fwid' Full Widths lookup 32 subtable" uniFF4D
Substitution2: "'smcp' Lowercase to Small Capitals lookup 27 subtable" m.sc
Substitution2: "'sinf' Scientific Inferiors lookup 14 subtable" uni2098
Substitution2: "'subs' Subscript lookup 13 subtable" uni2098
AlternateSubs2: "'aalt' Access All Alternates lookup 1 subtable" uni2098 m.sc uniFF4D
EndChar

StartChar: n
Encoding: 110 110 39
Width: 1200
VWidth: 2287
GlyphClass: 2
Flags: W
LayerCount: 2
Fore
SplineSet
27.9248046875 68.13671875 m 0,0,1
 27.9248046875 138.5078125 27.9248046875 138.5078125 121.752929688 139.625 c 2,2,-1
 222.283203125 139.625 l 1,3,-1
 222.283203125 846.685546875 l 1,4,-1
 118.40234375 846.685546875 l 2,5,6
 26.8076171875 846.685546875 26.8076171875 846.685546875 27.9248046875 914.823242188 c 0,7,8
 27.9248046875 985.194335938 27.9248046875 985.194335938 121.752929688 986.310546875 c 2,9,-1
 288.185546875 986.310546875 l 2,10,11
 351.85546875 986.310546875 351.85546875 986.310546875 365.817382812 964.529296875 c 128,-1,12
 379.780273438 942.748046875 379.780273438 942.748046875 379.780273438 877.961914062 c 1,13,14
 501.533203125 999.71484375 501.533203125 999.71484375 679.135742188 999.71484375 c 0,15,16
 976.2578125 999.71484375 976.2578125 999.71484375 976.2578125 670.200195312 c 2,17,-1
 976.2578125 139.625 l 1,18,-1
 1077.90527344 139.625 l 2,19,20
 1171.73339844 139.625 1171.73339844 139.625 1171.73339844 68.13671875 c 0,21,22
 1171.73339844 0 1171.73339844 0 1080.13867188 0 c 2,23,-1
 729.401367188 0 l 2,24,25
 635.573242188 0 635.573242188 0 635.573242188 68.13671875 c 0,26,27
 635.573242188 138.5078125 635.573242188 138.5078125 729.401367188 139.625 c 2,28,-1
 818.760742188 139.625 l 1,29,-1
 818.760742188 659.030273438 l 2,30,31
 818.760742188 766.26171875 818.760742188 766.26171875 785.809570312 813.17578125 c 128,-1,32
 752.858398438 860.08984375 752.858398438 860.08984375 665.732421875 860.08984375 c 0,33,34
 560.734375 860.08984375 560.734375 860.08984375 470.256835938 780.224609375 c 128,-1,35
 379.780273438 700.359375 379.780273438 700.359375 379.780273438 543.978515625 c 2,36,-1
 379.780273438 139.625 l 1,37,-1
 480.309570312 139.625 l 2,38,39
 574.137695312 139.625 574.137695312 139.625 574.137695312 68.13671875 c 0,40,41
 574.137695312 0 574.137695312 0 482.543945312 0 c 2,42,-1
 118.40234375 0 l 2,43,44
 27.9248046875 0 27.9248046875 0 27.9248046875 68.13671875 c 0,0,1
EndSplineSet
Substitution2: "'fwid' Full Widths lookup 32 subtable" uniFF4E
Substitution2: "'smcp' Lowercase to Small Capitals lookup 27 subtable" n.sc
Substitution2: "'sinf' Scientific Inferiors lookup 14 subtable" uni2099
Substitution2: "'subs' Subscript lookup 13 subtable" uni2099
AlternateSubs2: "'aalt' Access All Alternates lookup 1 subtable" uni2099 n.sc uniFF4E
EndChar

StartChar: o
Encoding: 111 111 40
Width: 1200
VWidth: 2287
GlyphClass: 2
Flags: W
LayerCount: 2
Fore
SplineSet
130.689453125 493.713867188 m 0,0,1
 130.689453125 705.944335938 130.689453125 705.944335938 269.197265625 856.180664062 c 128,-1,2
 407.705078125 1006.41699219 407.705078125 1006.41699219 599.829101562 1006.41699219 c 128,-1,3
 791.953125 1006.41699219 791.953125 1006.41699219 929.90234375 856.739257812 c 128,-1,4
 1067.8515625 707.060546875 1067.8515625 707.060546875 1067.8515625 494.272460938 c 128,-1,5
 1067.8515625 281.484375 1067.8515625 281.484375 929.90234375 134.040039062 c 128,-1,6
 791.953125 -13.404296875 791.953125 -13.404296875 599.829101562 -13.404296875 c 128,-1,7
 407.705078125 -13.404296875 407.705078125 -13.404296875 269.197265625 132.364257812 c 128,-1,8
 130.689453125 278.1328125 130.689453125 278.1328125 130.689453125 493.713867188 c 0,0,1
288.185546875 510.46875 m 0,9,10
 288.185546875 352.971679688 288.185546875 352.971679688 379.780273438 239.596679688 c 128,-1,11
 471.374023438 126.220703125 471.374023438 126.220703125 599.270507812 126.220703125 c 128,-1,12
 727.166992188 126.220703125 727.166992188 126.220703125 818.760742188 239.038085938 c 128,-1,13
 910.35546875 351.85546875 910.35546875 351.85546875 910.35546875 510.46875 c 0,14,15
 910.35546875 663.498046875 910.35546875 663.498046875 817.643554688 765.14453125 c 128,-1,16
 724.932617188 866.791992188 724.932617188 866.791992188 599.270507812 866.791992188 c 128,-1,17
 473.608398438 866.791992188 473.608398438 866.791992188 380.897460938 765.14453125 c 128,-1,18
 288.185546875 663.498046875 288.185546875 663.498046875 288.185546875 510.46875 c 0,9,10
EndSplineSet
Substitution2: "Single Substitution lookup 63 subtable" ordmasculine
Substitution2: "'fwid' Full Widths lookup 32 subtable" uniFF4F
Substitution2: "'smcp' Lowercase to Small Capitals lookup 27 subtable" o.sc
Substitution2: "'sinf' Scientific Inferiors lookup 14 subtable" uni2092
Substitution2: "'subs' Subscript lookup 13 subtable" uni2092
AlternateSubs2: "'aalt' Access All Alternates lookup 1 subtable" uni2092 ordmasculine o.sc uniFF4F
EndChar

StartChar: p
Encoding: 112 112 41
Width: 1200
VWidth: 2287
GlyphClass: 2
Flags: W
LayerCount: 2
Fore
SplineSet
27.9248046875 -438.981445312 m 0,0,1
 27.9248046875 -368.610351562 27.9248046875 -368.610351562 121.752929688 -368.610351562 c 2,2,-1
 222.283203125 -368.610351562 l 1,3,-1
 222.283203125 846.685546875 l 1,4,-1
 118.40234375 846.685546875 l 2,5,6
 26.8076171875 846.685546875 26.8076171875 846.685546875 27.9248046875 914.823242188 c 0,7,8
 27.9248046875 985.194335938 27.9248046875 985.194335938 121.752929688 986.310546875 c 2,9,-1
 288.185546875 986.310546875 l 2,10,11
 347.38671875 986.310546875 347.38671875 986.310546875 363.583984375 965.646484375 c 128,-1,12
 379.780273438 944.982421875 379.780273438 944.982421875 379.780273438 888.014648438 c 1,13,14
 503.766601562 999.71484375 503.766601562 999.71484375 670.200195312 999.71484375 c 0,15,16
 853.387695312 999.71484375 853.387695312 999.71484375 984.635742188 852.271484375 c 128,-1,17
 1115.8828125 704.827148438 1115.8828125 704.827148438 1115.8828125 493.713867188 c 0,18,19
 1115.8828125 278.1328125 1115.8828125 278.1328125 975.69921875 132.364257812 c 128,-1,20
 835.515625 -13.404296875 835.515625 -13.404296875 645.625976562 -13.404296875 c 0,21,22
 494.831054688 -13.404296875 494.831054688 -13.404296875 379.780273438 102.763671875 c 1,23,-1
 379.780273438 -368.610351562 l 1,24,-1
 480.309570312 -368.610351562 l 2,25,26
 574.137695312 -368.610351562 574.137695312 -368.610351562 574.137695312 -438.981445312 c 0,27,28
 574.137695312 -507.118164062 574.137695312 -507.118164062 482.543945312 -508.235351562 c 2,29,-1
 118.40234375 -508.235351562 l 2,30,31
 27.9248046875 -507.118164062 27.9248046875 -507.118164062 27.9248046875 -438.981445312 c 0,0,1
379.780273438 436.747070312 m 2,32,33
 379.780273438 333.983398438 379.780273438 333.983398438 448.475585938 230.1015625 c 128,-1,34
 517.170898438 126.220703125 517.170898438 126.220703125 637.806640625 126.220703125 c 0,35,36
 764.028320312 126.220703125 764.028320312 126.220703125 861.20703125 231.21875 c 128,-1,37
 958.385742188 336.216796875 958.385742188 336.216796875 958.385742188 493.713867188 c 0,38,39
 958.385742188 644.508789062 958.385742188 644.508789062 870.142578125 752.299804688 c 128,-1,40
 781.900390625 860.08984375 781.900390625 860.08984375 656.795898438 860.08984375 c 0,41,42
 549.564453125 860.08984375 549.564453125 860.08984375 464.671875 782.458984375 c 128,-1,43
 379.780273438 704.827148438 379.780273438 704.827148438 379.780273438 604.296875 c 2,44,-1
 379.780273438 436.747070312 l 2,32,33
EndSplineSet
Substitution2: "'fwid' Full Widths lookup 32 subtable" uniFF50
Substitution2: "'smcp' Lowercase to Small Capitals lookup 27 subtable" p.sc
Substitution2: "'sinf' Scientific Inferiors lookup 14 subtable" uni209A
Substitution2: "'subs' Subscript lookup 13 subtable" uni209A
AlternateSubs2: "'aalt' Access All Alternates lookup 1 subtable" uni209A p.sc uniFF50
EndChar

StartChar: q
Encoding: 113 113 42
Width: 1200
VWidth: 2287
GlyphClass: 2
Flags: W
LayerCount: 2
Fore
SplineSet
91.59375 491.48046875 m 0,0,1
 91.59375 703.709960938 91.59375 703.709960938 237.920898438 851.712890625 c 128,-1,2
 384.248046875 999.71484375 384.248046875 999.71484375 580.83984375 999.71484375 c 0,3,4
 750.624023438 999.71484375 750.624023438 999.71484375 866.791992188 873.494140625 c 1,5,6
 866.791992188 914.823242188 866.791992188 914.823242188 867.909179688 932.13671875 c 128,-1,7
 869.026367188 949.450195312 869.026367188 949.450195312 877.403320312 968.997070312 c 128,-1,8
 885.78125 988.544921875 885.78125 988.544921875 901.418945312 994.129882812 c 128,-1,9
 917.056640625 999.71484375 917.056640625 999.71484375 947.215820312 999.71484375 c 0,10,11
 999.71484375 999.71484375 999.71484375 999.71484375 1012.56054688 975.69921875 c 128,-1,12
 1025.40625 951.68359375 1025.40625 951.68359375 1025.40625 905.88671875 c 2,13,-1
 1025.40625 -368.610351562 l 1,14,-1
 1137.10644531 -368.610351562 l 2,15,16
 1165.03125 -368.610351562 1165.03125 -368.610351562 1179.55175781 -370.84375 c 128,-1,17
 1194.07324219 -373.078125 1194.07324219 -373.078125 1211.38671875 -390.391601562 c 128,-1,18
 1228.70019531 -407.705078125 1228.70019531 -407.705078125 1228.70019531 -438.981445312 c 0,19,20
 1228.70019531 -507.118164062 1228.70019531 -507.118164062 1137.10644531 -508.235351562 c 2,21,-1
 755.091796875 -508.235351562 l 2,22,23
 727.166992188 -508.235351562 727.166992188 -508.235351562 712.646484375 -506.000976562 c 128,-1,24
 698.125 -503.766601562 698.125 -503.766601562 680.811523438 -486.453125 c 128,-1,25
 663.498046875 -469.139648438 663.498046875 -469.139648438 663.498046875 -436.747070312 c 0,26,27
 663.498046875 -368.610351562 663.498046875 -368.610351562 755.091796875 -368.610351562 c 2,28,-1
 866.791992188 -368.610351562 l 1,29,-1
 866.791992188 123.987304688 l 1,30,31
 740.571289062 -13.404296875 740.571289062 -13.404296875 558.5 -13.404296875 c 0,32,33
 368.610351562 -13.404296875 368.610351562 -13.404296875 230.1015625 134.040039062 c 128,-1,34
 91.59375 281.484375 91.59375 281.484375 91.59375 491.48046875 c 0,0,1
249.090820312 491.48046875 m 0,35,36
 249.090820312 338.451171875 249.090820312 338.451171875 344.036132812 232.3359375 c 128,-1,37
 438.981445312 126.220703125 438.981445312 126.220703125 567.435546875 126.220703125 c 0,38,39
 698.125 126.220703125 698.125 126.220703125 782.458984375 230.1015625 c 128,-1,40
 866.791992188 333.983398438 866.791992188 333.983398438 866.791992188 443.44921875 c 2,41,-1
 866.791992188 532.80859375 l 2,42,43
 866.791992188 656.795898438 866.791992188 656.795898438 790.27734375 758.443359375 c 128,-1,44
 713.762695312 860.08984375 713.762695312 860.08984375 592.009765625 860.08984375 c 0,45,46
 452.384765625 860.08984375 452.384765625 860.08984375 350.73828125 753.416015625 c 128,-1,47
 249.090820312 646.743164062 249.090820312 646.743164062 249.090820312 491.48046875 c 0,35,36
EndSplineSet
Substitution2: "'fwid' Full Widths lookup 32 subtable" uniFF51
Substitution2: "'smcp' Lowercase to Small Capitals lookup 27 subtable" q.sc
AlternateSubs2: "'aalt' Access All Alternates lookup 1 subtable" q.sc uniFF51
EndChar

StartChar: r
Encoding: 114 114 43
Width: 1200
VWidth: 2287
GlyphClass: 2
Flags: W
LayerCount: 2
Fore
SplineSet
73.7216796875 70.37109375 m 0,0,1
 73.7216796875 138.5078125 73.7216796875 138.5078125 164.19921875 139.625 c 2,2,-1
 349.62109375 139.625 l 1,3,-1
 349.62109375 846.685546875 l 1,4,-1
 164.19921875 846.685546875 l 2,5,6
 136.274414062 846.685546875 136.274414062 846.685546875 121.752929688 848.919921875 c 128,-1,7
 107.232421875 851.154296875 107.232421875 851.154296875 90.4765625 868.467773438 c 128,-1,8
 73.7216796875 885.78125 73.7216796875 885.78125 73.7216796875 917.056640625 c 0,9,10
 73.7216796875 985.194335938 73.7216796875 985.194335938 164.19921875 986.310546875 c 2,11,-1
 416.640625 986.310546875 l 2,12,13
 473.608398438 986.310546875 473.608398438 986.310546875 490.921875 966.763671875 c 128,-1,14
 508.235351562 947.215820312 508.235351562 947.215820312 508.235351562 892.483398438 c 2,15,-1
 508.235351562 814.29296875 l 1,16,17
 670.200195312 999.71484375 670.200195312 999.71484375 896.951171875 999.71484375 c 0,18,19
 962.853515625 999.71484375 962.853515625 999.71484375 1009.76757812 984.635742188 c 128,-1,20
 1056.68164062 969.555664062 1056.68164062 969.555664062 1077.34667969 945.540039062 c 128,-1,21
 1098.01074219 921.525390625 1098.01074219 921.525390625 1105.83007812 899.743164062 c 128,-1,22
 1113.64941406 877.961914062 1113.64941406 877.961914062 1113.64941406 857.856445312 c 0,23,24
 1113.64941406 814.29296875 1113.64941406 814.29296875 1085.16503906 786.926757812 c 128,-1,25
 1056.68164062 759.559570312 1056.68164062 759.559570312 1017.58691406 759.559570312 c 0,26,27
 976.2578125 759.559570312 976.2578125 759.559570312 948.891601562 789.16015625 c 128,-1,28
 921.525390625 818.760742188 921.525390625 818.760742188 919.291015625 860.08984375 c 1,29,30
 724.932617188 860.08984375 724.932617188 860.08984375 616.583984375 731.076171875 c 128,-1,31
 508.235351562 602.063476562 508.235351562 602.063476562 508.235351562 425.577148438 c 2,32,-1
 508.235351562 139.625 l 1,33,-1
 761.793945312 139.625 l 2,34,35
 855.622070312 139.625 855.622070312 139.625 855.622070312 68.13671875 c 0,36,37
 855.622070312 0 855.622070312 0 761.793945312 0 c 2,38,-1
 164.19921875 0 l 2,39,40
 136.274414062 0 136.274414062 0 121.752929688 2.234375 c 128,-1,41
 107.232421875 4.4677734375 107.232421875 4.4677734375 90.4765625 21.22265625 c 128,-1,42
 73.7216796875 37.9775390625 73.7216796875 37.9775390625 73.7216796875 70.37109375 c 0,0,1
EndSplineSet
Substitution2: "Single Substitution lookup 74 subtable" r.alternate
Substitution2: "'fwid' Full Widths lookup 32 subtable" uniFF52
Substitution2: "'smcp' Lowercase to Small Capitals lookup 27 subtable" r.sc
AlternateSubs2: "'aalt' Access All Alternates lookup 1 subtable" r.sc uniFF52 r.alternate
EndChar

StartChar: s
Encoding: 115 115 44
Width: 1200
VWidth: 2287
GlyphClass: 2
Flags: W
LayerCount: 2
Fore
SplineSet
164.19921875 80.423828125 m 2,0,-1
 164.19921875 301.58984375 l 2,1,2
 164.19921875 331.749023438 164.19921875 331.749023438 166.991210938 347.9453125 c 128,-1,3
 169.784179688 364.141601562 169.784179688 364.141601562 188.7734375 379.780273438 c 128,-1,4
 207.76171875 395.41796875 207.76171875 395.41796875 244.623046875 395.41796875 c 0,5,6
 285.952148438 395.41796875 285.952148438 395.41796875 301.03125 380.897460938 c 128,-1,7
 316.111328125 366.375976562 316.111328125 366.375976562 326.1640625 329.514648438 c 0,8,9
 392.067382812 126.220703125 392.067382812 126.220703125 617.701171875 126.220703125 c 0,10,11
 764.028320312 126.220703125 764.028320312 126.220703125 837.19140625 172.017578125 c 128,-1,12
 910.35546875 217.815429688 910.35546875 217.815429688 910.35546875 285.952148438 c 0,13,14
 910.35546875 329.514648438 910.35546875 329.514648438 882.98828125 360.232421875 c 128,-1,15
 855.622070312 390.950195312 855.622070312 390.950195312 802.005859375 410.497070312 c 128,-1,16
 748.389648438 430.044921875 748.389648438 430.044921875 712.646484375 437.864257812 c 128,-1,17
 676.90234375 445.682617188 676.90234375 445.682617188 615.466796875 455.736328125 c 0,18,19
 532.80859375 469.139648438 532.80859375 469.139648438 485.89453125 476.958984375 c 128,-1,20
 438.981445312 484.778320312 438.981445312 484.778320312 368.051757812 506.559570312 c 128,-1,21
 297.122070312 528.340820312 297.122070312 528.340820312 259.702148438 555.70703125 c 128,-1,22
 222.283203125 583.07421875 222.283203125 583.07421875 193.241210938 629.98828125 c 128,-1,23
 164.19921875 676.90234375 164.19921875 676.90234375 164.19921875 736.102539062 c 0,24,25
 164.19921875 766.26171875 164.19921875 766.26171875 172.576171875 796.979492188 c 128,-1,26
 180.954101562 827.697265625 180.954101562 827.697265625 208.3203125 866.791992188 c 128,-1,27
 235.686523438 905.88671875 235.686523438 905.88671875 280.3671875 935.487304688 c 128,-1,28
 325.046875 965.087890625 325.046875 965.087890625 407.146484375 985.752929688 c 128,-1,29
 489.24609375 1006.41699219 489.24609375 1006.41699219 599.829101562 1006.41699219 c 0,30,31
 743.921875 1006.41699219 743.921875 1006.41699219 844.452148438 958.385742188 c 1,32,33
 857.856445312 1006.41699219 857.856445312 1006.41699219 912.588867188 1006.41699219 c 0,34,35
 980.725585938 1006.41699219 980.725585938 1006.41699219 981.842773438 912.588867188 c 2,36,-1
 981.842773438 755.091796875 l 2,37,38
 981.842773438 724.932617188 981.842773438 724.932617188 979.05078125 709.294921875 c 128,-1,39
 976.2578125 693.657226562 976.2578125 693.657226562 957.268554688 677.4609375 c 128,-1,40
 938.280273438 661.263671875 938.280273438 661.263671875 901.418945312 661.263671875 c 0,41,42
 869.026367188 661.263671875 869.026367188 661.263671875 850.595703125 673.55078125 c 128,-1,43
 832.165039062 685.837890625 832.165039062 685.837890625 828.814453125 699.80078125 c 128,-1,44
 825.462890625 713.762695312 825.462890625 713.762695312 823.228515625 739.454101562 c 0,45,46
 809.825195312 866.791992188 809.825195312 866.791992188 597.594726562 866.791992188 c 0,47,48
 595.361328125 866.791992188 595.361328125 866.791992188 594.244140625 866.791992188 c 0,49,50
 445.682617188 866.791992188 445.682617188 866.791992188 374.75390625 828.255859375 c 128,-1,51
 303.82421875 789.71875 303.82421875 789.71875 303.82421875 736.102539062 c 0,52,53
 303.82421875 640.041015625 303.82421875 640.041015625 526.107421875 610.999023438 c 0,54,55
 541.745117188 608.764648438 541.745117188 608.764648438 681.370117188 583.07421875 c 0,56,57
 1049.98046875 526.107421875 1049.98046875 526.107421875 1049.98046875 285.952148438 c 0,58,59
 1049.98046875 249.090820312 1049.98046875 249.090820312 1039.92675781 212.788085938 c 128,-1,60
 1029.87402344 176.486328125 1029.87402344 176.486328125 1000.83203125 134.040039062 c 128,-1,61
 971.790039062 91.59375 971.790039062 91.59375 924.875976562 59.759765625 c 128,-1,62
 877.961914062 27.9248046875 877.961914062 27.9248046875 798.096679688 7.2607421875 c 128,-1,63
 718.231445312 -13.404296875 718.231445312 -13.404296875 615.466796875 -13.404296875 c 0,64,65
 436.747070312 -13.404296875 436.747070312 -13.404296875 318.344726562 73.7216796875 c 1,66,67
 290.419921875 -13.404296875 290.419921875 -13.404296875 233.453125 -13.404296875 c 0,68,69
 164.19921875 -13.404296875 164.19921875 -13.404296875 164.19921875 80.423828125 c 2,0,-1
EndSplineSet
Substitution2: "'fwid' Full Widths lookup 32 subtable" uniFF53
Substitution2: "'smcp' Lowercase to Small Capitals lookup 27 subtable" s.sc
Substitution2: "'sinf' Scientific Inferiors lookup 14 subtable" uni209B
Substitution2: "'subs' Subscript lookup 13 subtable" uni209B
AlternateSubs2: "'aalt' Access All Alternates lookup 1 subtable" uni209B s.sc uniFF53
EndChar

StartChar: t
Encoding: 116 116 45
Width: 1200
VWidth: 2287
GlyphClass: 2
Flags: W
LayerCount: 2
Fore
SplineSet
56.966796875 914.823242188 m 0,0,1
 56.966796875 985.194335938 56.966796875 985.194335938 150.794921875 986.310546875 c 2,2,-1
 349.62109375 986.310546875 l 1,3,-1
 349.62109375 1173.96679688 l 2,4,5
 349.62109375 1204.12597656 349.62109375 1204.12597656 351.85546875 1219.76367188 c 128,-1,6
 354.088867188 1235.40234375 354.088867188 1235.40234375 373.63671875 1251.59863281 c 128,-1,7
 393.18359375 1267.79492188 393.18359375 1267.79492188 430.044921875 1267.79492188 c 0,8,9
 482.543945312 1267.79492188 482.543945312 1267.79492188 495.389648438 1243.77929688 c 128,-1,10
 508.235351562 1219.76367188 508.235351562 1219.76367188 508.235351562 1173.96679688 c 2,11,-1
 508.235351562 986.310546875 l 1,12,-1
 883.546875 986.310546875 l 2,13,14
 911.471679688 986.310546875 911.471679688 986.310546875 925.993164062 984.077148438 c 128,-1,15
 940.513671875 981.842773438 940.513671875 981.842773438 957.268554688 964.529296875 c 128,-1,16
 974.024414062 947.215820312 974.024414062 947.215820312 974.024414062 914.823242188 c 0,17,18
 974.024414062 846.685546875 974.024414062 846.685546875 883.546875 846.685546875 c 2,19,-1
 508.235351562 846.685546875 l 1,20,-1
 508.235351562 301.58984375 l 2,21,22
 508.235351562 269.197265625 508.235351562 269.197265625 511.5859375 247.973632812 c 128,-1,23
 514.936523438 226.750976562 514.936523438 226.750976562 529.458007812 193.241210938 c 128,-1,24
 543.978515625 159.731445312 543.978515625 159.731445312 583.07421875 142.975585938 c 128,-1,25
 622.168945312 126.220703125 622.168945312 126.220703125 683.603515625 126.220703125 c 0,26,27
 720.46484375 126.220703125 720.46484375 126.220703125 757.326171875 136.274414062 c 128,-1,28
 794.186523438 146.327148438 794.186523438 146.327148438 831.606445312 186.5390625 c 128,-1,29
 869.026367188 226.750976562 869.026367188 226.750976562 869.026367188 290.419921875 c 0,30,31
 869.026367188 316.111328125 869.026367188 316.111328125 872.376953125 331.749023438 c 128,-1,32
 875.727539062 347.38671875 875.727539062 347.38671875 894.158203125 362.466796875 c 128,-1,33
 912.588867188 377.545898438 912.588867188 377.545898438 947.215820312 377.545898438 c 0,34,35
 984.077148438 377.545898438 984.077148438 377.545898438 1003.06640625 361.349609375 c 128,-1,36
 1022.0546875 345.153320312 1022.0546875 345.153320312 1024.84765625 330.631835938 c 128,-1,37
 1027.63964844 316.111328125 1027.63964844 316.111328125 1027.63964844 288.185546875 c 0,38,39
 1027.63964844 146.327148438 1027.63964844 146.327148438 919.849609375 66.4619140625 c 128,-1,40
 812.05859375 -13.404296875 812.05859375 -13.404296875 672.43359375 -13.404296875 c 128,-1,41
 532.80859375 -13.404296875 532.80859375 -13.404296875 441.21484375 60.876953125 c 128,-1,42
 349.62109375 135.157226562 349.62109375 135.157226562 349.62109375 288.185546875 c 2,43,-1
 349.62109375 846.685546875 l 1,44,-1
 148.560546875 846.685546875 l 2,45,46
 56.966796875 846.685546875 56.966796875 846.685546875 56.966796875 914.823242188 c 0,0,1
EndSplineSet
Substitution2: "'fwid' Full Widths lookup 32 subtable" uniFF54
Substitution2: "'smcp' Lowercase to Small Capitals lookup 27 subtable" t.sc
Substitution2: "'sinf' Scientific Inferiors lookup 14 subtable" uni209C
Substitution2: "'subs' Subscript lookup 13 subtable" uni209C
AlternateSubs2: "'aalt' Access All Alternates lookup 1 subtable" uni209C t.sc uniFF54
EndChar

StartChar: u
Encoding: 117 117 46
Width: 1200
VWidth: 2287
GlyphClass: 2
Flags: W
LayerCount: 2
Fore
SplineSet
27.9248046875 914.823242188 m 0,0,1
 27.9248046875 985.194335938 27.9248046875 985.194335938 121.752929688 986.310546875 c 2,2,-1
 288.185546875 986.310546875 l 2,3,4
 345.153320312 986.310546875 345.153320312 986.310546875 362.466796875 966.763671875 c 128,-1,5
 379.780273438 947.215820312 379.780273438 947.215820312 379.780273438 892.483398438 c 2,6,-1
 379.780273438 274.782226562 l 2,7,8
 379.780273438 237.920898438 379.780273438 237.920898438 383.130859375 218.373046875 c 128,-1,9
 386.482421875 198.826171875 386.482421875 198.826171875 401.561523438 173.693359375 c 128,-1,10
 416.640625 148.560546875 416.640625 148.560546875 456.294921875 137.390625 c 128,-1,11
 495.948242188 126.220703125 495.948242188 126.220703125 560.734375 126.220703125 c 0,12,13
 595.361328125 126.220703125 595.361328125 126.220703125 632.780273438 134.040039062 c 128,-1,14
 670.200195312 141.859375 670.200195312 141.859375 715.997070312 163.640625 c 128,-1,15
 761.793945312 185.421875 761.793945312 185.421875 790.27734375 235.686523438 c 128,-1,16
 818.760742188 285.952148438 818.760742188 285.952148438 818.760742188 359.673828125 c 2,17,-1
 818.760742188 846.685546875 l 1,18,-1
 715.997070312 846.685546875 l 2,19,20
 624.403320312 846.685546875 624.403320312 846.685546875 624.403320312 914.823242188 c 0,21,22
 624.403320312 985.194335938 624.403320312 985.194335938 718.231445312 986.310546875 c 2,23,-1
 885.78125 986.310546875 l 2,24,25
 942.748046875 986.310546875 942.748046875 986.310546875 959.502929688 966.763671875 c 128,-1,26
 976.2578125 947.215820312 976.2578125 947.215820312 976.2578125 892.483398438 c 2,27,-1
 976.2578125 139.625 l 1,28,-1
 1080.13867188 139.625 l 2,29,30
 1171.73339844 139.625 1171.73339844 139.625 1171.73339844 70.37109375 c 0,31,32
 1171.73339844 0 1171.73339844 0 1077.90527344 0 c 2,33,-1
 910.35546875 0 l 2,34,35
 882.4296875 0 882.4296875 0 867.909179688 2.234375 c 128,-1,36
 853.387695312 4.4677734375 853.387695312 4.4677734375 836.07421875 21.78125 c 128,-1,37
 818.760742188 39.0947265625 818.760742188 39.0947265625 818.760742188 73.7216796875 c 1,38,39
 704.827148438 -13.404296875 704.827148438 -13.404296875 546.212890625 -13.404296875 c 0,40,41
 221.166015625 -13.404296875 221.166015625 -13.404296875 222.283203125 260.260742188 c 2,42,-1
 222.283203125 846.685546875 l 1,43,-1
 118.40234375 846.685546875 l 2,44,45
 27.9248046875 846.685546875 27.9248046875 846.685546875 27.9248046875 914.823242188 c 0,0,1
EndSplineSet
Substitution2: "'fwid' Full Widths lookup 32 subtable" uniFF55
Substitution2: "'smcp' Lowercase to Small Capitals lookup 27 subtable" u.sc
AlternateSubs2: "'aalt' Access All Alternates lookup 1 subtable" u.sc uniFF55
EndChar

StartChar: v
Encoding: 118 118 47
Width: 1200
VWidth: 2287
GlyphClass: 2
Flags: W
LayerCount: 2
Fore
SplineSet
54.7333984375 914.823242188 m 0,0,1
 54.7333984375 947.215820312 54.7333984375 947.215820312 72.046875 964.529296875 c 128,-1,2
 89.3603515625 981.842773438 89.3603515625 981.842773438 103.880859375 984.077148438 c 128,-1,3
 118.40234375 986.310546875 118.40234375 986.310546875 146.327148438 986.310546875 c 2,4,-1
 414.407226562 986.310546875 l 2,5,6
 442.33203125 986.310546875 442.33203125 986.310546875 456.852539062 984.077148438 c 128,-1,7
 471.374023438 981.842773438 471.374023438 981.842773438 488.6875 964.529296875 c 128,-1,8
 506.000976562 947.215820312 506.000976562 947.215820312 506.000976562 914.823242188 c 0,9,10
 506.000976562 846.685546875 506.000976562 846.685546875 414.407226562 846.685546875 c 2,11,-1
 349.62109375 846.685546875 l 1,12,-1
 599.829101562 109.465820312 l 1,13,-1
 848.919921875 846.685546875 l 1,14,-1
 784.133789062 846.685546875 l 2,15,16
 756.208984375 846.685546875 756.208984375 846.685546875 741.688476562 848.919921875 c 128,-1,17
 727.166992188 851.154296875 727.166992188 851.154296875 710.412109375 868.467773438 c 128,-1,18
 693.657226562 885.78125 693.657226562 885.78125 693.657226562 917.056640625 c 0,19,20
 693.657226562 985.194335938 693.657226562 985.194335938 784.133789062 986.310546875 c 2,21,-1
 1052.21386719 986.310546875 l 2,22,23
 1080.13867188 986.310546875 1080.13867188 986.310546875 1094.66015625 984.077148438 c 128,-1,24
 1109.18066406 981.842773438 1109.18066406 981.842773438 1126.49414062 964.529296875 c 128,-1,25
 1143.80761719 947.215820312 1143.80761719 947.215820312 1143.80761719 914.823242188 c 0,26,27
 1143.80761719 846.685546875 1143.80761719 846.685546875 1052.21386719 846.685546875 c 2,28,-1
 984.077148438 846.685546875 l 1,29,-1
 720.46484375 65.9033203125 l 2,30,31
 709.294921875 31.2763671875 709.294921875 31.2763671875 686.396484375 13.404296875 c 128,-1,32
 663.498046875 -4.4677734375 663.498046875 -4.4677734375 646.184570312 -6.7021484375 c 128,-1,33
 628.87109375 -8.935546875 628.87109375 -8.935546875 599.829101562 -8.935546875 c 0,34,35
 567.435546875 -8.935546875 567.435546875 -8.935546875 551.239257812 -6.7021484375 c 128,-1,36
 535.04296875 -4.4677734375 535.04296875 -4.4677734375 513.26171875 13.962890625 c 128,-1,37
 491.48046875 32.392578125 491.48046875 32.392578125 478.076171875 68.13671875 c 2,38,-1
 215.581054688 846.685546875 l 1,39,-1
 146.327148438 846.685546875 l 2,40,41
 54.7333984375 846.685546875 54.7333984375 846.685546875 54.7333984375 914.823242188 c 0,0,1
EndSplineSet
Substitution2: "'fwid' Full Widths lookup 32 subtable" uniFF56
Substitution2: "'smcp' Lowercase to Small Capitals lookup 27 subtable" v.sc
AlternateSubs2: "'aalt' Access All Alternates lookup 1 subtable" v.sc uniFF56
EndChar

StartChar: w
Encoding: 119 119 48
Width: 1200
VWidth: 2287
GlyphClass: 2
Flags: W
LayerCount: 2
Fore
SplineSet
36.861328125 917.056640625 m 0,0,1
 36.861328125 949.450195312 36.861328125 949.450195312 53.6162109375 965.646484375 c 128,-1,2
 70.37109375 981.842773438 70.37109375 981.842773438 86.5673828125 984.077148438 c 128,-1,3
 102.763671875 986.310546875 102.763671875 986.310546875 132.922851562 986.310546875 c 2,4,-1
 395.41796875 986.310546875 l 2,5,6
 425.577148438 986.310546875 425.577148438 986.310546875 441.7734375 984.077148438 c 128,-1,7
 457.969726562 981.842773438 457.969726562 981.842773438 474.724609375 964.529296875 c 128,-1,8
 491.48046875 947.215820312 491.48046875 947.215820312 491.48046875 915.381835938 c 128,-1,9
 491.48046875 883.546875 491.48046875 883.546875 474.724609375 867.350585938 c 128,-1,10
 457.969726562 851.154296875 457.969726562 851.154296875 441.7734375 848.919921875 c 128,-1,11
 425.577148438 846.685546875 425.577148438 846.685546875 395.41796875 846.685546875 c 2,12,-1
 283.717773438 846.685546875 l 1,13,-1
 402.120117188 164.19921875 l 1,14,-1
 404.353515625 164.19921875 l 1,15,16
 411.055664062 196.591796875 411.055664062 196.591796875 458.528320312 362.466796875 c 128,-1,17
 506.000976562 528.340820312 506.000976562 528.340820312 512.703125 541.745117188 c 0,18,19
 538.393554688 592.009765625 538.393554688 592.009765625 604.296875 592.009765625 c 0,20,21
 661.263671875 592.009765625 661.263671875 592.009765625 680.811523438 564.643554688 c 128,-1,22
 700.359375 537.27734375 700.359375 537.27734375 731.634765625 423.342773438 c 0,23,24
 786.368164062 231.21875 786.368164062 231.21875 798.655273438 164.19921875 c 1,25,-1
 800.888671875 164.19921875 l 1,26,-1
 914.823242188 846.685546875 l 1,27,-1
 803.123046875 846.685546875 l 2,28,29
 772.963867188 846.685546875 772.963867188 846.685546875 757.326171875 848.919921875 c 128,-1,30
 741.688476562 851.154296875 741.688476562 851.154296875 724.374023438 868.467773438 c 128,-1,31
 707.060546875 885.78125 707.060546875 885.78125 707.060546875 917.615234375 c 128,-1,32
 707.060546875 949.450195312 707.060546875 949.450195312 724.374023438 965.646484375 c 128,-1,33
 741.688476562 981.842773438 741.688476562 981.842773438 757.326171875 984.077148438 c 128,-1,34
 772.963867188 986.310546875 772.963867188 986.310546875 803.123046875 986.310546875 c 2,35,-1
 1065.61816406 986.310546875 l 2,36,37
 1095.77734375 986.310546875 1095.77734375 986.310546875 1111.97363281 984.077148438 c 128,-1,38
 1128.16992188 981.842773438 1128.16992188 981.842773438 1144.92480469 965.646484375 c 128,-1,39
 1161.6796875 949.450195312 1161.6796875 949.450195312 1161.6796875 917.056640625 c 0,40,41
 1161.6796875 882.4296875 1161.6796875 882.4296875 1144.92480469 866.791992188 c 128,-1,42
 1128.16992188 851.154296875 1128.16992188 851.154296875 1108.62207031 848.919921875 c 128,-1,43
 1089.07519531 846.685546875 1089.07519531 846.685546875 1045.51171875 846.685546875 c 1,44,-1
 908.12109375 78.1904296875 l 2,45,46
 901.418945312 45.796875 901.418945312 45.796875 896.951171875 30.7177734375 c 128,-1,47
 892.483398438 15.6376953125 892.483398438 15.6376953125 869.584960938 3.3505859375 c 128,-1,48
 846.685546875 -8.935546875 846.685546875 -8.935546875 807.590820312 -8.935546875 c 0,49,50
 739.454101562 -8.935546875 739.454101562 -8.935546875 711.529296875 30.1591796875 c 1,51,52
 700.359375 55.849609375 700.359375 55.849609375 656.795898438 206.086914062 c 128,-1,53
 613.233398438 356.323242188 613.233398438 356.323242188 606.53125 434.512695312 c 1,54,-1
 604.296875 434.512695312 l 1,55,56
 590.892578125 338.451171875 590.892578125 338.451171875 537.27734375 150.794921875 c 0,57,58
 504.883789062 41.3291015625 504.883789062 41.3291015625 484.778320312 16.1962890625 c 128,-1,59
 464.671875 -8.935546875 464.671875 -8.935546875 397.65234375 -8.935546875 c 0,60,61
 363.025390625 -8.935546875 363.025390625 -8.935546875 342.918945312 -3.3505859375 c 128,-1,62
 322.813476562 2.234375 322.813476562 2.234375 312.201171875 16.1962890625 c 128,-1,63
 301.58984375 30.1591796875 301.58984375 30.1591796875 298.239257812 41.3291015625 c 128,-1,64
 294.887695312 52.4990234375 294.887695312 52.4990234375 290.419921875 78.1904296875 c 2,65,-1
 153.029296875 846.685546875 l 1,66,67
 109.465820312 846.685546875 109.465820312 846.685546875 89.9189453125 848.919921875 c 128,-1,68
 70.37109375 851.154296875 70.37109375 851.154296875 53.6162109375 866.791992188 c 128,-1,69
 36.861328125 882.4296875 36.861328125 882.4296875 36.861328125 917.056640625 c 0,0,1
EndSplineSet
Substitution2: "'fwid' Full Widths lookup 32 subtable" uniFF57
Substitution2: "'smcp' Lowercase to Small Capitals lookup 27 subtable" w.sc
AlternateSubs2: "'aalt' Access All Alternates lookup 1 subtable" w.sc uniFF57
EndChar

StartChar: x
Encoding: 120 120 49
Width: 1200
VWidth: 2287
GlyphClass: 2
Flags: W
LayerCount: 2
Fore
SplineSet
61.4345703125 68.13671875 m 0,0,1
 61.4345703125 138.5078125 61.4345703125 138.5078125 155.262695312 139.625 c 2,2,-1
 246.857421875 139.625 l 1,3,-1
 530.575195312 508.235351562 l 1,4,-1
 260.260742188 846.685546875 l 1,5,-1
 169.784179688 846.685546875 l 2,6,7
 75.9560546875 846.685546875 75.9560546875 846.685546875 75.9560546875 914.823242188 c 0,8,9
 75.9560546875 985.194335938 75.9560546875 985.194335938 169.784179688 986.310546875 c 2,10,-1
 436.747070312 986.310546875 l 2,11,12
 528.340820312 986.310546875 528.340820312 986.310546875 528.340820312 917.056640625 c 0,13,14
 528.340820312 882.4296875 528.340820312 882.4296875 511.02734375 866.791992188 c 128,-1,15
 493.713867188 851.154296875 493.713867188 851.154296875 475.841796875 848.919921875 c 128,-1,16
 457.969726562 846.685546875 457.969726562 846.685546875 418.875 846.685546875 c 1,17,-1
 592.009765625 615.466796875 l 1,18,-1
 761.793945312 846.685546875 l 1,19,20
 722.69921875 846.685546875 722.69921875 846.685546875 703.151367188 848.919921875 c 128,-1,21
 683.603515625 851.154296875 683.603515625 851.154296875 666.848632812 867.350585938 c 128,-1,22
 650.09375 883.546875 650.09375 883.546875 650.09375 917.056640625 c 0,23,24
 650.09375 985.194335938 650.09375 985.194335938 741.688476562 986.310546875 c 2,25,-1
 1008.65136719 986.310546875 l 2,26,27
 1102.47851562 986.310546875 1102.47851562 986.310546875 1102.47851562 914.823242188 c 0,28,29
 1102.47851562 846.685546875 1102.47851562 846.685546875 1008.65136719 846.685546875 c 2,30,-1
 917.056640625 846.685546875 l 1,31,-1
 656.795898438 508.235351562 l 1,32,-1
 949.450195312 139.625 l 1,33,-1
 1041.04394531 139.625 l 2,34,35
 1134.87207031 139.625 1134.87207031 139.625 1134.87207031 68.13671875 c 0,36,37
 1134.87207031 0 1134.87207031 0 1041.04394531 0 c 2,38,-1
 772.963867188 0 l 2,39,40
 681.370117188 0 681.370117188 0 681.370117188 68.13671875 c 0,41,42
 681.370117188 102.763671875 681.370117188 102.763671875 698.68359375 118.9609375 c 128,-1,43
 715.997070312 135.157226562 715.997070312 135.157226562 735.544921875 137.390625 c 128,-1,44
 755.091796875 139.625 755.091796875 139.625 796.420898438 139.625 c 1,45,-1
 592.009765625 421.109375 l 1,46,-1
 395.41796875 139.625 l 1,47,48
 441.21484375 139.625 441.21484375 139.625 460.762695312 137.390625 c 128,-1,49
 480.309570312 135.157226562 480.309570312 135.157226562 497.623046875 118.9609375 c 128,-1,50
 514.936523438 102.763671875 514.936523438 102.763671875 514.936523438 68.13671875 c 0,51,52
 514.936523438 0 514.936523438 0 423.342773438 0 c 2,53,-1
 155.262695312 0 l 2,54,55
 61.4345703125 0 61.4345703125 0 61.4345703125 68.13671875 c 0,0,1
EndSplineSet
Substitution2: "'fwid' Full Widths lookup 32 subtable" uniFF58
Substitution2: "'smcp' Lowercase to Small Capitals lookup 27 subtable" x.sc
Substitution2: "'sinf' Scientific Inferiors lookup 14 subtable" uni2093
Substitution2: "'subs' Subscript lookup 13 subtable" uni2093
AlternateSubs2: "'aalt' Access All Alternates lookup 1 subtable" uni2093 x.sc uniFF58
EndChar

StartChar: y
Encoding: 121 121 50
Width: 1200
VWidth: 2287
GlyphClass: 2
Flags: W
LayerCount: 2
Fore
SplineSet
59.201171875 914.823242188 m 0,0,1
 59.201171875 947.215820312 59.201171875 947.215820312 76.5146484375 964.529296875 c 128,-1,2
 93.828125 981.842773438 93.828125 981.842773438 108.907226562 984.077148438 c 128,-1,3
 123.987304688 986.310546875 123.987304688 986.310546875 150.794921875 986.310546875 c 2,4,-1
 418.875 986.310546875 l 2,5,6
 446.799804688 986.310546875 446.799804688 986.310546875 461.321289062 984.077148438 c 128,-1,7
 475.841796875 981.842773438 475.841796875 981.842773438 493.155273438 964.529296875 c 128,-1,8
 510.46875 947.215820312 510.46875 947.215820312 510.46875 914.823242188 c 0,9,10
 510.46875 846.685546875 510.46875 846.685546875 418.875 846.685546875 c 2,11,-1
 361.908203125 846.685546875 l 1,12,-1
 574.137695312 297.122070312 l 2,13,14
 617.701171875 178.719726562 617.701171875 178.719726562 622.168945312 161.96484375 c 1,15,-1
 624.403320312 161.96484375 l 1,16,17
 642.275390625 240.155273438 642.275390625 240.155273438 683.603515625 359.673828125 c 2,18,-1
 848.919921875 846.685546875 l 1,19,-1
 784.133789062 846.685546875 l 2,20,21
 756.208984375 846.685546875 756.208984375 846.685546875 741.688476562 848.919921875 c 128,-1,22
 727.166992188 851.154296875 727.166992188 851.154296875 710.412109375 868.467773438 c 128,-1,23
 693.657226562 885.78125 693.657226562 885.78125 693.657226562 917.056640625 c 0,24,25
 693.657226562 985.194335938 693.657226562 985.194335938 784.133789062 986.310546875 c 2,26,-1
 1052.21386719 986.310546875 l 2,27,28
 1080.13867188 986.310546875 1080.13867188 986.310546875 1094.66015625 984.077148438 c 128,-1,29
 1109.18066406 981.842773438 1109.18066406 981.842773438 1126.49414062 964.529296875 c 128,-1,30
 1143.80761719 947.215820312 1143.80761719 947.215820312 1143.80761719 914.823242188 c 0,31,32
 1143.80761719 846.685546875 1143.80761719 846.685546875 1052.21386719 846.685546875 c 2,33,-1
 984.077148438 846.685546875 l 1,34,-1
 628.87109375 -194.358398438 l 2,35,36
 619.934570312 -220.048828125 619.934570312 -220.048828125 612.116210938 -240.155273438 c 128,-1,37
 604.296875 -260.260742188 604.296875 -260.260742188 571.904296875 -318.903320312 c 128,-1,38
 539.510742188 -377.545898438 539.510742188 -377.545898438 504.325195312 -416.640625 c 128,-1,39
 469.139648438 -455.736328125 469.139648438 -455.736328125 410.497070312 -488.6875 c 128,-1,40
 351.85546875 -521.638671875 351.85546875 -521.638671875 288.185546875 -521.638671875 c 0,41,42
 205.528320312 -521.638671875 205.528320312 -521.638671875 151.912109375 -465.7890625 c 128,-1,43
 98.2958984375 -409.939453125 98.2958984375 -409.939453125 98.2958984375 -333.983398438 c 0,44,45
 98.2958984375 -288.185546875 98.2958984375 -288.185546875 125.662109375 -260.819335938 c 128,-1,46
 153.029296875 -233.453125 153.029296875 -233.453125 198.826171875 -233.453125 c 0,47,48
 242.388671875 -233.453125 242.388671875 -233.453125 269.755859375 -260.819335938 c 128,-1,49
 297.122070312 -288.185546875 297.122070312 -288.185546875 297.122070312 -331.749023438 c 0,50,51
 297.122070312 -345.153320312 297.122070312 -345.153320312 294.887695312 -356.881835938 c 128,-1,52
 292.654296875 -368.610351562 292.654296875 -368.610351562 288.185546875 -375.311523438 c 2,53,-1
 285.952148438 -382.013671875 l 1,54,55
 402.120117188 -375.311523438 402.120117188 -375.311523438 469.139648438 -249.090820312 c 0,56,57
 482.543945312 -223.400390625 482.543945312 -223.400390625 504.325195312 -161.96484375 c 128,-1,58
 526.107421875 -100.530273438 526.107421875 -100.530273438 541.186523438 -51.3818359375 c 128,-1,59
 556.265625 -2.234375 556.265625 -2.234375 556.265625 0 c 0,60,61
 556.265625 6.7021484375 556.265625 6.7021484375 546.212890625 30.1591796875 c 2,62,-1
 222.283203125 846.685546875 l 1,63,-1
 150.794921875 846.685546875 l 2,64,65
 59.201171875 846.685546875 59.201171875 846.685546875 59.201171875 914.823242188 c 0,0,1
EndSplineSet
Substitution2: "'fwid' Full Widths lookup 32 subtable" uniFF59
Substitution2: "'smcp' Lowercase to Small Capitals lookup 27 subtable" y.sc
AlternateSubs2: "'aalt' Access All Alternates lookup 1 subtable" y.sc uniFF59
EndChar

StartChar: z
Encoding: 122 122 51
Width: 1200
VWidth: 2287
GlyphClass: 2
Flags: W
LayerCount: 2
Fore
SplineSet
75.9560546875 78.1904296875 m 0,0,1
 75.9560546875 108.348632812 75.9560546875 108.348632812 83.775390625 121.752929688 c 128,-1,2
 91.59375 135.157226562 91.59375 135.157226562 126.220703125 169.784179688 c 2,3,-1
 839.984375 846.685546875 l 1,4,-1
 270.314453125 846.685546875 l 1,5,-1
 270.314453125 787.485351562 l 2,6,7
 270.314453125 757.326171875 270.314453125 757.326171875 268.080078125 741.129882812 c 128,-1,8
 265.845703125 724.932617188 265.845703125 724.932617188 246.298828125 709.294921875 c 128,-1,9
 226.750976562 693.657226562 226.750976562 693.657226562 189.889648438 693.657226562 c 0,10,11
 137.390625 693.657226562 137.390625 693.657226562 124.545898438 717.672851562 c 128,-1,12
 111.700195312 741.688476562 111.700195312 741.688476562 111.700195312 787.485351562 c 2,13,-1
 111.700195312 892.483398438 l 2,14,15
 111.700195312 949.450195312 111.700195312 949.450195312 130.130859375 967.880859375 c 128,-1,16
 148.560546875 986.310546875 148.560546875 986.310546875 205.528320312 986.310546875 c 2,17,-1
 984.077148438 986.310546875 l 2,18,19
 1014.23632812 986.310546875 1014.23632812 986.310546875 1029.87402344 984.077148438 c 128,-1,20
 1045.51171875 981.842773438 1045.51171875 981.842773438 1061.70898438 963.412109375 c 128,-1,21
 1077.90527344 944.982421875 1077.90527344 944.982421875 1077.90527344 908.12109375 c 0,22,23
 1077.90527344 877.961914062 1077.90527344 877.961914062 1069.52734375 864.557617188 c 128,-1,24
 1061.15039062 851.154296875 1061.15039062 851.154296875 1027.63964844 816.52734375 c 2,25,-1
 313.876953125 139.625 l 1,26,-1
 928.2265625 139.625 l 1,27,-1
 928.2265625 226.750976562 l 2,28,29
 928.2265625 256.91015625 928.2265625 256.91015625 931.01953125 272.547851562 c 128,-1,30
 933.811523438 288.185546875 933.811523438 288.185546875 952.80078125 304.3828125 c 128,-1,31
 971.790039062 320.579101562 971.790039062 320.579101562 1008.65136719 320.579101562 c 0,32,33
 1061.15039062 320.579101562 1061.15039062 320.579101562 1073.99511719 296.563476562 c 128,-1,34
 1086.84082031 272.547851562 1086.84082031 272.547851562 1086.84082031 226.750976562 c 2,35,-1
 1086.84082031 93.828125 l 2,36,37
 1086.84082031 13.404296875 1086.84082031 13.404296875 1036.57617188 0 c 1,38,-1
 169.784179688 0 l 2,39,40
 139.625 0 139.625 0 123.428710938 2.234375 c 128,-1,41
 107.232421875 4.4677734375 107.232421875 4.4677734375 91.59375 22.8984375 c 128,-1,42
 75.9560546875 41.3291015625 75.9560546875 41.3291015625 75.9560546875 78.1904296875 c 0,0,1
EndSplineSet
Substitution2: "'fwid' Full Widths lookup 32 subtable" uniFF5A
Substitution2: "'smcp' Lowercase to Small Capitals lookup 27 subtable" z.sc
AlternateSubs2: "'aalt' Access All Alternates lookup 1 subtable" z.sc uniFF5A
EndChar

StartChar: Alpha
Encoding: 913 913 52
Width: 1200
VWidth: 2287
GlyphClass: 2
Flags: W
LayerCount: 2
Fore
SplineSet
61.4345703125 68.13671875 m 0,0,1
 56.966796875 141.859375 56.966796875 141.859375 144.092773438 141.859375 c 2,2,-1
 196.591796875 141.859375 l 1,3,4
 205.528320312 187.65625 205.528320312 187.65625 222.283203125 253.55859375 c 2,5,-1
 478.076171875 1414.12207031 l 2,6,7
 495.948242188 1490.078125 495.948242188 1490.078125 567.435546875 1488.9609375 c 2,8,-1
 624.403320312 1488.9609375 l 2,9,10
 661.263671875 1488.9609375 661.263671875 1488.9609375 683.045898438 1474.44042969 c 128,-1,11
 704.827148438 1459.91894531 704.827148438 1459.91894531 710.412109375 1444.83984375 c 128,-1,12
 715.997070312 1429.75976562 715.997070312 1429.75976562 722.69921875 1399.60058594 c 2,13,-1
 979.609375 244.623046875 l 2,14,15
 984.077148438 228.985351562 984.077148438 228.985351562 990.779296875 194.358398438 c 128,-1,16
 997.481445312 159.731445312 997.481445312 159.731445312 1001.94921875 141.859375 c 1,17,-1
 1056.68164062 141.859375 l 2,18,19
 1137.10644531 141.859375 1137.10644531 141.859375 1137.10644531 73.7216796875 c 0,20,21
 1137.10644531 0 1137.10644531 0 1058.91601562 0 c 2,22,-1
 789.71875 0 l 2,23,24
 709.294921875 0 709.294921875 0 709.294921875 70.9296875 c 128,-1,25
 709.294921875 141.859375 709.294921875 141.859375 787.485351562 141.859375 c 2,26,-1
 839.984375 141.859375 l 1,27,-1
 781.900390625 399.885742188 l 1,28,-1
 418.875 399.885742188 l 1,29,-1
 361.908203125 141.859375 l 1,30,-1
 409.939453125 141.859375 l 2,31,32
 492.596679688 141.859375 492.596679688 141.859375 492.038085938 70.9296875 c 128,-1,33
 491.48046875 0 491.48046875 0 412.172851562 0 c 2,34,-1
 141.859375 0 l 2,35,36
 61.4345703125 0 61.4345703125 0 61.4345703125 68.13671875 c 0,0,1
450.151367188 541.745117188 m 1,37,-1
 750.624023438 541.745117188 l 1,38,39
 746.15625 561.850585938 746.15625 561.850585938 709.294921875 732.751953125 c 128,-1,40
 672.43359375 903.653320312 672.43359375 903.653320312 638.365234375 1076.22949219 c 128,-1,41
 604.296875 1248.80566406 604.296875 1248.80566406 599.829101562 1301.3046875 c 1,42,-1
 592.009765625 1242.10351562 l 1,43,-1
 546.212890625 999.71484375 l 1,44,-1
 450.151367188 541.745117188 l 1,37,-1
EndSplineSet
EndChar

StartChar: Beta
Encoding: 914 914 53
Width: 1200
VWidth: 2287
GlyphClass: 2
Flags: W
LayerCount: 2
Fore
SplineSet
50.2646484375 70.9296875 m 128,-1,1
 50.2646484375 141.859375 50.2646484375 141.859375 128.455078125 141.859375 c 2,2,-1
 205.528320312 141.859375 l 1,3,-1
 205.528320312 1320.29394531 l 1,4,5
 205.528320312 1320.29394531 205.528320312 1320.29394531 130.689453125 1320.29394531 c 0,6,7
 50.2646484375 1320.29394531 50.2646484375 1320.29394531 50.2646484375 1388.43066406 c 0,8,9
 50.2646484375 1462.15332031 50.2646484375 1462.15332031 126.220703125 1462.15332031 c 2,10,-1
 654.561523438 1462.15332031 l 2,11,12
 846.685546875 1462.15332031 846.685546875 1462.15332031 950.567382812 1345.42675781 c 128,-1,13
 1054.44824219 1228.70019531 1054.44824219 1228.70019531 1054.44824219 1091.30859375 c 0,14,15
 1054.44824219 988.544921875 1054.44824219 988.544921875 990.220703125 901.418945312 c 128,-1,16
 925.993164062 814.29296875 925.993164062 814.29296875 800.888671875 766.26171875 c 1,17,18
 927.110351562 736.102539062 927.110351562 736.102539062 1014.79492188 636.690429688 c 128,-1,19
 1102.47851562 537.27734375 1102.47851562 537.27734375 1102.47851562 397.65234375 c 0,20,21
 1102.47851562 251.325195312 1102.47851562 251.325195312 999.71484375 125.662109375 c 128,-1,22
 896.951171875 0 896.951171875 0 698.125 0 c 2,23,-1
 126.220703125 0 l 2,24,0
 50.2646484375 0 50.2646484375 0 50.2646484375 70.9296875 c 128,-1,1
366.375976562 141.859375 m 1,25,-1
 659.030273438 141.859375 l 2,26,27
 789.71875 141.859375 789.71875 141.859375 865.116210938 220.607421875 c 128,-1,28
 940.513671875 299.356445312 940.513671875 299.356445312 940.513671875 404.353515625 c 0,29,30
 940.513671875 459.086914062 940.513671875 459.086914062 920.966796875 518.846679688 c 128,-1,31
 901.418945312 578.606445312 901.418945312 578.606445312 837.19140625 633.338867188 c 128,-1,32
 772.963867188 688.072265625 772.963867188 688.072265625 672.43359375 688.072265625 c 2,33,-1
 366.375976562 688.072265625 l 1,34,-1
 366.375976562 141.859375 l 1,25,-1
366.375976562 829.930664062 m 1,35,-1
 608.764648438 829.930664062 l 2,36,37
 746.15625 829.930664062 746.15625 829.930664062 820.436523438 911.471679688 c 128,-1,38
 894.716796875 993.012695312 894.716796875 993.012695312 894.716796875 1089.07519531 c 0,39,40
 894.716796875 1178.43457031 894.716796875 1178.43457031 831.606445312 1249.36425781 c 128,-1,41
 768.49609375 1320.29394531 768.49609375 1320.29394531 659.030273438 1320.29394531 c 2,42,-1
 366.375976562 1320.29394531 l 1,43,-1
 366.375976562 829.930664062 l 1,35,-1
EndSplineSet
EndChar

StartChar: Gamma
Encoding: 915 915 54
Width: 1200
VWidth: 2287
GlyphClass: 2
Flags: W
LayerCount: 2
Fore
SplineSet
68.13671875 68.13671875 m 0,0,1
 65.9033203125 141.859375 65.9033203125 141.859375 148.560546875 141.859375 c 2,2,3
 148.560546875 141.859375 148.560546875 141.859375 244.623046875 141.859375 c 1,4,-1
 244.623046875 1320.29394531 l 1,5,-1
 155.262695312 1320.29394531 l 2,6,7
 68.13671875 1320.29394531 68.13671875 1320.29394531 68.13671875 1388.43066406 c 0,8,9
 68.13671875 1462.15332031 68.13671875 1462.15332031 146.327148438 1462.15332031 c 2,10,-1
 1038.80957031 1462.15332031 l 2,11,12
 1117 1462.15332031 1117 1462.15332031 1115.8828125 1377.26074219 c 2,13,-1
 1115.8828125 1180.66894531 l 2,14,15
 1115.8828125 1102.47851562 1115.8828125 1102.47851562 1045.51171875 1102.47851562 c 2,16,-1
 1041.04394531 1102.47851562 l 2,17,18
 965.087890625 1102.47851562 965.087890625 1102.47851562 962.853515625 1178.43457031 c 2,19,-1
 962.853515625 1320.29394531 l 1,20,-1
 404.353515625 1320.29394531 l 1,21,-1
 404.353515625 141.859375 l 1,22,-1
 551.797851562 141.859375 l 2,23,24
 627.75390625 139.625 627.75390625 139.625 626.63671875 70.37109375 c 0,25,26
 626.63671875 0 626.63671875 0 543.978515625 0 c 2,27,-1
 146.327148438 0 l 2,28,29
 68.13671875 0 68.13671875 0 68.13671875 68.13671875 c 0,0,1
EndSplineSet
EndChar

StartChar: uni0394
Encoding: 916 916 55
Width: 1200
VWidth: 2287
GlyphClass: 2
Flags: W
LayerCount: 2
Fore
SplineSet
78.1904296875 50.2646484375 m 0,0,1
 78.1904296875 61.4345703125 78.1904296875 61.4345703125 82.658203125 80.423828125 c 2,2,-1
 469.139648438 1397.3671875 l 2,3,4
 484.778320312 1449.86621094 484.778320312 1449.86621094 507.676757812 1469.41308594 c 128,-1,5
 530.575195312 1488.9609375 530.575195312 1488.9609375 580.83984375 1488.9609375 c 2,6,-1
 619.934570312 1488.9609375 l 2,7,8
 700.359375 1488.9609375 700.359375 1488.9609375 722.69921875 1416.35644531 c 2,9,-1
 1111.41503906 96.0615234375 l 2,10,11
 1120.35058594 63.6689453125 1120.35058594 63.6689453125 1121.46777344 50.2646484375 c 0,12,13
 1121.46777344 0 1121.46777344 0 1056.68164062 0 c 2,14,-1
 148.560546875 0 l 2,15,16
 78.1904296875 0 78.1904296875 0 78.1904296875 50.2646484375 c 0,0,1
272.547851562 155.262695312 m 1,17,-1
 925.993164062 155.262695312 l 1,18,-1
 619.934570312 1221.99804688 l 1,19,-1
 599.829101562 1301.3046875 l 1,20,-1
 438.981445312 731.634765625 l 1,21,-1
 272.547851562 155.262695312 l 1,17,-1
EndSplineSet
EndChar

StartChar: Epsilon
Encoding: 917 917 56
Width: 1200
VWidth: 2287
GlyphClass: 2
Flags: W
LayerCount: 2
Fore
SplineSet
56.966796875 70.9296875 m 128,-1,1
 56.966796875 141.859375 56.966796875 141.859375 137.390625 141.859375 c 2,2,3
 137.390625 141.859375 137.390625 141.859375 220.048828125 141.859375 c 1,4,-1
 220.048828125 1320.29394531 l 1,5,-1
 139.625 1320.29394531 l 2,6,7
 56.966796875 1320.29394531 56.966796875 1320.29394531 56.966796875 1388.43066406 c 0,8,9
 56.966796875 1462.15332031 56.966796875 1462.15332031 137.390625 1462.15332031 c 2,10,-1
 1019.82128906 1462.15332031 l 2,11,12
 1056.68164062 1462.15332031 1056.68164062 1462.15332031 1075.11230469 1444.83984375 c 128,-1,13
 1093.54296875 1427.52636719 1093.54296875 1427.52636719 1095.77734375 1413.56347656 c 128,-1,14
 1098.01074219 1399.60058594 1098.01074219 1399.60058594 1098.01074219 1377.26074219 c 2,15,-1
 1098.01074219 1180.66894531 l 2,16,17
 1098.01074219 1102.47851562 1098.01074219 1102.47851562 1027.63964844 1102.47851562 c 1,18,-1
 1025.40625 1104.71289062 l 1,19,20
 947.215820312 1104.71289062 947.215820312 1104.71289062 944.982421875 1178.43457031 c 2,21,-1
 944.982421875 1320.29394531 l 1,22,-1
 379.780273438 1320.29394531 l 1,23,-1
 379.780273438 827.697265625 l 1,24,-1
 681.370117188 827.697265625 l 1,25,-1
 681.370117188 875.727539062 l 2,26,27
 681.370117188 958.385742188 681.370117188 958.385742188 755.091796875 958.385742188 c 2,28,-1
 764.028320312 958.385742188 l 2,29,30
 834.399414062 958.385742188 834.399414062 958.385742188 835.515625 875.727539062 c 2,31,-1
 835.515625 635.573242188 l 2,32,33
 835.515625 557.3828125 835.515625 557.3828125 759.559570312 558.5 c 2,34,-1
 755.091796875 558.5 l 2,35,36
 681.370117188 558.5 681.370117188 558.5 681.370117188 640.041015625 c 2,37,-1
 681.370117188 685.837890625 l 1,38,-1
 379.780273438 685.837890625 l 1,39,-1
 379.780273438 141.859375 l 1,40,-1
 995.247070312 141.859375 l 1,41,-1
 995.247070312 316.111328125 l 2,42,43
 997.481445312 394.30078125 997.481445312 394.30078125 1073.43652344 393.18359375 c 2,44,-1
 1077.90527344 393.18359375 l 2,45,46
 1151.62695312 393.18359375 1151.62695312 393.18359375 1150.50976562 311.642578125 c 0,47,48
 1150.50976562 307.174804688 1150.50976562 307.174804688 1149.39257812 299.9140625 c 128,-1,49
 1148.27636719 292.654296875 1148.27636719 292.654296875 1148.27636719 290.419921875 c 2,50,-1
 1148.27636719 82.658203125 l 2,51,52
 1148.27636719 56.966796875 1148.27636719 56.966796875 1144.92480469 42.4462890625 c 128,-1,53
 1141.57421875 27.9248046875 1141.57421875 27.9248046875 1123.14355469 13.962890625 c 128,-1,54
 1104.71289062 0 1104.71289062 0 1067.8515625 0 c 2,55,-1
 137.390625 0 l 2,56,0
 56.966796875 0 56.966796875 0 56.966796875 70.9296875 c 128,-1,1
EndSplineSet
EndChar

StartChar: Zeta
Encoding: 918 918 57
Width: 1200
VWidth: 2287
GlyphClass: 2
Flags: W
LayerCount: 2
Fore
SplineSet
107.232421875 82.658203125 m 0,0,1
 107.232421875 104.998046875 107.232421875 104.998046875 121.194335938 130.130859375 c 128,-1,2
 135.157226562 155.262695312 135.157226562 155.262695312 198.826171875 255.79296875 c 0,3,4
 246.857421875 329.514648438 246.857421875 329.514648438 279.25 379.780273438 c 2,5,-1
 885.78125 1320.29394531 l 1,6,-1
 288.185546875 1320.29394531 l 1,7,-1
 288.185546875 1185.13671875 l 2,8,9
 288.185546875 1104.71289062 288.185546875 1104.71289062 207.76171875 1104.71289062 c 0,10,11
 134.040039062 1104.71289062 134.040039062 1104.71289062 135.157226562 1185.13671875 c 2,12,-1
 135.157226562 1383.96289062 l 2,13,14
 135.157226562 1420.82421875 135.157226562 1420.82421875 151.353515625 1439.25488281 c 128,-1,15
 167.549804688 1457.68457031 167.549804688 1457.68457031 182.071289062 1459.91894531 c 128,-1,16
 196.591796875 1462.15332031 196.591796875 1462.15332031 224.516601562 1462.15332031 c 2,17,-1
 1004.18261719 1462.15332031 l 2,18,19
 1091.30859375 1462.15332031 1091.30859375 1462.15332031 1091.30859375 1392.89941406 c 0,20,21
 1091.30859375 1349.3359375 1091.30859375 1349.3359375 1070.0859375 1320.29394531 c 2,22,-1
 313.876953125 141.859375 l 1,23,-1
 947.215820312 141.859375 l 1,24,-1
 947.215820312 322.813476562 l 2,25,26
 947.215820312 401.002929688 947.215820312 401.002929688 1025.40625 399.885742188 c 0,27,28
 1101.36230469 399.885742188 1101.36230469 399.885742188 1100.24511719 322.813476562 c 2,29,-1
 1100.24511719 78.1904296875 l 2,30,31
 1100.24511719 41.3291015625 1100.24511719 41.3291015625 1084.04882812 22.8984375 c 128,-1,32
 1067.8515625 4.4677734375 1067.8515625 4.4677734375 1053.33105469 2.234375 c 128,-1,33
 1038.80957031 0 1038.80957031 0 1013.11914062 0 c 2,34,-1
 194.358398438 0 l 2,35,36
 166.432617188 0 166.432617188 0 150.794921875 3.3505859375 c 128,-1,37
 135.157226562 6.7021484375 135.157226562 6.7021484375 121.194335938 26.2490234375 c 128,-1,38
 107.232421875 45.796875 107.232421875 45.796875 107.232421875 82.658203125 c 0,0,1
EndSplineSet
EndChar

StartChar: Eta
Encoding: 919 919 58
Width: 1200
VWidth: 2287
GlyphClass: 2
Flags: W
LayerCount: 2
Fore
SplineSet
45.796875 70.9296875 m 128,-1,1
 45.796875 141.859375 45.796875 141.859375 123.987304688 141.859375 c 2,2,-1
 194.358398438 141.859375 l 1,3,-1
 194.358398438 1320.29394531 l 1,4,-1
 126.220703125 1320.29394531 l 2,5,6
 45.796875 1320.29394531 45.796875 1320.29394531 45.796875 1391.22363281 c 128,-1,7
 45.796875 1462.15332031 45.796875 1462.15332031 128.455078125 1462.15332031 c 2,8,-1
 423.342773438 1462.15332031 l 2,9,10
 506.000976562 1462.15332031 506.000976562 1462.15332031 506.000976562 1391.22363281 c 128,-1,11
 506.000976562 1320.29394531 506.000976562 1320.29394531 425.577148438 1320.29394531 c 2,12,-1
 354.088867188 1320.29394531 l 1,13,-1
 354.088867188 829.930664062 l 1,14,-1
 839.984375 829.930664062 l 1,15,-1
 839.984375 1320.29394531 l 1,16,-1
 770.73046875 1320.29394531 l 2,17,18
 690.305664062 1320.29394531 690.305664062 1320.29394531 690.305664062 1388.43066406 c 0,19,20
 690.305664062 1462.15332031 690.305664062 1462.15332031 770.73046875 1462.15332031 c 2,21,-1
 1070.0859375 1462.15332031 l 2,22,23
 1150.50976562 1462.15332031 1150.50976562 1462.15332031 1150.50976562 1391.22363281 c 128,-1,24
 1150.50976562 1320.29394531 1150.50976562 1320.29394531 1070.0859375 1320.29394531 c 2,25,-1
 1001.94921875 1320.29394531 l 1,26,-1
 1001.94921875 141.859375 l 1,27,-1
 1070.0859375 141.859375 l 2,28,29
 1150.50976562 141.859375 1150.50976562 141.859375 1150.50976562 70.9296875 c 128,-1,30
 1150.50976562 0 1150.50976562 0 1067.8515625 0 c 2,31,-1
 770.73046875 0 l 2,32,33
 690.305664062 0 690.305664062 0 690.305664062 70.9296875 c 128,-1,34
 690.305664062 141.859375 690.305664062 141.859375 770.73046875 141.859375 c 2,35,-1
 839.984375 141.859375 l 1,36,-1
 839.984375 688.072265625 l 1,37,-1
 354.088867188 688.072265625 l 1,38,-1
 354.088867188 141.859375 l 1,39,-1
 425.577148438 141.859375 l 2,40,41
 506.000976562 141.859375 506.000976562 141.859375 506.000976562 70.9296875 c 128,-1,42
 506.000976562 0 506.000976562 0 423.342773438 0 c 2,43,-1
 126.220703125 0 l 2,44,0
 45.796875 0 45.796875 0 45.796875 70.9296875 c 128,-1,1
EndSplineSet
EndChar

StartChar: Theta
Encoding: 920 920 59
Width: 1200
VWidth: 2287
GlyphClass: 2
Flags: W
LayerCount: 2
Fore
SplineSet
128.455078125 622.168945312 m 2,0,-1
 128.455078125 796.420898438 l 2,1,2
 128.455078125 963.970703125 128.455078125 963.970703125 135.157226562 1072.3203125 c 128,-1,3
 141.859375 1180.66894531 141.859375 1180.66894531 164.7578125 1260.53417969 c 128,-1,4
 187.65625 1340.40039062 187.65625 1340.40039062 216.139648438 1382.84570312 c 128,-1,5
 244.623046875 1425.29199219 244.623046875 1425.29199219 304.3828125 1450.42480469 c 128,-1,6
 364.141601562 1475.55664062 364.141601562 1475.55664062 426.694335938 1481.14160156 c 128,-1,7
 489.24609375 1486.7265625 489.24609375 1486.7265625 597.594726562 1486.7265625 c 0,8,9
 682.487304688 1486.7265625 682.487304688 1486.7265625 734.986328125 1484.49316406 c 128,-1,10
 787.485351562 1482.25878906 787.485351562 1482.25878906 842.217773438 1469.97167969 c 128,-1,11
 896.951171875 1457.68457031 896.951171875 1457.68457031 926.551757812 1438.13769531 c 128,-1,12
 956.15234375 1418.58984375 956.15234375 1418.58984375 985.752929688 1378.37792969 c 128,-1,13
 1015.35253906 1338.16601562 1015.35253906 1338.16601562 1028.19824219 1289.01757812 c 128,-1,14
 1041.04394531 1239.87011719 1041.04394531 1239.87011719 1052.21386719 1160.00488281 c 128,-1,15
 1063.38378906 1080.13867188 1063.38378906 1080.13867188 1066.73535156 987.427734375 c 128,-1,16
 1070.0859375 894.716796875 1070.0859375 894.716796875 1070.0859375 759.559570312 c 2,17,-1
 1070.0859375 619.934570312 l 2,18,19
 1067.8515625 528.340820312 1067.8515625 528.340820312 1065.61816406 473.608398438 c 128,-1,20
 1063.38378906 418.875 1063.38378906 418.875 1058.91601562 351.296875 c 128,-1,21
 1054.44824219 283.717773438 1054.44824219 283.717773438 1047.74609375 246.857421875 c 128,-1,22
 1041.04394531 209.99609375 1041.04394531 209.99609375 1028.19824219 165.874023438 c 128,-1,23
 1015.35253906 121.752929688 1015.35253906 121.752929688 999.71484375 99.9716796875 c 128,-1,24
 984.077148438 78.1904296875 984.077148438 78.1904296875 958.944335938 51.9404296875 c 128,-1,25
 933.811523438 25.69140625 933.811523438 25.69140625 903.653320312 13.962890625 c 128,-1,26
 873.494140625 2.234375 873.494140625 2.234375 831.606445312 -7.8193359375 c 128,-1,27
 789.71875 -17.8720703125 789.71875 -17.8720703125 741.688476562 -21.78125 c 128,-1,28
 693.657226562 -25.69140625 693.657226562 -25.69140625 628.87109375 -25.69140625 c 2,29,-1
 574.137695312 -25.69140625 l 2,30,31
 469.139648438 -25.69140625 469.139648438 -25.69140625 402.678710938 -17.3134765625 c 128,-1,32
 336.216796875 -8.935546875 336.216796875 -8.935546875 283.717773438 21.78125 c 128,-1,33
 231.21875 52.4990234375 231.21875 52.4990234375 204.969726562 91.59375 c 128,-1,34
 178.719726562 130.689453125 178.719726562 130.689453125 160.2890625 211.671875 c 128,-1,35
 141.859375 292.654296875 141.859375 292.654296875 136.274414062 382.013671875 c 128,-1,36
 130.689453125 471.374023438 130.689453125 471.374023438 128.455078125 622.168945312 c 2,0,-1
288.185546875 718.231445312 m 2,37,38
 288.185546875 543.978515625 288.185546875 543.978515625 294.887695312 446.799804688 c 128,-1,39
 301.58984375 349.62109375 301.58984375 349.62109375 316.669921875 275.340820312 c 128,-1,40
 331.749023438 201.059570312 331.749023438 201.059570312 369.7265625 170.342773438 c 128,-1,41
 407.705078125 139.625 407.705078125 139.625 457.969726562 126.779296875 c 128,-1,42
 508.235351562 113.93359375 508.235351562 113.93359375 597.594726562 113.93359375 c 0,43,44
 746.15625 113.93359375 746.15625 113.93359375 803.123046875 150.794921875 c 128,-1,45
 860.08984375 187.65625 860.08984375 187.65625 880.196289062 268.080078125 c 0,46,47
 900.301757812 346.26953125 900.301757812 346.26953125 910.35546875 628.87109375 c 1,48,-1
 910.35546875 752.858398438 l 2,49,50
 910.35546875 922.641601562 910.35546875 922.641601562 903.653320312 1019.26269531 c 128,-1,51
 896.951171875 1115.8828125 896.951171875 1115.8828125 880.754882812 1187.9296875 c 128,-1,52
 864.557617188 1259.97558594 864.557617188 1259.97558594 826.021484375 1290.13476562 c 128,-1,53
 787.485351562 1320.29394531 787.485351562 1320.29394531 737.778320312 1332.58105469 c 128,-1,54
 688.072265625 1344.86816406 688.072265625 1344.86816406 599.829101562 1344.86816406 c 0,55,56
 554.032226562 1344.86816406 554.032226562 1344.86816406 518.288085938 1342.63378906 c 128,-1,57
 482.543945312 1340.40039062 482.543945312 1340.40039062 452.943359375 1329.23046875 c 128,-1,58
 423.342773438 1318.05957031 423.342773438 1318.05957031 402.678710938 1311.91601562 c 128,-1,59
 382.013671875 1305.7734375 382.013671875 1305.7734375 363.583984375 1279.5234375 c 128,-1,60
 345.153320312 1253.27441406 345.153320312 1253.27441406 335.099609375 1240.98730469 c 128,-1,61
 325.046875 1228.70019531 325.046875 1228.70019531 316.669921875 1186.25390625 c 128,-1,62
 308.291992188 1143.80761719 308.291992188 1143.80761719 303.82421875 1123.14355469 c 128,-1,63
 299.356445312 1102.47851562 299.356445312 1102.47851562 296.004882812 1041.04394531 c 128,-1,64
 292.654296875 979.609375 292.654296875 979.609375 291.537109375 947.215820312 c 128,-1,65
 290.419921875 914.823242188 290.419921875 914.823242188 288.185546875 832.165039062 c 2,66,-1
 288.185546875 718.231445312 l 2,37,38
375.311523438 659.030273438 m 2,67,-1
 375.311523438 796.420898438 l 2,68,69
 375.311523438 883.546875 375.311523438 883.546875 453.501953125 883.546875 c 2,70,-1
 455.736328125 883.546875 l 2,71,72
 526.107421875 883.546875 526.107421875 883.546875 528.340820312 809.825195312 c 1,73,-1
 670.200195312 809.825195312 l 1,74,75
 670.200195312 846.685546875 670.200195312 846.685546875 691.981445312 865.116210938 c 128,-1,76
 713.762695312 883.546875 713.762695312 883.546875 746.15625 883.546875 c 0,77,78
 824.345703125 883.546875 824.345703125 883.546875 823.228515625 798.655273438 c 2,79,-1
 823.228515625 659.030273438 l 2,80,81
 823.228515625 578.606445312 823.228515625 578.606445312 743.921875 578.606445312 c 0,82,83
 670.200195312 580.83984375 670.200195312 580.83984375 670.200195312 652.328125 c 1,84,-1
 528.340820312 652.328125 l 1,85,86
 528.340820312 578.606445312 528.340820312 578.606445312 455.736328125 578.606445312 c 0,87,88
 375.311523438 578.606445312 375.311523438 578.606445312 375.311523438 659.030273438 c 2,67,-1
EndSplineSet
EndChar

StartChar: Iota
Encoding: 921 921 60
Width: 1200
VWidth: 2287
GlyphClass: 2
Flags: W
LayerCount: 2
Fore
SplineSet
178.161132812 1391.22363281 m 128,-1,1
 178.719726562 1462.15332031 178.719726562 1462.15332031 255.79296875 1462.15332031 c 2,2,-1
 942.748046875 1462.15332031 l 2,3,4
 1018.70410156 1462.15332031 1018.70410156 1462.15332031 1018.14550781 1391.22363281 c 128,-1,5
 1017.58691406 1320.29394531 1017.58691406 1320.29394531 936.045898438 1320.29394531 c 2,6,-1
 679.135742188 1320.29394531 l 1,7,-1
 679.135742188 141.859375 l 1,8,-1
 936.045898438 141.859375 l 2,9,10
 1018.70410156 141.859375 1018.70410156 141.859375 1018.14550781 70.9296875 c 128,-1,11
 1017.58691406 0 1017.58691406 0 944.982421875 0 c 2,12,-1
 255.79296875 0 l 2,13,14
 178.719726562 2.234375 178.719726562 2.234375 178.719726562 70.37109375 c 0,15,16
 178.719726562 140.7421875 178.719726562 140.7421875 255.79296875 141.859375 c 2,17,-1
 519.405273438 141.859375 l 1,18,-1
 519.405273438 1320.29394531 l 1,19,-1
 258.02734375 1320.29394531 l 2,20,0
 177.602539062 1320.29394531 177.602539062 1320.29394531 178.161132812 1391.22363281 c 128,-1,1
EndSplineSet
EndChar

StartChar: Kappa
Encoding: 922 922 61
Width: 1200
VWidth: 2287
GlyphClass: 2
Flags: W
LayerCount: 2
Fore
SplineSet
56.966796875 70.9296875 m 128,-1,1
 56.966796875 141.859375 56.966796875 141.859375 137.390625 141.859375 c 2,2,-1
 201.059570312 141.859375 l 1,3,-1
 201.059570312 1320.29394531 l 1,4,-1
 137.390625 1320.29394531 l 2,5,6
 56.966796875 1320.29394531 56.966796875 1320.29394531 56.966796875 1388.43066406 c 0,7,8
 56.966796875 1462.15332031 56.966796875 1462.15332031 137.390625 1462.15332031 c 2,9,-1
 393.18359375 1462.15332031 l 2,10,11
 473.608398438 1462.15332031 473.608398438 1462.15332031 473.608398438 1391.22363281 c 128,-1,12
 473.608398438 1320.29394531 473.608398438 1320.29394531 395.41796875 1320.29394531 c 2,13,-1
 331.749023438 1320.29394531 l 1,14,-1
 331.749023438 674.66796875 l 1,15,-1
 823.228515625 1320.29394531 l 1,16,-1
 809.825195312 1320.29394531 l 2,17,18
 789.71875 1320.29394531 789.71875 1320.29394531 773.522460938 1323.64453125 c 128,-1,19
 757.326171875 1326.99609375 757.326171875 1326.99609375 742.24609375 1344.30957031 c 128,-1,20
 727.166992188 1361.62304688 727.166992188 1361.62304688 727.166992188 1390.66503906 c 0,21,22
 727.166992188 1461.03613281 727.166992188 1461.03613281 803.123046875 1462.15332031 c 2,23,-1
 1032.10839844 1462.15332031 l 2,24,25
 1110.29785156 1462.15332031 1110.29785156 1462.15332031 1109.73925781 1391.22363281 c 128,-1,26
 1109.18066406 1320.29394531 1109.18066406 1320.29394531 1027.63964844 1320.29394531 c 2,27,-1
 1010.88476562 1320.29394531 l 2,28,29
 1004.18261719 1320.29394531 1004.18261719 1320.29394531 998.59765625 1320.29394531 c 128,-1,30
 993.012695312 1320.29394531 993.012695312 1320.29394531 988.544921875 1318.05957031 c 128,-1,31
 984.077148438 1315.82617188 984.077148438 1315.82617188 981.842773438 1314.70898438 c 128,-1,32
 979.609375 1313.59179688 979.609375 1313.59179688 974.58203125 1309.68261719 c 128,-1,33
 969.555664062 1305.7734375 969.555664062 1305.7734375 968.439453125 1303.5390625 c 128,-1,34
 967.322265625 1301.3046875 967.322265625 1301.3046875 961.737304688 1294.60253906 c 128,-1,35
 956.15234375 1287.90136719 956.15234375 1287.90136719 953.91796875 1285.66699219 c 2,36,-1
 628.87109375 860.08984375 l 1,37,-1
 1010.88476562 141.859375 l 1,38,-1
 1052.21386719 141.859375 l 2,39,40
 1132.63769531 141.859375 1132.63769531 141.859375 1132.63769531 68.13671875 c 0,41,42
 1132.63769531 2.234375 1132.63769531 2.234375 1054.44824219 0 c 2,43,-1
 848.919921875 0 l 2,44,45
 809.825195312 0 809.825195312 0 790.27734375 20.6640625 c 128,-1,46
 770.73046875 41.3291015625 770.73046875 41.3291015625 770.73046875 68.13671875 c 0,47,48
 770.73046875 141.859375 770.73046875 141.859375 855.622070312 141.859375 c 2,49,-1
 864.557617188 141.859375 l 1,50,-1
 541.745117188 746.15625 l 1,51,52
 340.684570312 485.89453125 340.684570312 485.89453125 333.983398438 466.90625 c 0,53,54
 329.514648438 457.969726562 329.514648438 457.969726562 329.514648438 445.682617188 c 0,55,56
 329.514648438 443.44921875 329.514648438 443.44921875 330.631835938 436.747070312 c 128,-1,57
 331.749023438 430.044921875 331.749023438 430.044921875 331.749023438 425.577148438 c 2,58,-1
 331.749023438 141.859375 l 1,59,-1
 393.18359375 141.859375 l 2,60,61
 473.608398438 141.859375 473.608398438 141.859375 473.608398438 70.9296875 c 128,-1,62
 473.608398438 0 473.608398438 0 393.18359375 0 c 2,63,-1
 137.390625 0 l 2,64,0
 56.966796875 0 56.966796875 0 56.966796875 70.9296875 c 128,-1,1
EndSplineSet
EndChar

StartChar: Lambda
Encoding: 923 923 62
Width: 1200
VWidth: 2287
GlyphClass: 2
Flags: W
LayerCount: 2
Fore
SplineSet
63.6689453125 73.7216796875 m 0,0,1
 63.6689453125 141.859375 63.6689453125 141.859375 144.092773438 141.859375 c 2,2,-1
 194.358398438 141.859375 l 1,3,4
 196.591796875 150.794921875 196.591796875 150.794921875 199.943359375 171.459960938 c 128,-1,5
 203.293945312 192.124023438 203.293945312 192.124023438 205.528320312 201.059570312 c 2,6,-1
 475.841796875 1411.88769531 l 2,7,8
 491.48046875 1490.078125 491.48046875 1490.078125 567.435546875 1488.9609375 c 2,9,-1
 624.403320312 1488.9609375 l 2,10,11
 661.263671875 1488.9609375 661.263671875 1488.9609375 684.162109375 1474.44042969 c 128,-1,12
 707.060546875 1459.91894531 707.060546875 1459.91894531 712.646484375 1443.72265625 c 128,-1,13
 718.231445312 1427.52636719 718.231445312 1427.52636719 724.932617188 1399.60058594 c 2,14,-1
 990.779296875 198.826171875 l 2,15,16
 993.012695312 189.889648438 993.012695312 189.889648438 996.364257812 170.342773438 c 128,-1,17
 999.71484375 150.794921875 999.71484375 150.794921875 1001.94921875 141.859375 c 1,18,-1
 1052.21386719 141.859375 l 2,19,20
 1132.63769531 141.859375 1132.63769531 141.859375 1132.63769531 73.7216796875 c 0,21,22
 1132.63769531 0 1132.63769531 0 1052.21386719 0 c 2,23,-1
 775.198242188 0 l 2,24,25
 697.0078125 0 697.0078125 0 698.125 68.13671875 c 0,26,27
 695.890625 109.465820312 695.890625 109.465820312 718.7890625 125.662109375 c 128,-1,28
 741.688476562 141.859375 741.688476562 141.859375 779.666015625 141.859375 c 2,29,-1
 839.984375 141.859375 l 1,30,-1
 640.041015625 1065.61816406 l 1,31,-1
 604.296875 1253.27441406 l 1,32,-1
 597.594726562 1301.3046875 l 1,33,-1
 585.307617188 1214.17871094 l 1,34,-1
 510.46875 839.984375 l 1,35,-1
 356.323242188 141.859375 l 1,36,-1
 421.109375 141.859375 l 2,37,38
 499.298828125 141.859375 499.298828125 141.859375 498.740234375 70.9296875 c 128,-1,39
 498.181640625 0 498.181640625 0 421.109375 0 c 2,40,-1
 144.092773438 0 l 2,41,42
 63.6689453125 0 63.6689453125 0 63.6689453125 73.7216796875 c 0,0,1
EndSplineSet
EndChar

StartChar: Mu
Encoding: 924 924 63
Width: 1200
VWidth: 2287
GlyphClass: 2
Flags: W
LayerCount: 2
Fore
SplineSet
39.0947265625 73.7216796875 m 0,0,1
 39.0947265625 141.859375 39.0947265625 141.859375 118.40234375 141.859375 c 2,2,-1
 159.731445312 141.859375 l 1,3,-1
 159.731445312 1320.29394531 l 1,4,-1
 118.40234375 1320.29394531 l 2,5,6
 37.9775390625 1320.29394531 37.9775390625 1320.29394531 39.0947265625 1392.89941406 c 0,7,8
 39.0947265625 1461.03613281 39.0947265625 1461.03613281 118.40234375 1462.15332031 c 2,9,-1
 272.547851562 1462.15332031 l 2,10,11
 352.971679688 1462.15332031 352.971679688 1462.15332031 377.545898438 1381.72851562 c 0,12,13
 576.372070312 752.858398438 576.372070312 752.858398438 599.829101562 647.860351562 c 1,14,15
 613.233398438 728.284179688 613.233398438 728.284179688 820.995117188 1381.72851562 c 0,16,17
 843.334960938 1462.15332031 843.334960938 1462.15332031 925.993164062 1462.15332031 c 2,18,-1
 1082.37304688 1462.15332031 l 2,19,20
 1160.56347656 1462.15332031 1160.56347656 1462.15332031 1159.44628906 1388.43066406 c 0,21,22
 1157.21191406 1320.29394531 1157.21191406 1320.29394531 1082.37304688 1320.29394531 c 2,23,-1
 1038.80957031 1320.29394531 l 1,24,-1
 1038.80957031 141.859375 l 1,25,-1
 1080.13867188 141.859375 l 2,26,27
 1160.56347656 141.859375 1160.56347656 141.859375 1159.44628906 68.13671875 c 0,28,29
 1157.21191406 0 1157.21191406 0 1084.60742188 0 c 2,30,-1
 866.791992188 0 l 2,31,32
 788.6015625 0 788.6015625 0 789.71875 68.13671875 c 0,33,34
 789.71875 141.859375 789.71875 141.859375 869.026367188 141.859375 c 2,35,-1
 910.35546875 141.859375 l 1,36,-1
 910.35546875 1237.63574219 l 1,37,-1
 908.12109375 1301.3046875 l 1,38,39
 894.716796875 1218.64746094 894.716796875 1218.64746094 685.837890625 571.904296875 c 0,40,41
 657.913085938 487.01171875 657.913085938 487.01171875 599.829101562 487.01171875 c 0,42,43
 547.330078125 487.01171875 547.330078125 487.01171875 521.638671875 535.04296875 c 0,44,45
 512.703125 555.149414062 512.703125 555.149414062 408.263671875 883.546875 c 128,-1,46
 303.82421875 1211.9453125 303.82421875 1211.9453125 283.717773438 1301.3046875 c 1,47,-1
 283.717773438 141.859375 l 1,48,-1
 325.046875 141.859375 l 2,49,50
 405.470703125 141.859375 405.470703125 141.859375 404.353515625 73.7216796875 c 0,51,52
 406.587890625 39.0947265625 406.587890625 39.0947265625 387.598632812 19.5478515625 c 128,-1,53
 368.610351562 0 368.610351562 0 327.28125 0 c 2,54,-1
 113.93359375 0 l 2,55,56
 39.0947265625 0 39.0947265625 0 39.0947265625 73.7216796875 c 0,0,1
EndSplineSet
EndChar

